<svg width="130" height="24" viewBox="0 0 130 24" fill="none" xmlns="http://www.w3.org/2000/svg">
<path d="M34.4297 18.6027V5.29324H36.7221V6.99827H36.8494C37.6136 5.69193 38.7598 5.03876 40.288 5.03876C41.1201 5.03876 41.8672 5.24234 42.5295 5.64952C43.1917 6.05669 43.7096 6.63352 44.0832 7.38H44.2105C44.6181 6.63352 45.1869 6.05669 45.9171 5.64952C46.6473 5.24234 47.4623 5.03876 48.3623 5.03876C49.2623 5.03876 50.0689 5.25931 50.782 5.70041C51.4952 6.12455 52.0556 6.74379 52.4631 7.55814C52.8707 8.35551 53.0744 9.2971 53.0744 10.3829V18.6027H50.6547V10.5356C50.6547 9.48372 50.3915 8.67786 49.8651 8.118C49.3557 7.54117 48.6764 7.25276 47.8274 7.25276C47.0293 7.25276 46.3501 7.55813 45.7897 8.16889C45.2294 8.77965 44.9492 9.56855 44.9492 10.5356V18.6027H42.5295V10.5356C42.5295 9.48372 42.2663 8.67786 41.7399 8.118C41.2304 7.54117 40.5597 7.25276 39.7276 7.25276C38.9126 7.25276 38.2249 7.55813 37.6645 8.16889C37.1211 8.77965 36.8494 9.56855 36.8494 10.5356V18.6027H34.4297Z" />
<path d="M67.2956 11.4263C67.2956 11.8843 67.2531 12.3254 67.1682 12.7496H57.4383C57.5572 14.022 57.9392 14.9975 58.5845 15.6761C59.2468 16.3548 60.1297 16.6941 61.2335 16.6941C61.9637 16.6941 62.575 16.5499 63.0674 16.2614C63.5768 15.973 64.0098 15.5319 64.3664 14.9381H66.939C66.5145 16.1596 65.8098 17.1182 64.8249 17.8138C63.857 18.5094 62.6599 18.8572 61.2335 18.8572C59.9939 18.8572 58.8987 18.5857 57.9477 18.0428C57.0138 17.4999 56.2836 16.711 55.7572 15.6761C55.2308 14.6412 54.9676 13.3943 54.9676 11.9352C54.9676 10.4762 55.2223 9.22924 55.7318 8.19434C56.2582 7.15945 56.9883 6.37903 57.9223 5.8531C58.8562 5.3102 59.9345 5.03876 61.1571 5.03876C62.4306 5.03876 63.5344 5.34414 64.4683 5.95489C65.4022 6.56565 66.1069 7.36303 66.5824 8.34703C67.0578 9.31407 67.2956 10.3405 67.2956 11.4263ZM64.8758 10.7137C64.757 9.74669 64.3834 8.92386 63.7551 8.24524C63.1268 7.54965 62.2608 7.20186 61.1571 7.20186C60.1043 7.20186 59.2637 7.51572 58.6355 8.14345C58.0072 8.77117 57.6166 9.62793 57.4638 10.7137H64.8758Z" />
<path d="M73.5031 18.6027C72.4164 18.6027 71.5419 18.2803 70.8796 17.6356C70.2344 16.991 69.9117 16.1427 69.9117 15.0908V7.53269H67.8231V5.29324H69.9117V1.73048H72.3315V5.29324H75.6936V7.53269H72.3315V14.9127C72.3315 15.3368 72.4673 15.6846 72.739 15.9561C73.0107 16.2275 73.3588 16.3632 73.7833 16.3632H75.6936V18.6027H73.5031Z" />
<path d="M88.9747 11.4263C88.9747 11.8843 88.9323 12.3254 88.8474 12.7496H79.1175C79.2364 14.022 79.6184 14.9975 80.2637 15.6761C80.9259 16.3548 81.8089 16.6941 82.9127 16.6941C83.6428 16.6941 84.2541 16.5499 84.7466 16.2614C85.256 15.973 85.689 15.5319 86.0456 14.9381H88.6181C88.1936 16.1596 87.4889 17.1182 86.5041 17.8138C85.5362 18.5094 84.339 18.8572 82.9127 18.8572C81.6731 18.8572 80.5778 18.5857 79.6269 18.0428C78.693 17.4999 77.9628 16.711 77.4364 15.6761C76.91 14.6412 76.6468 13.3943 76.6468 11.9352C76.6468 10.4762 76.9015 9.22924 77.4109 8.19434C77.9373 7.15945 78.6675 6.37903 79.6014 5.8531C80.5354 5.3102 81.6136 5.03876 82.8362 5.03876C84.1098 5.03876 85.2135 5.34414 86.1475 5.95489C87.0814 6.56565 87.7861 7.36303 88.2616 8.34703C88.737 9.31407 88.9747 10.3405 88.9747 11.4263ZM86.555 10.7137C86.4361 9.74669 86.0626 8.92386 85.4343 8.24524C84.806 7.54965 83.94 7.20186 82.8362 7.20186C81.7834 7.20186 80.9429 7.51572 80.3146 8.14345C79.6863 8.77117 79.2958 9.62793 79.143 10.7137H86.555Z" />
<path d="M90.9961 18.6027V5.29324H92.9828L93.2885 6.99827H93.4158C93.7894 6.38751 94.2564 5.95489 94.8167 5.70041C95.3771 5.42896 96.0563 5.29324 96.8544 5.29324H98.3317V7.58358H96.9308C95.895 7.58358 95.046 7.88896 94.3837 8.49972C93.7385 9.11048 93.4158 9.90786 93.4158 10.8919V18.6027H90.9961Z" />
<path d="M104.517 18.8572C103.278 18.8572 102.182 18.5857 101.231 18.0428C100.298 17.4999 99.5673 16.711 99.0409 15.6761C98.5145 14.6412 98.2514 13.3943 98.2514 11.9352C98.2514 10.4762 98.5061 9.22924 99.0155 8.19434C99.5419 7.15945 100.281 6.37903 101.231 5.8531C102.182 5.3102 103.278 5.03876 104.517 5.03876C105.757 5.03876 106.852 5.3102 107.803 5.8531C108.754 6.37903 109.484 7.15945 109.993 8.19434C110.52 9.22924 110.783 10.4762 110.783 11.9352C110.783 13.3943 110.52 14.6412 109.993 15.6761C109.467 16.711 108.728 17.4999 107.777 18.0428C106.844 18.5857 105.757 18.8572 104.517 18.8572ZM104.517 16.6432C105.655 16.6432 106.58 16.236 107.294 15.4216C108.007 14.6073 108.363 13.4452 108.363 11.9352C108.363 10.4423 108.007 9.28862 107.294 8.47427C106.58 7.65993 105.655 7.25276 104.517 7.25276C103.38 7.25276 102.454 7.65993 101.741 8.47427C101.028 9.28862 100.671 10.4423 100.671 11.9352C100.671 13.4452 101.028 14.6073 101.741 15.4216C102.454 16.236 103.38 16.6432 104.517 16.6432Z" />
<path d="M115.219 18.6027H112.8V5.29324H115.219V18.6027ZM113.997 3.10469C113.572 3.10469 113.207 2.96048 112.902 2.67207C112.596 2.36669 112.443 2.00193 112.443 1.57779C112.443 1.13669 112.596 0.763447 112.902 0.458067C113.207 0.152689 113.572 0 113.997 0C114.421 0 114.786 0.152689 115.092 0.458067C115.398 0.763447 115.55 1.13669 115.55 1.57779C115.55 2.00193 115.398 2.36669 115.092 2.67207C114.786 2.96048 114.421 3.10469 113.997 3.10469Z" />
<path d="M122.976 18.8572C121.855 18.8572 120.862 18.5942 119.996 18.0683C119.13 17.5254 118.45 16.7365 117.958 15.7016C117.465 14.6497 117.219 13.3943 117.219 11.9352C117.219 10.4762 117.465 9.22924 117.958 8.19434C118.45 7.15945 119.13 6.37903 119.996 5.8531C120.862 5.3102 121.855 5.03876 122.976 5.03876C123.893 5.03876 124.691 5.20841 125.37 5.54772C126.049 5.88703 126.601 6.32814 127.026 6.87103H127.153V0.788896H129.573V18.6027H127.28V16.8976H127.153C126.711 17.4914 126.134 17.9665 125.421 18.3228C124.708 18.679 123.893 18.8572 122.976 18.8572ZM123.409 16.6432C124.529 16.6432 125.429 16.236 126.109 15.4216C126.805 14.6073 127.153 13.4452 127.153 11.9352C127.153 10.4253 126.805 9.27165 126.109 8.47427C125.429 7.65993 124.529 7.25276 123.409 7.25276C122.271 7.25276 121.354 7.65993 120.658 8.47427C119.979 9.27165 119.639 10.4253 119.639 11.9352C119.639 13.4621 119.979 14.6328 120.658 15.4471C121.354 16.2445 122.271 16.6432 123.409 16.6432Z" />
<path fill-rule="evenodd" clip-rule="evenodd" d="M26.7371 14.2223V9.77793L21.9371 9.77793L21.9371 5.33353H17.1857V-1.90735e-06C17.1857 -1.90735e-06 13.005 0.000247955 11.3938 0.000247955C4.65059 0.000247955 0 5.97932 0 12.0001C0 18.1366 4.65059 24 11.3938 24C13.005 24 17.1857 24 17.1857 24V18.6667L21.9371 18.6667V14.2223H26.7371ZM21.9371 14.2223L17.1857 14.2223V9.77793L21.9371 9.77793V14.2223ZM12.3099 18.6667H17.1857V14.2223H12.3099L12.3099 18.6667ZM17.1857 9.77793H12.3099V5.33353L17.1857 5.33353L17.1857 9.77793ZM7.58572 14.2223H12.3099V9.77793H7.58572L7.58572 14.2223Z" />
</svg>
