<svg width="40" height="40" viewBox="0 0 40 40" fill="none" xmlns="http://www.w3.org/2000/svg">
<path fill-rule="evenodd" clip-rule="evenodd" d="M33 22.2223V17.7779L28.3323 17.7779L28.3323 13.3335H23.7119V8C23.7119 8 19.6464 8.00025 18.0797 8.00025C11.5224 8.00025 7 13.9793 7 20.0001C7 26.1366 11.5224 32 18.0797 32C19.6464 32 23.7119 32 23.7119 32V26.6667L28.3323 26.6667V22.2223L33 22.2223ZM28.3323 22.2223H23.7119V17.7779L28.3323 17.7779V22.2223ZM18.9705 26.6667H23.7119V22.2223H18.9705V26.6667ZM23.7119 17.7779H18.9705V13.3335L23.7119 13.3335L23.7119 17.7779ZM14.3766 22.2223H18.9705V17.7779H14.3766L14.3766 22.2223Z" fill="#0E0E0F"/>
</svg>
