<svg width="1512" height="427" viewBox="0 0 1512 427" fill="none" xmlns="http://www.w3.org/2000/svg">
<g clip-path="url(#clip0_154_368)">
<ellipse cx="756.5" cy="920.5" rx="1050.5" ry="1022.5" fill="url(#paint0_radial_154_368)"/>
<g opacity="0.4">
<mask id="path-2-inside-1_154_368" fill="white">
<path d="M1399 227L1462 227L1462 440L1399 440L1399 227Z"/>
</mask>
<path d="M1399 227L1462 227L1462 440L1399 440L1399 227Z" fill="url(#paint1_linear_154_368)" fill-opacity="0.2"/>
<path d="M1461 227L1461 440L1463 440L1463 227L1461 227ZM1400 440L1400 227L1398 227L1398 440L1400 440Z" fill="url(#paint2_linear_154_368)" fill-opacity="0.12" mask="url(#path-2-inside-1_154_368)"/>
<mask id="path-4-inside-2_154_368" fill="white">
<path d="M1328 227L1391 227L1391 440L1328 440L1328 227Z"/>
</mask>
<path d="M1328 227L1391 227L1391 440L1328 440L1328 227Z" fill="url(#paint3_linear_154_368)" fill-opacity="0.2"/>
<path d="M1390 227L1390 440L1392 440L1392 227L1390 227ZM1329 440L1329 227L1327 227L1327 440L1329 440Z" fill="url(#paint4_linear_154_368)" fill-opacity="0.12" mask="url(#path-4-inside-2_154_368)"/>
<mask id="path-6-inside-3_154_368" fill="white">
<path d="M1257 227L1320 227L1320 440L1257 440L1257 227Z"/>
</mask>
<path d="M1257 227L1320 227L1320 440L1257 440L1257 227Z" fill="url(#paint5_linear_154_368)" fill-opacity="0.2"/>
<path d="M1319 227L1319 440L1321 440L1321 227L1319 227ZM1258 440L1258 227L1256 227L1256 440L1258 440Z" fill="url(#paint6_linear_154_368)" fill-opacity="0.12" mask="url(#path-6-inside-3_154_368)"/>
<mask id="path-8-inside-4_154_368" fill="white">
<path d="M1186 227L1249 227L1249 440L1186 440L1186 227Z"/>
</mask>
<path d="M1186 227L1249 227L1249 440L1186 440L1186 227Z" fill="url(#paint7_linear_154_368)" fill-opacity="0.2"/>
<path d="M1248 227L1248 440L1250 440L1250 227L1248 227ZM1187 440L1187 227L1185 227L1185 440L1187 440Z" fill="url(#paint8_linear_154_368)" fill-opacity="0.12" mask="url(#path-8-inside-4_154_368)"/>
<mask id="path-10-inside-5_154_368" fill="white">
<path d="M1115 227L1178 227L1178 440L1115 440L1115 227Z"/>
</mask>
<path d="M1115 227L1178 227L1178 440L1115 440L1115 227Z" fill="url(#paint9_linear_154_368)" fill-opacity="0.2"/>
<path d="M1177 227L1177 440L1179 440L1179 227L1177 227ZM1116 440L1116 227L1114 227L1114 440L1116 440Z" fill="url(#paint10_linear_154_368)" fill-opacity="0.12" mask="url(#path-10-inside-5_154_368)"/>
<mask id="path-12-inside-6_154_368" fill="white">
<path d="M1044 227L1107 227L1107 440L1044 440L1044 227Z"/>
</mask>
<path d="M1044 227L1107 227L1107 440L1044 440L1044 227Z" fill="url(#paint11_linear_154_368)" fill-opacity="0.2"/>
<path d="M1106 227L1106 440L1108 440L1108 227L1106 227ZM1045 440L1045 227L1043 227L1043 440L1045 440Z" fill="url(#paint12_linear_154_368)" fill-opacity="0.12" mask="url(#path-12-inside-6_154_368)"/>
<mask id="path-14-inside-7_154_368" fill="white">
<path d="M973 227L1036 227L1036 440L972.999 440L973 227Z"/>
</mask>
<path d="M973 227L1036 227L1036 440L972.999 440L973 227Z" fill="url(#paint13_linear_154_368)" fill-opacity="0.2"/>
<path d="M1035 227L1035 440L1037 440L1037 227L1035 227ZM973.999 440L974 227L972 227L971.999 440L973.999 440Z" fill="url(#paint14_linear_154_368)" fill-opacity="0.12" mask="url(#path-14-inside-7_154_368)"/>
<mask id="path-16-inside-8_154_368" fill="white">
<path d="M902 227L965 227L965 440L901.999 440L902 227Z"/>
</mask>
<path d="M902 227L965 227L965 440L901.999 440L902 227Z" fill="url(#paint15_linear_154_368)" fill-opacity="0.2"/>
<path d="M964 227L964 440L966 440L966 227L964 227ZM902.999 440L903 227L901 227L900.999 440L902.999 440Z" fill="url(#paint16_linear_154_368)" fill-opacity="0.12" mask="url(#path-16-inside-8_154_368)"/>
<mask id="path-18-inside-9_154_368" fill="white">
<path d="M831 227L894 227L894 440L830.999 440L831 227Z"/>
</mask>
<path d="M831 227L894 227L894 440L830.999 440L831 227Z" fill="url(#paint17_linear_154_368)" fill-opacity="0.2"/>
<path d="M893 227L893 440L895 440L895 227L893 227ZM831.999 440L832 227L830 227L829.999 440L831.999 440Z" fill="url(#paint18_linear_154_368)" fill-opacity="0.12" mask="url(#path-18-inside-9_154_368)"/>
<mask id="path-20-inside-10_154_368" fill="white">
<path d="M759.999 227L822.999 227L822.999 440L759.999 440L759.999 227Z"/>
</mask>
<path d="M759.999 227L822.999 227L822.999 440L759.999 440L759.999 227Z" fill="url(#paint19_linear_154_368)" fill-opacity="0.2"/>
<path d="M821.999 227L821.999 440L823.999 440L823.999 227L821.999 227ZM760.999 440L760.999 227L758.999 227L758.999 440L760.999 440Z" fill="url(#paint20_linear_154_368)" fill-opacity="0.12" mask="url(#path-20-inside-10_154_368)"/>
<mask id="path-22-inside-11_154_368" fill="white">
<path d="M688.999 227L751.999 227L751.999 440L688.999 440L688.999 227Z"/>
</mask>
<path d="M688.999 227L751.999 227L751.999 440L688.999 440L688.999 227Z" fill="url(#paint21_linear_154_368)" fill-opacity="0.2"/>
<path d="M750.999 227L750.999 440L752.999 440L752.999 227L750.999 227ZM689.999 440L689.999 227L687.999 227L687.999 440L689.999 440Z" fill="url(#paint22_linear_154_368)" fill-opacity="0.12" mask="url(#path-22-inside-11_154_368)"/>
<mask id="path-24-inside-12_154_368" fill="white">
<path d="M617.999 227L680.999 227L680.999 440L617.999 440L617.999 227Z"/>
</mask>
<path d="M617.999 227L680.999 227L680.999 440L617.999 440L617.999 227Z" fill="url(#paint23_linear_154_368)" fill-opacity="0.2"/>
<path d="M679.999 227L679.999 440L681.999 440L681.999 227L679.999 227ZM618.999 440L618.999 227L616.999 227L616.999 440L618.999 440Z" fill="url(#paint24_linear_154_368)" fill-opacity="0.12" mask="url(#path-24-inside-12_154_368)"/>
<mask id="path-26-inside-13_154_368" fill="white">
<path d="M546.999 227L609.999 227L609.999 440L546.999 440L546.999 227Z"/>
</mask>
<path d="M546.999 227L609.999 227L609.999 440L546.999 440L546.999 227Z" fill="url(#paint25_linear_154_368)" fill-opacity="0.2"/>
<path d="M608.999 227L608.999 440L610.999 440L610.999 227L608.999 227ZM547.999 440L547.999 227L545.999 227L545.999 440L547.999 440Z" fill="url(#paint26_linear_154_368)" fill-opacity="0.12" mask="url(#path-26-inside-13_154_368)"/>
<mask id="path-28-inside-14_154_368" fill="white">
<path d="M475.999 227L538.999 227L538.999 440L475.999 440L475.999 227Z"/>
</mask>
<path d="M475.999 227L538.999 227L538.999 440L475.999 440L475.999 227Z" fill="url(#paint27_linear_154_368)" fill-opacity="0.2"/>
<path d="M537.999 227L537.999 440L539.999 440L539.999 227L537.999 227ZM476.999 440L476.999 227L474.999 227L474.999 440L476.999 440Z" fill="url(#paint28_linear_154_368)" fill-opacity="0.12" mask="url(#path-28-inside-14_154_368)"/>
<mask id="path-30-inside-15_154_368" fill="white">
<path d="M404.999 227L467.999 227L467.999 440L404.999 440L404.999 227Z"/>
</mask>
<path d="M404.999 227L467.999 227L467.999 440L404.999 440L404.999 227Z" fill="url(#paint29_linear_154_368)" fill-opacity="0.2"/>
<path d="M466.999 227L466.999 440L468.999 440L468.999 227L466.999 227ZM405.999 440L405.999 227L403.999 227L403.999 440L405.999 440Z" fill="url(#paint30_linear_154_368)" fill-opacity="0.12" mask="url(#path-30-inside-15_154_368)"/>
<mask id="path-32-inside-16_154_368" fill="white">
<path d="M333.999 227L396.999 227L396.999 440L333.998 440L333.999 227Z"/>
</mask>
<path d="M333.999 227L396.999 227L396.999 440L333.998 440L333.999 227Z" fill="url(#paint31_linear_154_368)" fill-opacity="0.2"/>
<path d="M395.999 227L395.999 440L397.999 440L397.999 227L395.999 227ZM334.998 440L334.999 227L332.999 227L332.998 440L334.998 440Z" fill="url(#paint32_linear_154_368)" fill-opacity="0.12" mask="url(#path-32-inside-16_154_368)"/>
<mask id="path-34-inside-17_154_368" fill="white">
<path d="M262.999 227L325.999 227L325.999 440L262.998 440L262.999 227Z"/>
</mask>
<path d="M262.999 227L325.999 227L325.999 440L262.998 440L262.999 227Z" fill="url(#paint33_linear_154_368)" fill-opacity="0.2"/>
<path d="M324.999 227L324.999 440L326.999 440L326.999 227L324.999 227ZM263.998 440L263.999 227L261.999 227L261.998 440L263.998 440Z" fill="url(#paint34_linear_154_368)" fill-opacity="0.12" mask="url(#path-34-inside-17_154_368)"/>
<mask id="path-36-inside-18_154_368" fill="white">
<path d="M191.998 227L254.998 227L254.998 440L191.998 440L191.998 227Z"/>
</mask>
<path d="M191.998 227L254.998 227L254.998 440L191.998 440L191.998 227Z" fill="url(#paint35_linear_154_368)" fill-opacity="0.2"/>
<path d="M253.998 227L253.998 440L255.998 440L255.998 227L253.998 227ZM192.998 440L192.998 227L190.998 227L190.998 440L192.998 440Z" fill="url(#paint36_linear_154_368)" fill-opacity="0.08" mask="url(#path-36-inside-18_154_368)"/>
<mask id="path-38-inside-19_154_368" fill="white">
<path d="M120.998 227L183.998 227L183.998 440L120.998 440L120.998 227Z"/>
</mask>
<path d="M120.998 227L183.998 227L183.998 440L120.998 440L120.998 227Z" fill="url(#paint37_linear_154_368)" fill-opacity="0.2"/>
<path d="M182.998 227L182.998 440L184.998 440L184.998 227L182.998 227ZM121.998 440L121.998 227L119.998 227L119.998 440L121.998 440Z" fill="url(#paint38_linear_154_368)" fill-opacity="0.08" mask="url(#path-38-inside-19_154_368)"/>
<mask id="path-40-inside-20_154_368" fill="white">
<path d="M49.998 227L112.998 227L112.998 440L49.998 440L49.998 227Z"/>
</mask>
<path d="M49.998 227L112.998 227L112.998 440L49.998 440L49.998 227Z" fill="url(#paint39_linear_154_368)" fill-opacity="0.2"/>
<path d="M111.998 227L111.998 440L113.998 440L113.998 227L111.998 227ZM50.998 440L50.998 227L48.998 227L48.998 440L50.998 440Z" fill="url(#paint40_linear_154_368)" fill-opacity="0.08" mask="url(#path-40-inside-20_154_368)"/>
</g>
<ellipse cx="756.5" cy="1787" rx="1948.5" ry="1474" fill="black"/>
<path d="M2704.5 1787C2704.5 2193.84 2486.51 2562.21 2134 2828.88C1781.48 3095.55 1294.46 3260.5 756.5 3260.5C218.535 3260.5 -268.481 3095.55 -620.996 2828.88C-973.51 2562.21 -1191.5 2193.84 -1191.5 1787C-1191.5 1380.16 -973.51 1011.79 -620.996 745.123C-268.481 478.453 218.535 313.5 756.5 313.5C1294.46 313.5 1781.48 478.453 2134 745.123C2486.51 1011.79 2704.5 1380.16 2704.5 1787Z" stroke="url(#paint41_radial_154_368)" stroke-opacity="0.3"/>
</g>
<defs>
<radialGradient id="paint0_radial_154_368" cx="0" cy="0" r="1" gradientUnits="userSpaceOnUse" gradientTransform="translate(756.5 513.843) rotate(-90) scale(313.566 772.576)">
<stop offset="0.3" stop-color="white"/>
<stop offset="0.365785" stop-color="white"/>
<stop offset="1" stop-color="#04010A" stop-opacity="0"/>
</radialGradient>
<linearGradient id="paint1_linear_154_368" x1="1430.5" y1="227" x2="1430.5" y2="440" gradientUnits="userSpaceOnUse">
<stop offset="0.9999" stop-opacity="0"/>
<stop offset="1" stop-color="white"/>
</linearGradient>
<linearGradient id="paint2_linear_154_368" x1="1430.5" y1="227" x2="1430.5" y2="440" gradientUnits="userSpaceOnUse">
<stop stop-color="white" stop-opacity="0"/>
<stop offset="1" stop-color="white"/>
</linearGradient>
<linearGradient id="paint3_linear_154_368" x1="1359.5" y1="227" x2="1359.5" y2="440" gradientUnits="userSpaceOnUse">
<stop offset="0.9999" stop-opacity="0"/>
<stop offset="1" stop-color="white"/>
</linearGradient>
<linearGradient id="paint4_linear_154_368" x1="1359.5" y1="227" x2="1359.5" y2="440" gradientUnits="userSpaceOnUse">
<stop stop-color="white" stop-opacity="0"/>
<stop offset="1" stop-color="white"/>
</linearGradient>
<linearGradient id="paint5_linear_154_368" x1="1288.5" y1="227" x2="1288.5" y2="440" gradientUnits="userSpaceOnUse">
<stop offset="0.9999" stop-opacity="0"/>
<stop offset="1" stop-color="white"/>
</linearGradient>
<linearGradient id="paint6_linear_154_368" x1="1288.5" y1="227" x2="1288.5" y2="440" gradientUnits="userSpaceOnUse">
<stop stop-color="white" stop-opacity="0"/>
<stop offset="1" stop-color="white"/>
</linearGradient>
<linearGradient id="paint7_linear_154_368" x1="1217.5" y1="227" x2="1217.5" y2="440" gradientUnits="userSpaceOnUse">
<stop offset="0.9999" stop-opacity="0"/>
<stop offset="1" stop-color="white"/>
</linearGradient>
<linearGradient id="paint8_linear_154_368" x1="1217.5" y1="227" x2="1217.5" y2="440" gradientUnits="userSpaceOnUse">
<stop stop-color="white" stop-opacity="0"/>
<stop offset="1" stop-color="white"/>
</linearGradient>
<linearGradient id="paint9_linear_154_368" x1="1146.5" y1="227" x2="1146.5" y2="440" gradientUnits="userSpaceOnUse">
<stop offset="0.9999" stop-opacity="0"/>
<stop offset="1" stop-color="white"/>
</linearGradient>
<linearGradient id="paint10_linear_154_368" x1="1146.5" y1="227" x2="1146.5" y2="440" gradientUnits="userSpaceOnUse">
<stop stop-color="white" stop-opacity="0"/>
<stop offset="1" stop-color="white"/>
</linearGradient>
<linearGradient id="paint11_linear_154_368" x1="1075.5" y1="227" x2="1075.5" y2="440" gradientUnits="userSpaceOnUse">
<stop offset="0.9999" stop-opacity="0"/>
<stop offset="1" stop-color="white"/>
</linearGradient>
<linearGradient id="paint12_linear_154_368" x1="1075.5" y1="227" x2="1075.5" y2="440" gradientUnits="userSpaceOnUse">
<stop stop-color="white" stop-opacity="0"/>
<stop offset="1" stop-color="white"/>
</linearGradient>
<linearGradient id="paint13_linear_154_368" x1="1004.5" y1="227" x2="1004.5" y2="440" gradientUnits="userSpaceOnUse">
<stop offset="0.9999" stop-opacity="0"/>
<stop offset="1" stop-color="white"/>
</linearGradient>
<linearGradient id="paint14_linear_154_368" x1="1004.5" y1="227" x2="1004.5" y2="440" gradientUnits="userSpaceOnUse">
<stop stop-color="white" stop-opacity="0"/>
<stop offset="1" stop-color="white"/>
</linearGradient>
<linearGradient id="paint15_linear_154_368" x1="933.5" y1="227" x2="933.499" y2="440" gradientUnits="userSpaceOnUse">
<stop offset="0.9999" stop-opacity="0"/>
<stop offset="1" stop-color="white"/>
</linearGradient>
<linearGradient id="paint16_linear_154_368" x1="933.5" y1="227" x2="933.499" y2="440" gradientUnits="userSpaceOnUse">
<stop stop-color="white" stop-opacity="0"/>
<stop offset="1" stop-color="white"/>
</linearGradient>
<linearGradient id="paint17_linear_154_368" x1="862.5" y1="227" x2="862.499" y2="440" gradientUnits="userSpaceOnUse">
<stop offset="0.9999" stop-opacity="0"/>
<stop offset="1" stop-color="white"/>
</linearGradient>
<linearGradient id="paint18_linear_154_368" x1="862.5" y1="227" x2="862.499" y2="440" gradientUnits="userSpaceOnUse">
<stop stop-color="white" stop-opacity="0"/>
<stop offset="1" stop-color="white"/>
</linearGradient>
<linearGradient id="paint19_linear_154_368" x1="791.499" y1="227" x2="791.499" y2="440" gradientUnits="userSpaceOnUse">
<stop offset="0.9999" stop-opacity="0"/>
<stop offset="1" stop-color="white"/>
</linearGradient>
<linearGradient id="paint20_linear_154_368" x1="791.499" y1="227" x2="791.499" y2="440" gradientUnits="userSpaceOnUse">
<stop stop-color="white" stop-opacity="0"/>
<stop offset="1" stop-color="white"/>
</linearGradient>
<linearGradient id="paint21_linear_154_368" x1="720.499" y1="227" x2="720.499" y2="440" gradientUnits="userSpaceOnUse">
<stop offset="0.9999" stop-opacity="0"/>
<stop offset="1" stop-color="white"/>
</linearGradient>
<linearGradient id="paint22_linear_154_368" x1="720.499" y1="227" x2="720.499" y2="440" gradientUnits="userSpaceOnUse">
<stop stop-color="white" stop-opacity="0"/>
<stop offset="1" stop-color="white"/>
</linearGradient>
<linearGradient id="paint23_linear_154_368" x1="649.499" y1="227" x2="649.499" y2="440" gradientUnits="userSpaceOnUse">
<stop offset="0.9999" stop-opacity="0"/>
<stop offset="1" stop-color="white"/>
</linearGradient>
<linearGradient id="paint24_linear_154_368" x1="649.499" y1="227" x2="649.499" y2="440" gradientUnits="userSpaceOnUse">
<stop stop-color="white" stop-opacity="0"/>
<stop offset="1" stop-color="white"/>
</linearGradient>
<linearGradient id="paint25_linear_154_368" x1="578.499" y1="227" x2="578.499" y2="440" gradientUnits="userSpaceOnUse">
<stop offset="0.9999" stop-opacity="0"/>
<stop offset="1" stop-color="white"/>
</linearGradient>
<linearGradient id="paint26_linear_154_368" x1="578.499" y1="227" x2="578.499" y2="440" gradientUnits="userSpaceOnUse">
<stop stop-color="white" stop-opacity="0"/>
<stop offset="1" stop-color="white"/>
</linearGradient>
<linearGradient id="paint27_linear_154_368" x1="507.499" y1="227" x2="507.499" y2="440" gradientUnits="userSpaceOnUse">
<stop offset="0.9999" stop-opacity="0"/>
<stop offset="1" stop-color="white"/>
</linearGradient>
<linearGradient id="paint28_linear_154_368" x1="507.499" y1="227" x2="507.499" y2="440" gradientUnits="userSpaceOnUse">
<stop stop-color="white" stop-opacity="0"/>
<stop offset="1" stop-color="white"/>
</linearGradient>
<linearGradient id="paint29_linear_154_368" x1="436.499" y1="227" x2="436.499" y2="440" gradientUnits="userSpaceOnUse">
<stop offset="0.9999" stop-opacity="0"/>
<stop offset="1" stop-color="white"/>
</linearGradient>
<linearGradient id="paint30_linear_154_368" x1="436.499" y1="227" x2="436.499" y2="440" gradientUnits="userSpaceOnUse">
<stop stop-color="white" stop-opacity="0"/>
<stop offset="1" stop-color="white"/>
</linearGradient>
<linearGradient id="paint31_linear_154_368" x1="365.499" y1="227" x2="365.498" y2="440" gradientUnits="userSpaceOnUse">
<stop offset="0.9999" stop-opacity="0"/>
<stop offset="1" stop-color="white"/>
</linearGradient>
<linearGradient id="paint32_linear_154_368" x1="365.499" y1="227" x2="365.498" y2="440" gradientUnits="userSpaceOnUse">
<stop stop-color="white" stop-opacity="0"/>
<stop offset="1" stop-color="white"/>
</linearGradient>
<linearGradient id="paint33_linear_154_368" x1="294.499" y1="227" x2="294.498" y2="440" gradientUnits="userSpaceOnUse">
<stop offset="0.9999" stop-opacity="0"/>
<stop offset="1" stop-color="white"/>
</linearGradient>
<linearGradient id="paint34_linear_154_368" x1="294.499" y1="227" x2="294.498" y2="440" gradientUnits="userSpaceOnUse">
<stop stop-color="white" stop-opacity="0"/>
<stop offset="1" stop-color="white"/>
</linearGradient>
<linearGradient id="paint35_linear_154_368" x1="223.498" y1="227" x2="223.498" y2="440" gradientUnits="userSpaceOnUse">
<stop offset="0.9999" stop-opacity="0"/>
<stop offset="1" stop-color="white"/>
</linearGradient>
<linearGradient id="paint36_linear_154_368" x1="223.498" y1="227" x2="223.498" y2="440" gradientUnits="userSpaceOnUse">
<stop stop-color="white" stop-opacity="0"/>
<stop offset="1" stop-color="white"/>
</linearGradient>
<linearGradient id="paint37_linear_154_368" x1="152.498" y1="227" x2="152.498" y2="440" gradientUnits="userSpaceOnUse">
<stop offset="0.9999" stop-opacity="0"/>
<stop offset="1" stop-color="white"/>
</linearGradient>
<linearGradient id="paint38_linear_154_368" x1="152.498" y1="227" x2="152.498" y2="440" gradientUnits="userSpaceOnUse">
<stop stop-color="white" stop-opacity="0"/>
<stop offset="1" stop-color="white"/>
</linearGradient>
<linearGradient id="paint39_linear_154_368" x1="81.4981" y1="227" x2="81.498" y2="440" gradientUnits="userSpaceOnUse">
<stop offset="0.9999" stop-opacity="0"/>
<stop offset="1" stop-color="white"/>
</linearGradient>
<linearGradient id="paint40_linear_154_368" x1="81.4981" y1="227" x2="81.498" y2="440" gradientUnits="userSpaceOnUse">
<stop stop-color="white" stop-opacity="0"/>
<stop offset="1" stop-color="white"/>
</linearGradient>
<radialGradient id="paint41_radial_154_368" cx="0" cy="0" r="1" gradientUnits="userSpaceOnUse" gradientTransform="translate(755.852 313) rotate(180) scale(955.041 2374.88)">
<stop stop-color="white"/>
<stop offset="0.48" stop-color="white" stop-opacity="0.68"/>
<stop offset="0.897486" stop-color="white" stop-opacity="0"/>
</radialGradient>
<clipPath id="clip0_154_368">
<rect width="1512" height="427" fill="white"/>
</clipPath>
</defs>
</svg>
