<svg width="504" height="90" viewBox="0 0 504 90" fill="none" xmlns="http://www.w3.org/2000/svg">
<path fill-rule="evenodd" clip-rule="evenodd" d="M1.6349 8.19014C0 11.3988 0 15.5992 0 24V66C0 74.4008 0 78.6012 1.6349 81.8099C3.073 84.6323 5.36771 86.927 8.19014 88.3651C11.3988 90 15.5992 90 24 90H66C74.4008 90 78.6012 90 81.8099 88.3651C84.6323 86.927 86.927 84.6323 88.3651 81.8099C90 78.6012 90 74.4008 90 66V24C90 15.5992 90 11.3988 88.3651 8.19014C86.927 5.36771 84.6323 3.073 81.8099 1.6349C78.6012 0 74.4008 0 66 0H24C15.5992 0 11.3988 0 8.19014 1.6349C5.36771 3.073 3.073 5.36771 1.6349 8.19014ZM40 50H15V75H40V50Z" fill="#030008"/>
<path d="M165.88 79.5H155.89L137.39 21.0401V79.5H127.955V12.4376H143.772L160.885 68.3075L177.997 12.4376H193.815V79.5H184.38V21.0401L165.88 79.5ZM252.348 57.3925H214.053C214.423 68.1225 222.008 73.3025 229.408 73.3025C236.808 73.3025 240.878 69.9725 243.005 65.07H251.7C249.388 73.6725 241.525 80.7025 229.408 80.7025C213.683 80.7025 204.988 69.4175 204.988 54.71C204.988 38.9851 215.533 28.9026 229.13 28.9026C244.3 28.9026 253.458 41.6676 252.348 57.3925ZM229.13 36.1176C221.638 36.1176 214.885 40.1876 214.145 50.1775H243.468C243.283 43.1476 238.01 36.1176 229.13 36.1176ZM264.563 29.7351V17.2476H272.98V29.7351H282.415V36.4876H272.98V65.995C272.98 71.175 273.35 72.47 278.16 72.47H282.415V79.5H276.31C266.783 79.5 264.563 77.3725 264.563 67.0125V36.4876H256.7V29.7351H264.563ZM335.724 57.3925H297.429C297.799 68.1225 305.384 73.3025 312.784 73.3025C320.184 73.3025 324.254 69.9725 326.382 65.07H335.077C332.764 73.6725 324.902 80.7025 312.784 80.7025C297.059 80.7025 288.364 69.4175 288.364 54.71C288.364 38.9851 298.909 28.9026 312.507 28.9026C327.677 28.9026 336.834 41.6676 335.724 57.3925ZM312.507 36.1176C305.014 36.1176 298.262 40.1876 297.522 50.1775H326.844C326.659 43.1476 321.387 36.1176 312.507 36.1176ZM370.324 29.5501V38.5226C368.567 38.3376 366.994 38.1526 365.607 38.1526C357.837 38.1526 353.952 42.5001 353.952 53.415V79.5H345.534V29.7351H353.767V38.4301C356.264 32.7876 361.352 29.6426 367.827 29.4576C368.659 29.4576 369.399 29.4576 370.324 29.5501ZM383.247 54.8025C383.247 68.03 390.554 73.3025 398.139 73.3025C405.724 73.3025 413.032 67.5675 413.032 54.8025C413.032 41.5751 405.724 36.3026 398.139 36.3026C390.554 36.3026 383.247 41.2051 383.247 54.8025ZM398.139 28.9026C409.702 28.9026 422.004 36.7651 422.004 54.8025C422.004 72.84 409.702 80.7025 398.139 80.7025C386.577 80.7025 374.274 72.84 374.274 54.8025C374.274 36.7651 386.577 28.9026 398.139 28.9026ZM432.072 29.7351H440.49V79.5H432.072V29.7351ZM432.072 12.4376H440.49V22.6126H432.072V12.4376ZM487.975 37.5976V12.4376H496.392V79.5H487.975V72.0075C484.922 77.28 479.65 80.7025 471.695 80.7025C460.317 80.7025 450.42 71.2675 450.42 54.8025C450.42 38.4301 460.317 28.9026 471.695 28.9026C479.65 28.9026 484.922 32.3251 487.975 37.5976ZM488.345 54.8025C488.345 41.6676 481.315 36.1176 473.822 36.1176C465.22 36.1176 459.577 42.9626 459.577 54.8025C459.577 66.6425 465.22 73.4875 473.822 73.4875C481.315 73.4875 488.345 67.9375 488.345 54.8025Z" fill="#030008"/>
</svg>
