<svg xmlns="http://www.w3.org/2000/svg" width="16" height="16" viewBox="0 0 16 16" fill="none">
  <path fill="#423B30" fill-rule="evenodd" d="M8 .67h2.93l.2.06h.2l.2.14.2.06.2.2.14.07.06.13.14.13.06.14.13.13.08.14.06.26.07.6h1.2l.13.07.2.13.13.07.2.07.2.2.2.27.14.13.06.13.14.4.06.34v7.13l-.4.8-.13.13-.13.13-.2.14-.14.13-.2.07-.13.06-.2.07h-.13l-1 .07v.2l-.07.33-.06.2-.08.2-.06.13-.13.2-.14.14-.13.06-.07.14-.13.13-.2.07-.14.06-.4.14H5l-.27-.07-.2-.07-.2-.13-.2-.13-.13-.14-.13-.06-.07-.13-.13-.14-.13-.27-.08-.13-.06-.2-.07-.53h-.46l-.54-.07H2.2l-.2-.07-.27-.13-.2-.13-.2-.14-.13-.13-.13-.14-.27-.53-.07-.26-.06-3.54v-3.6l.06-.4L.8 4l.07-.2.13-.13.07-.13.13-.14.07-.13.13-.07.06-.13.2-.07.14-.13.2-.07.13-.07h1.2v-.27l.07-.2v-.13l.06-.2.08-.2.06-.13.07-.06.13-.14.07-.13.2-.14L4.2 1l.2-.13.2-.07.27-.13Zm-3 1.4-.13.13-.14.2-.06.14v10.92l.06.2.14.14.26.13h5.74l.26-.13.14-.2.06-.4V2.54l-.2-.4-.2-.14h-5.8ZM2.33 4.13l-.2.14-.06.13-.07.14v6.92l.13.2.2.2.13.07h.87V4.07h-.87Zm10.34 7.74h.87l.26-.2.07-.13.06-.08V4.54a.67.67 0 0 0-.2-.34l-.13-.13-.53-.07h-.4Zm0 0"/>
</svg>
