<svg width="16" height="16" viewBox="0 0 16 16" fill="none" xmlns="http://www.w3.org/2000/svg">
<path fill-rule="evenodd" clip-rule="evenodd" d="M5.14671 8.35332C5.05308 8.25957 5.00049 8.13249 5.00049 7.99999C5.00049 7.86749 5.05308 7.74041 5.14671 7.64666L10.1467 2.64666C10.1925 2.59753 10.2477 2.55813 10.309 2.5308C10.3704 2.50348 10.4366 2.48878 10.5037 2.4876C10.5708 2.48641 10.6375 2.49876 10.6998 2.52391C10.762 2.54906 10.8186 2.58649 10.8661 2.63396C10.9136 2.68144 10.951 2.738 10.9761 2.80026C11.0013 2.86252 11.0136 2.9292 11.0124 2.99634C11.0113 3.06347 10.9966 3.12968 10.9692 3.19102C10.9419 3.25235 10.9025 3.30755 10.8534 3.35332L6.20672 7.99999L10.8534 12.6467C10.9025 12.6924 10.9419 12.7476 10.9692 12.809C10.9966 12.8703 11.0113 12.9365 11.0124 13.0036C11.0136 13.0708 11.0013 13.1375 10.9761 13.1997C10.951 13.262 10.9136 13.3185 10.8661 13.366C10.8186 13.4135 10.762 13.4509 10.6998 13.4761C10.6375 13.5012 10.5708 13.5136 10.5037 13.5124C10.4366 13.5112 10.3704 13.4965 10.309 13.4692C10.2477 13.4419 10.1925 13.4024 10.1467 13.3533L5.14671 8.35332Z" fill="black"/>
</svg>
