<svg width="16" height="16" viewBox="0 0 16 16" fill="none" xmlns="http://www.w3.org/2000/svg">
<path fill-rule="evenodd" clip-rule="evenodd" d="M10.8533 7.64668C10.9469 7.74043 10.9995 7.86751 10.9995 8.00001C10.9995 8.13251 10.9469 8.25959 10.8533 8.35334L5.85331 13.3533C5.75853 13.4417 5.63316 13.4897 5.50363 13.4875C5.3741 13.4852 5.25051 13.4327 5.1589 13.3411C5.06729 13.2495 5.01481 13.1259 5.01253 12.9964C5.01024 12.8668 5.05833 12.7415 5.14665 12.6467L9.79331 8.00001L5.14665 3.35334C5.05833 3.25856 5.01024 3.1332 5.01253 3.00366C5.01481 2.87413 5.06729 2.75054 5.1589 2.65893C5.25051 2.56732 5.3741 2.51485 5.50363 2.51256C5.63316 2.51027 5.75853 2.55836 5.85331 2.64668L10.8533 7.64668Z" fill="black"/>
</svg>
