<svg width="16" height="16" viewBox="0 0 16 16" fill="none" xmlns="http://www.w3.org/2000/svg">
<path fill-rule="evenodd" clip-rule="evenodd" d="M8.35356 10.8521C8.25981 10.9458 8.13272 10.9984 8.00022 10.9984C7.86772 10.9984 7.74064 10.9458 7.64689 10.8521L2.64689 5.85213C2.55857 5.75735 2.51049 5.63199 2.51277 5.50245C2.51506 5.37292 2.56753 5.24933 2.65914 5.15772C2.75075 5.06611 2.87434 5.01364 3.00387 5.01135C3.13341 5.00906 3.25877 5.05715 3.35356 5.14547L8.00022 9.79213L12.6469 5.14547C12.6927 5.09634 12.7479 5.05694 12.8092 5.02961C12.8705 5.00228 12.9367 4.98759 13.0039 4.98641C13.071 4.98522 13.1377 4.99757 13.2 5.02272C13.2622 5.04787 13.3188 5.0853 13.3662 5.13277C13.4137 5.18025 13.4512 5.23681 13.4763 5.29907C13.5015 5.36133 13.5138 5.42801 13.5126 5.49515C13.5114 5.56228 13.4967 5.62849 13.4694 5.68983C13.4421 5.75116 13.4027 5.80636 13.3536 5.85213L8.35356 10.8521Z" fill="black"/>
</svg>
