<svg width="16" height="16" viewBox="0 0 16 16" fill="none" xmlns="http://www.w3.org/2000/svg">
<path fill-rule="evenodd" clip-rule="evenodd" d="M7.64644 5.1479C7.74019 5.0542 7.86728 5.0016 7.99978 5.0016C8.13228 5.0016 8.25936 5.0542 8.35311 5.1479L13.3531 10.1479C13.4414 10.2427 13.4895 10.368 13.4872 10.4976C13.4849 10.6271 13.4325 10.7507 13.3409 10.8423C13.2492 10.9339 13.1257 10.9864 12.9961 10.9887C12.8666 10.9909 12.7412 10.9429 12.6464 10.8545L7.99978 6.20787L3.3531 10.8545C3.3073 10.9037 3.2521 10.9431 3.1908 10.9704C3.1295 10.9977 3.0633 11.0124 2.9961 11.0136C2.929 11.0148 2.8623 11.0024 2.8 10.9773C2.7378 10.9521 2.6812 10.9147 2.6338 10.8672C2.5863 10.8198 2.5488 10.7632 2.5237 10.7009C2.4985 10.6387 2.4862 10.572 2.4874 10.5049C2.4886 10.4377 2.5033 10.3715 2.5306 10.3102C2.5579 10.2488 2.5973 10.1936 2.6464 10.1479L7.64644 5.1479Z" fill="black"/>
</svg>
