<svg width="16" height="16" viewBox="0 0 16 16" fill="none" xmlns="http://www.w3.org/2000/svg">
<path fill-rule="evenodd" clip-rule="evenodd" d="M6.22171 1.71094C5.40248 1.71094 4.61681 2.03638 4.03753 2.61565C3.45825 3.19493 3.13282 3.9806 3.13282 4.79983C3.13282 5.61905 3.45825 6.40472 4.03753 6.984C4.61681 7.56328 5.40248 7.88871 6.22171 7.88871C7.04093 7.88871 7.8266 7.56328 8.40584 6.984C8.98512 6.40472 9.31056 5.61905 9.31056 4.79983C9.31056 3.9806 8.98512 3.19493 8.40584 2.61565C7.8266 2.03638 7.04093 1.71094 6.22171 1.71094ZM4.88606 3.46419C5.24029 3.10995 5.72074 2.91094 6.22171 2.91094C6.72267 2.91094 7.20311 3.10995 7.55735 3.46419C7.91159 3.81842 8.11056 4.29887 8.11056 4.79983C8.11056 5.30079 7.91159 5.78124 7.55735 6.13547C7.20311 6.48971 6.72267 6.68871 6.22171 6.68871C5.72074 6.68871 5.24029 6.48971 4.88606 6.13547C4.53182 5.78124 4.33282 5.30079 4.33282 4.79983C4.33282 4.29887 4.53182 3.81842 4.88606 3.46419ZM10.489 1.71094H9.88904V2.91094H10.489C10.99 2.91094 11.4705 3.10995 11.8247 3.46418C12.179 3.81842 12.3779 4.29887 12.3779 4.79983C12.3779 5.30079 12.179 5.78124 11.8247 6.13547C11.4705 6.48971 10.99 6.68871 10.489 6.68871H9.88904V7.88871H10.489C11.3083 7.88871 12.0939 7.56328 12.6732 6.984C13.2525 6.40472 13.5779 5.61905 13.5779 4.79983C13.5779 3.9806 13.2525 3.19493 12.6732 2.61565C12.0939 2.03638 11.3083 1.71094 10.489 1.71094ZM3.53695 8.82184H3.80089H8.6432H8.90712L9.08552 9.0164L10.5754 10.6418L10.7331 10.8139V11.0473V13.6886V14.2886H9.53312V13.6886V11.2806L8.37928 10.0218H4.06483L2.91094 11.2806V13.6886V14.2886H1.71094V13.6886V11.0473V10.8139L1.86865 10.6418L3.35859 9.0164L3.53695 8.82184ZM12.6914 8.9976L12.2672 8.57336L11.4186 9.42184L11.843 9.84616L13.0894 11.0926V13.6886V14.2886H14.2894V13.6886V10.8441V10.5956L14.1137 10.4198L12.6914 8.9976Z" fill="#423B30"/>
</svg>
