<svg width="16" height="16" viewBox="0 0 16 16" fill="none" xmlns="http://www.w3.org/2000/svg">
<path fill-rule="evenodd" clip-rule="evenodd" d="M7 2.50123C6.40905 2.50123 5.82389 2.61762 5.27792 2.84377C4.73196 3.06992 4.23588 3.40138 3.81802 3.81925C3.40016 4.23711 3.06869 4.73319 2.84254 5.27915C2.6164 5.82512 2.5 6.41028 2.5 7.00123C2.5 7.59218 2.6164 8.17734 2.84254 8.7233C3.06869 9.26927 3.40016 9.76534 3.81802 10.1832C4.23588 10.6011 4.73196 10.9325 5.27792 11.1587C5.82389 11.3848 6.40905 11.5012 7 11.5012C8.19347 11.5012 9.33807 11.0271 10.182 10.1832C11.0259 9.33929 11.5 8.1947 11.5 7.00123C11.5 5.80775 11.0259 4.66316 10.182 3.81925C9.33807 2.97533 8.19347 2.50123 7 2.50123ZM1.5 7.00123C1.50012 6.11796 1.71296 5.24771 2.12053 4.46409C2.52809 3.68048 3.11839 3.00655 3.84149 2.49931C4.56459 1.99207 5.39922 1.66644 6.27477 1.54998C7.15033 1.43351 8.04106 1.52963 8.87161 1.8302C9.70217 2.13077 10.4481 2.62695 11.0464 3.27677C11.6446 3.9266 12.0775 4.71094 12.3086 5.56347C12.5396 6.41599 12.5619 7.31161 12.3735 8.17458C12.1852 9.03754 11.7918 9.84245 11.2267 10.5212L14.3533 13.6479C14.4025 13.6937 14.4419 13.7489 14.4692 13.8102C14.4965 13.8715 14.5112 13.9377 14.5124 14.0049C14.5136 14.072 14.5012 14.1387 14.4761 14.201C14.4509 14.2632 14.4135 14.3198 14.366 14.3673C14.3185 14.4147 14.262 14.4522 14.1997 14.4773C14.1375 14.5025 14.0708 14.5148 14.0037 14.5136C13.9365 14.5124 13.8703 14.4977 13.809 14.4704C13.7476 14.4431 13.6924 14.4037 13.6467 14.3546L10.52 11.2279C9.71681 11.8969 8.73961 12.3231 7.70288 12.4567C6.66615 12.5903 5.61281 12.4257 4.66627 11.9822C3.71973 11.5386 2.91919 10.8345 2.35842 9.95238C1.79765 9.07023 1.49989 8.04653 1.5 7.00123Z" fill="black"/>
</svg>
