<svg width="16" height="16" viewBox="0 0 16 16" fill="none" xmlns="http://www.w3.org/2000/svg">
<g clip-path="url(#clip0_16_25)">
<path d="M8.19654 6.00969C7.78619 5.96916 7.37334 6.05646 7.01452 6.25964C6.6557 6.46281 6.36846 6.77192 6.1921 7.14466C6.01576 7.51739 5.95893 7.93552 6.02939 8.34176C6.09986 8.74808 6.29418 9.12264 6.58576 9.41424C6.87733 9.70576 7.2519 9.90008 7.65818 9.97056C8.06446 10.041 8.48262 9.98424 8.85534 9.80784C9.22806 9.63152 9.53718 9.34424 9.74038 8.98544C9.9435 8.62664 10.0308 8.21376 9.9903 7.80344C9.94406 7.34344 9.7403 6.91355 9.41334 6.58664C9.08646 6.25972 8.65654 6.05589 8.19654 6.00969ZM12.9644 8.64968L14.3772 9.75784L14.4537 10.1875L13.1172 12.5L12.7065 12.6434L11.3034 12.0784L9.88062 12.9044L9.6703 14.401L9.33654 14.6875H6.66342L6.32935 14.4103L6.11935 12.9159L4.69529 12.0878L3.29247 12.6525L2.88185 12.5094L1.54529 10.1969L1.62185 9.7672L2.96549 8.63344L2.96362 7.37135L1.62029 6.24L1.54622 5.8125L2.88279 3.5L3.29342 3.35656L4.69654 3.92156L6.11935 3.09563L6.32966 1.59907L6.66342 1.3125H9.33654L9.67062 1.58969L9.88062 3.08407L11.3047 3.91219L12.7075 3.34751L13.1181 3.49063L14.4547 5.80313L14.3781 6.23282L13.1841 7.17032C13.1841 7.17032 13.0203 8.25568 12.9644 8.64968Z" stroke="#423B30" stroke-width="1.2" stroke-linecap="round"/>
</g>
<defs>
<clipPath id="clip0_16_25">
<rect width="16" height="16" fill="white"/>
</clipPath>
</defs>
</svg>
