<svg width="16" height="16" viewBox="0 0 16 16" fill="none" xmlns="http://www.w3.org/2000/svg">
<g clip-path="url(#clip0_16_27)">
<mask id="mask0_16_27" style="mask-type:luminance" maskUnits="userSpaceOnUse" x="0" y="0" width="16" height="16">
<path d="M16 0H0V16H16V0Z" fill="white"/>
</mask>
<g mask="url(#mask0_16_27)">
<path fill-rule="evenodd" clip-rule="evenodd" d="M10.6 2.4V1.8H9.40005V2.4V2.73282H6.60005V2.4V1.8H5.40005V2.4V2.73282H3.60161H3.32947L3.15019 2.93757L2.21582 4.00476L2.06723 4.17446V4.4V7.4H2.06567V8.6H2.06723V13.2V13.4762L2.27716 13.6559L3.21154 14.4554L3.37995 14.5994H3.60161H8.66725H9.26725V13.3994H8.66725H3.82327L3.26723 12.9238V8.6H10.6656H11.2656V7.4H10.6656H3.26723V4.62555L3.87376 3.93282H5.40005V4.4V5H6.60005V4.4V3.93282H9.40005V4.4V5H10.6V4.4V3.93282H12.1291L12.7339 4.62517V6.66615V7.26615H13.9339V6.66615V4.4V4.17484L13.7857 4.00526L12.8535 2.93808L12.6741 2.73282H12.4016H10.6V2.4ZM13.2672 9.4V9.3328V8.7328H12.0672V9.3328V9.42216C11.7414 9.47704 11.4382 9.63192 11.2015 9.86864C10.9014 10.1687 10.7328 10.5757 10.7328 11C10.7328 11.4243 10.9014 11.8313 11.2015 12.1314C11.5016 12.4314 11.9085 12.6 12.3328 12.6H12.9995C13.1056 12.6 13.2073 12.6422 13.2824 12.7171C13.3574 12.7922 13.3995 12.8939 13.3995 13C13.3995 13.1061 13.3574 13.2078 13.2824 13.2829C13.2122 13.353 13.1186 13.3944 13.02 13.3994H12.0672L11.3328 13.4H10.7328V14.6H11.3328H12.0672V14.6662V15.2662H13.2672V14.6662V14.5774C13.5923 14.5223 13.8947 14.3676 14.1309 14.1314C14.4309 13.8313 14.5995 13.4243 14.5995 13C14.5995 12.5757 14.4309 12.1687 14.1309 11.8686C13.8308 11.5686 13.4239 11.4 12.9995 11.4H12.3328C12.2268 11.4 12.125 11.3578 12.05 11.2829C11.975 11.2078 11.9328 11.1061 11.9328 11C11.9328 10.8939 11.975 10.7922 12.05 10.7171C12.125 10.6422 12.2268 10.6 12.3328 10.6H13.9995H14.5995V9.4H13.9995H13.2672Z" fill="#423B30"/>
</g>
</g>
<defs>
<clipPath id="clip0_16_27">
<rect width="16" height="16" fill="white"/>
</clipPath>
</defs>
</svg>
