<svg width="16" height="16" viewBox="0 0 16 16" fill="none" xmlns="http://www.w3.org/2000/svg">
<path fill-rule="evenodd" clip-rule="evenodd" d="M3.6472 3.64547C3.74095 3.55183 3.86804 3.49924 4.00054 3.49924C4.13304 3.49924 4.26012 3.55183 4.35387 3.64547L8.00054 7.29213L11.6472 3.64547C11.693 3.59634 11.7482 3.55694 11.8095 3.52961C11.8708 3.50228 11.9371 3.48759 12.0042 3.48641C12.0713 3.48522 12.138 3.49757 12.2003 3.52272C12.2625 3.54787 12.3191 3.5853 12.3666 3.63277C12.414 3.68025 12.4515 3.73681 12.4766 3.79907C12.5018 3.86133 12.5141 3.92801 12.5129 3.99515C12.5117 4.06228 12.4971 4.12849 12.4697 4.18983C12.4424 4.25116 12.403 4.30636 12.3539 4.35213L8.7072 7.9988L12.3539 11.6455C12.403 11.6912 12.4424 11.7464 12.4697 11.8078C12.4971 11.8691 12.5117 11.9353 12.5129 12.0025C12.5141 12.0696 12.5018 12.1363 12.4766 12.1985C12.4515 12.2608 12.414 12.3173 12.3666 12.3648C12.3191 12.4123 12.2625 12.4497 12.2003 12.4749C12.138 12.5 12.0713 12.5124 12.0042 12.5112C11.9371 12.51 11.8708 12.4953 11.8095 12.468C11.7482 12.4407 11.693 12.4013 11.6472 12.3521L8.00054 8.70547L4.35387 12.3521C4.25909 12.4405 4.13372 12.4885 4.00419 12.4862C3.87465 12.484 3.75106 12.4315 3.65946 12.3399C3.56785 12.2483 3.51537 12.1247 3.51309 11.9951C3.5108 11.8656 3.55888 11.7402 3.6472 11.6455L7.29387 7.9988L3.6472 4.35213C3.55357 4.25838 3.50098 4.1313 3.50098 3.9988C3.50098 3.8663 3.55357 3.73922 3.6472 3.64547Z" fill="black"/>
</svg>
