<svg width="101" height="24" viewBox="0 0 101 24" fill="none" xmlns="http://www.w3.org/2000/svg">
<mask id="mask0_295_214" style="mask-type:luminance" maskUnits="userSpaceOnUse" x="0" y="0" width="24" height="24">
<path d="M23.9988 0.000518799H4.57764e-05V23.9993H23.9988V0.000518799Z" fill="white"/>
</mask>
<g mask="url(#mask0_295_214)">
<path d="M21.5914 0.000900269C22.4309 0.000900272 22.8508 0.00125077 23.1715 0.164533C23.4537 0.308335 23.6835 0.538175 23.8273 0.820404C23.9906 1.14116 23.991 1.56093 23.991 2.40039V21.5924C23.991 22.4318 23.9907 22.8516 23.8273 23.1724C23.6835 23.4545 23.4537 23.6844 23.1715 23.8282C22.8508 23.9914 22.4309 23.9918 21.5914 23.9918H2.39952C1.5601 23.9918 1.14027 23.9915 0.819513 23.8282C0.537284 23.6844 0.30745 23.4545 0.163647 23.1724C0.000343547 22.8516 1.52588e-05 22.4317 1.52588e-05 21.5924V2.40039C1.52588e-05 1.56098 0.000412227 1.14116 0.163647 0.820404C0.30745 0.538175 0.537284 0.308335 0.819513 0.164533C1.14028 0.00120859 1.56003 0.000900275 2.39952 0.000900269H21.5914ZM4.45093 13.7802V19.5423H10.213V13.7802H4.45093Z" fill="black"/>
</g>
<path d="M33.5988 18.1136V5.74535H36.1969L38.9695 12.9919C39.0801 13.3074 39.224 13.7223 39.4011 14.237C39.5782 14.7462 39.7387 15.2166 39.8825 15.6481C40.0209 15.2166 40.1786 14.7462 40.3556 14.237C40.5328 13.7223 40.6766 13.3074 40.7873 12.9919L43.5183 5.74535H46.1248V18.1136H44.3152V11.3733C44.3152 10.9306 44.3207 10.4159 44.3318 9.82934C44.3428 9.23722 44.3567 8.64786 44.3733 8.06128C44.1464 8.73087 43.9306 9.36173 43.7258 9.95385C43.5265 10.546 43.3606 11.0191 43.2278 11.3733L40.6213 18.1136H39.1106L36.4792 11.3733C36.352 11.0357 36.1887 10.5902 35.9895 10.0369C35.7957 9.47794 35.5854 8.87751 35.3585 8.23559C35.3752 8.80004 35.389 9.35897 35.4002 9.91235C35.4111 10.4657 35.4168 10.9527 35.4168 11.3733V18.1136H33.5988ZM51.9934 18.3127C51.1245 18.3127 50.3774 18.1163 49.7522 17.7234C49.1324 17.3306 48.6537 16.7909 48.3161 16.1047C47.9841 15.413 47.818 14.6272 47.818 13.7473C47.818 12.8564 47.9923 12.065 48.3411 11.3733C48.6897 10.6816 49.1711 10.1392 49.7853 9.74634C50.3997 9.3479 51.1051 9.14868 51.902 9.14868C52.7322 9.14868 53.4515 9.34236 54.0602 9.72973C54.6745 10.1171 55.1504 10.6567 55.488 11.3484C55.8256 12.0346 55.9944 12.8287 55.9944 13.7307V14.2039H49.5447C49.5778 14.9952 49.8047 15.6344 50.2253 16.1213C50.6515 16.6084 51.2491 16.8517 52.0182 16.8517C52.5937 16.8517 53.0669 16.7218 53.4378 16.4617C53.8085 16.2015 54.0547 15.8641 54.1764 15.449H55.8616C55.7564 16.0135 55.5212 16.5115 55.156 16.9431C54.7963 17.3748 54.3425 17.7124 53.7946 17.9558C53.2523 18.1938 52.652 18.3127 51.9934 18.3127ZM49.5613 12.8757H54.2844C54.2124 12.1785 53.9662 11.6278 53.5456 11.2239C53.125 10.8144 52.5828 10.6096 51.9187 10.6096C51.2546 10.6096 50.7123 10.8144 50.2917 11.2239C49.8767 11.6278 49.6331 12.1785 49.5613 12.8757ZM61.7386 9.3479V10.7922H59.9622V15.7976C59.9622 16.1241 60.0285 16.351 60.1614 16.4783C60.2942 16.6056 60.535 16.6692 60.8836 16.6692H61.7386V18.1136H60.6345C59.0131 18.1136 58.2023 17.4163 58.2023 16.0217V10.7922H56.6584V9.3479H58.2023V6.95726H59.9622V9.3479H61.7386ZM66.719 18.3127C65.8502 18.3127 65.1031 18.1163 64.4777 17.7234C63.858 17.3306 63.3794 16.7909 63.0417 16.1047C62.7096 15.413 62.5437 14.6272 62.5437 13.7473C62.5437 12.8564 62.718 12.065 63.0666 11.3733C63.4152 10.6816 63.8968 10.1392 64.511 9.74634C65.1252 9.3479 65.8308 9.14868 66.6277 9.14868C67.4577 9.14868 68.1772 9.34236 68.7859 9.72973C69.4001 10.1171 69.876 10.6567 70.2137 11.3484C70.5511 12.0346 70.7199 12.8287 70.7199 13.7307V14.2039H64.2702C64.3034 14.9952 64.5304 15.6344 64.9509 16.1213C65.377 16.6084 65.9747 16.8517 66.7439 16.8517C67.3194 16.8517 67.7926 16.7218 68.1633 16.4617C68.5341 16.2015 68.7804 15.8641 68.9021 15.449H70.5871C70.482 16.0135 70.2468 16.5115 69.8815 16.9431C69.5218 17.3748 69.0681 17.7124 68.5203 17.9558C67.978 18.1938 67.3775 18.3127 66.719 18.3127ZM64.2868 12.8757H69.0101C68.9381 12.1785 68.6918 11.6278 68.2712 11.2239C67.8507 10.8144 67.3083 10.6096 66.6443 10.6096C65.9802 10.6096 65.4378 10.8144 65.0173 11.2239C64.6023 11.6278 64.3588 12.1785 64.2868 12.8757ZM72.239 18.1136V9.3479H73.9158V10.7673H73.9489C74.1095 10.2859 74.3612 9.91235 74.7043 9.64672C75.0529 9.37556 75.5067 9.23998 76.0656 9.23998C76.1984 9.23998 76.3203 9.24552 76.4308 9.25659C76.5416 9.26766 76.6329 9.27595 76.7049 9.28149V10.9167C76.6384 10.9001 76.5194 10.8835 76.3479 10.8669C76.1763 10.8448 75.9882 10.8337 75.7834 10.8337C75.291 10.8337 74.8675 11.0053 74.5134 11.3484C74.1648 11.6915 73.9905 12.22 73.9905 12.9338V18.1136H72.239ZM81.6521 18.3127C80.8165 18.3127 80.0833 18.1191 79.4524 17.7318C78.8216 17.3443 78.329 16.8075 77.9748 16.1213C77.6262 15.4351 77.4519 14.6438 77.4519 13.7473C77.4519 12.8398 77.6262 12.0429 77.9748 11.3567C78.329 10.665 78.8216 10.1254 79.4524 9.73803C80.0833 9.34512 80.8165 9.14868 81.6521 9.14868C82.4877 9.14868 83.2182 9.34512 83.8435 9.73803C84.4744 10.1254 84.964 10.665 85.3128 11.3567C85.6669 12.0429 85.844 12.8398 85.844 13.7473C85.844 14.6438 85.6669 15.4351 85.3128 16.1213C84.964 16.8075 84.4744 17.3443 83.8435 17.7318C83.2182 18.1191 82.4877 18.3127 81.6521 18.3127ZM81.6521 16.802C82.4046 16.802 82.9968 16.5253 83.4285 15.9719C83.8602 15.4185 84.0759 14.6771 84.0759 13.7473C84.0759 12.8066 83.8574 12.0567 83.4202 11.4978C82.9885 10.9389 82.3992 10.6594 81.6521 10.6594C80.9051 10.6594 80.3129 10.9389 79.8757 11.4978C79.444 12.0512 79.2283 12.801 79.2283 13.7473C79.2283 14.6826 79.444 15.4269 79.8757 15.9803C80.3074 16.528 80.8996 16.802 81.6521 16.802ZM87.3963 18.1136V9.3479H89.1477V18.1136H87.3963ZM88.2679 7.83715C87.9579 7.83715 87.6951 7.73478 87.4792 7.53002C87.2689 7.31973 87.1638 7.06518 87.1638 6.76635C87.1638 6.46199 87.2689 6.20742 87.4792 6.00267C87.6951 5.79239 87.9579 5.68725 88.2679 5.68725C88.5777 5.68725 88.8406 5.79239 89.0564 6.00267C89.2722 6.20742 89.3801 6.46199 89.3801 6.76635C89.3801 7.06518 89.2722 7.31973 89.0564 7.53002C88.8406 7.73478 88.5777 7.83715 88.2679 7.83715ZM94.5017 18.2879C93.738 18.2879 93.0712 18.097 92.5012 17.7151C91.9312 17.3277 91.4885 16.7936 91.1731 16.1131C90.8576 15.4269 90.6999 14.6327 90.6999 13.7307C90.6999 12.8287 90.8576 12.0374 91.1731 11.3567C91.4941 10.6705 91.9395 10.1365 92.5095 9.75463C93.0795 9.36726 93.7408 9.17358 94.4934 9.17358C95.0634 9.17358 95.5836 9.29256 96.0539 9.53052C96.5243 9.76846 96.9007 10.1309 97.1829 10.6179H97.1995V5.74535H98.9509V18.1136H97.2326V16.7772H97.216C96.9228 17.2862 96.5382 17.6653 96.0623 17.9143C95.5918 18.1633 95.0717 18.2879 94.5017 18.2879ZM94.8587 16.7772C95.6057 16.7772 96.2006 16.5004 96.6433 15.947C97.0916 15.3881 97.3157 14.6493 97.3157 13.7307C97.3157 12.8066 97.0916 12.0678 96.6433 11.5144C96.2006 10.9555 95.6057 10.676 94.8587 10.676C94.1503 10.676 93.5748 10.9389 93.132 11.4646C92.695 11.9848 92.4763 12.7401 92.4763 13.7307C92.4763 14.7213 92.695 15.4766 93.132 15.9969C93.5748 16.517 94.1503 16.7772 94.8587 16.7772Z" fill="black"/>
</svg>
