<svg width="101" height="24" viewBox="0 0 101 24" fill="none" xmlns="http://www.w3.org/2000/svg">
<mask id="mask0_295_207" style="mask-type:luminance" maskUnits="userSpaceOnUse" x="0" y="0" width="24" height="24">
<path d="M24 0H0V24H24V0Z" fill="white"/>
</mask>
<g mask="url(#mask0_295_207)">
<path d="M21.5925 0.000198364C22.432 0.000198368 22.8519 0.00054888 23.1726 0.16384C23.4549 0.307649 23.6846 0.5375 23.8284 0.819744C23.9918 1.14052 23.9922 1.56031 23.9922 2.39981V21.5928C23.9922 22.4323 23.9919 22.852 23.8284 23.1729C23.6846 23.455 23.4549 23.6849 23.1726 23.8287C22.8519 23.9919 22.432 23.9923 21.5925 23.9923H2.39962C1.56016 23.9923 1.14031 23.992 0.819538 23.8287C0.537296 23.6849 0.30745 23.455 0.16364 23.1729C0.000328309 22.852 0 22.4321 0 21.5928V2.39981C0 1.56035 0.000396986 1.14051 0.16364 0.819744C0.30745 0.5375 0.537296 0.307649 0.819538 0.16384C1.14032 0.000506698 1.56009 0.000198371 2.39962 0.000198364H21.5925ZM3.9998 13.3289V19.9939H10.6648V13.3289H3.9998Z" fill="#EDEDED"/>
</g>
<path d="M33.6 18.1136V5.74535H36.1981L38.9707 12.9919C39.0813 13.3074 39.2252 13.7223 39.4023 14.237C39.5794 14.7462 39.7399 15.2166 39.8837 15.6481C40.0221 15.2166 40.1798 14.7462 40.3568 14.237C40.534 13.7223 40.6778 13.3074 40.7885 12.9919L43.5195 5.74535H46.126V18.1136H44.3164V11.3733C44.3164 10.9306 44.3219 10.4159 44.333 9.82934C44.344 9.23722 44.3579 8.64786 44.3745 8.06128C44.1476 8.73087 43.9318 9.36173 43.727 9.95385C43.5277 10.546 43.3618 11.0191 43.229 11.3733L40.6225 18.1136H39.1118L36.4804 11.3733C36.3532 11.0357 36.1899 10.5902 35.9907 10.0369C35.7969 9.47794 35.5866 8.87751 35.3597 8.23559C35.3764 8.80004 35.3902 9.35897 35.4014 9.91235C35.4123 10.4657 35.418 10.9527 35.418 11.3733V18.1136H33.6ZM51.9946 18.3127C51.1257 18.3127 50.3786 18.1163 49.7534 17.7234C49.1336 17.3306 48.6549 16.7909 48.3173 16.1047C47.9853 15.413 47.8193 14.6272 47.8193 13.7473C47.8193 12.8564 47.9935 12.065 48.3423 11.3733C48.6909 10.6816 49.1723 10.1392 49.7865 9.74634C50.4009 9.3479 51.1063 9.14868 51.9032 9.14868C52.7334 9.14868 53.4527 9.34236 54.0614 9.72973C54.6757 10.1171 55.1516 10.6567 55.4892 11.3484C55.8268 12.0346 55.9956 12.8287 55.9956 13.7307V14.2039H49.5459C49.579 14.9952 49.8059 15.6344 50.2265 16.1213C50.6527 16.6084 51.2503 16.8517 52.0194 16.8517C52.5949 16.8517 53.0681 16.7218 53.439 16.4617C53.8097 16.2015 54.0559 15.8641 54.1776 15.449H55.8628C55.7576 16.0135 55.5224 16.5115 55.1572 16.9431C54.7975 17.3748 54.3437 17.7124 53.7958 17.9558C53.2535 18.1938 52.6532 18.3127 51.9946 18.3127ZM49.5625 12.8757H54.2856C54.2136 12.1785 53.9674 11.6278 53.5468 11.2239C53.1262 10.8144 52.584 10.6096 51.9199 10.6096C51.2558 10.6096 50.7135 10.8144 50.2929 11.2239C49.8779 11.6278 49.6343 12.1785 49.5625 12.8757ZM61.7398 9.3479V10.7922H59.9634V15.7976C59.9634 16.1241 60.0297 16.351 60.1626 16.4783C60.2954 16.6056 60.5362 16.6692 60.8848 16.6692H61.7398V18.1136H60.6357C59.0143 18.1136 58.2035 17.4163 58.2035 16.0217V10.7922H56.6596V9.3479H58.2035V6.95726H59.9634V9.3479H61.7398ZM66.7202 18.3127C65.8514 18.3127 65.1043 18.1163 64.4789 17.7234C63.8592 17.3306 63.3806 16.7909 63.0429 16.1047C62.7108 15.413 62.5449 14.6272 62.5449 13.7473C62.5449 12.8564 62.7192 12.065 63.0678 11.3733C63.4164 10.6816 63.898 10.1392 64.5122 9.74634C65.1264 9.3479 65.832 9.14868 66.6289 9.14868C67.4589 9.14868 68.1784 9.34236 68.7871 9.72973C69.4013 10.1171 69.8773 10.6567 70.2149 11.3484C70.5523 12.0346 70.7211 12.8287 70.7211 13.7307V14.2039H64.2714C64.3047 14.9952 64.5316 15.6344 64.9521 16.1213C65.3782 16.6084 65.9759 16.8517 66.7451 16.8517C67.3206 16.8517 67.7938 16.7218 68.1645 16.4617C68.5353 16.2015 68.7816 15.8641 68.9033 15.449H70.5883C70.4832 16.0135 70.248 16.5115 69.8827 16.9431C69.523 17.3748 69.0694 17.7124 68.5215 17.9558C67.9792 18.1938 67.3787 18.3127 66.7202 18.3127ZM64.288 12.8757H69.0113C68.9393 12.1785 68.693 11.6278 68.2724 11.2239C67.8519 10.8144 67.3095 10.6096 66.6455 10.6096C65.9814 10.6096 65.439 10.8144 65.0185 11.2239C64.6035 11.6278 64.36 12.1785 64.288 12.8757ZM72.2402 18.1136V9.3479H73.917V10.7673H73.9501C74.1107 10.2859 74.3624 9.91235 74.7056 9.64672C75.0541 9.37556 75.508 9.23998 76.0668 9.23998C76.1997 9.23998 76.3215 9.24552 76.432 9.25659C76.5428 9.26766 76.6341 9.27595 76.7061 9.28149V10.9167C76.6396 10.9001 76.5206 10.8835 76.3491 10.8669C76.1775 10.8448 75.9894 10.8337 75.7846 10.8337C75.2922 10.8337 74.8687 11.0053 74.5146 11.3484C74.166 11.6915 73.9917 12.22 73.9917 12.9338V18.1136H72.2402ZM81.6533 18.3127C80.8177 18.3127 80.0845 18.1191 79.4536 17.7318C78.8228 17.3443 78.3302 16.8075 77.976 16.1213C77.6274 15.4351 77.4531 14.6438 77.4531 13.7473C77.4531 12.8398 77.6274 12.0429 77.976 11.3567C78.3302 10.665 78.8228 10.1254 79.4536 9.73803C80.0845 9.34512 80.8177 9.14868 81.6533 9.14868C82.489 9.14868 83.2194 9.34512 83.8447 9.73803C84.4756 10.1254 84.9652 10.665 85.314 11.3567C85.6681 12.0429 85.8452 12.8398 85.8452 13.7473C85.8452 14.6438 85.6681 15.4351 85.314 16.1213C84.9652 16.8075 84.4756 17.3443 83.8447 17.7318C83.2194 18.1191 82.489 18.3127 81.6533 18.3127ZM81.6533 16.802C82.4059 16.802 82.998 16.5253 83.4297 15.9719C83.8614 15.4185 84.0771 14.6771 84.0771 13.7473C84.0771 12.8066 83.8586 12.0567 83.4214 11.4978C82.9897 10.9389 82.4004 10.6594 81.6533 10.6594C80.9063 10.6594 80.3141 10.9389 79.8769 11.4978C79.4453 12.0512 79.2295 12.801 79.2295 13.7473C79.2295 14.6826 79.4453 15.4269 79.8769 15.9803C80.3086 16.528 80.9008 16.802 81.6533 16.802ZM87.3975 18.1136V9.3479H89.149V18.1136H87.3975ZM88.2691 7.83715C87.9591 7.83715 87.6963 7.73478 87.4804 7.53002C87.2701 7.31973 87.165 7.06518 87.165 6.76635C87.165 6.46199 87.2701 6.20742 87.4804 6.00267C87.6963 5.79239 87.9591 5.68725 88.2691 5.68725C88.5789 5.68725 88.8418 5.79239 89.0576 6.00267C89.2734 6.20742 89.3813 6.46199 89.3813 6.76635C89.3813 7.06518 89.2734 7.31973 89.0576 7.53002C88.8418 7.73478 88.5789 7.83715 88.2691 7.83715ZM94.5029 18.2879C93.7392 18.2879 93.0724 18.097 92.5024 17.7151C91.9324 17.3277 91.4897 16.7936 91.1743 16.1131C90.8588 15.4269 90.7012 14.6327 90.7012 13.7307C90.7012 12.8287 90.8588 12.0374 91.1743 11.3567C91.4953 10.6705 91.9407 10.1365 92.5107 9.75463C93.0808 9.36726 93.742 9.17358 94.4946 9.17358C95.0647 9.17358 95.5848 9.29256 96.0551 9.53052C96.5255 9.76846 96.9019 10.1309 97.1841 10.6179H97.2007V5.74535H98.9521V18.1136H97.2338V16.7772H97.2172C96.924 17.2862 96.5394 17.6653 96.0635 17.9143C95.593 18.1633 95.0729 18.2879 94.5029 18.2879ZM94.8599 16.7772C95.6069 16.7772 96.2018 16.5004 96.6445 15.947C97.0928 15.3881 97.3169 14.6493 97.3169 13.7307C97.3169 12.8066 97.0928 12.0678 96.6445 11.5144C96.2018 10.9555 95.6069 10.676 94.8599 10.676C94.1515 10.676 93.576 10.9389 93.1332 11.4646C92.6962 11.9848 92.4775 12.7401 92.4775 13.7307C92.4775 14.7213 92.6962 15.4766 93.1332 15.9969C93.576 16.517 94.1515 16.7772 94.8599 16.7772Z" fill="#EDEDED"/>
</svg>
