<svg width="101" height="24" viewBox="0 0 101 24" fill="none" xmlns="http://www.w3.org/2000/svg">
<mask id="mask0_382_491" style="mask-type:luminance" maskUnits="userSpaceOnUse" x="0" y="0" width="24" height="24">
<path d="M24 0H0V24H24V0Z" fill="white"/>
</mask>
<g mask="url(#mask0_382_491)">
<path d="M21.5925 0.000244141C22.432 0.000244144 22.8519 0.000594656 23.1726 0.163885C23.4549 0.307694 23.6846 0.537546 23.8284 0.819789C23.9918 1.14056 23.9922 1.56036 23.9922 2.39986V21.5928C23.9922 22.4323 23.9919 22.852 23.8284 23.1729C23.6846 23.455 23.4549 23.6849 23.1726 23.8287C22.8519 23.9919 22.432 23.9923 21.5925 23.9923H2.39962C1.56016 23.9923 1.14031 23.9921 0.819538 23.8287C0.537296 23.6849 0.30745 23.455 0.16364 23.1729C0.000328309 22.852 0 22.4322 0 21.5928V2.39986C0 1.5604 0.000396986 1.14056 0.16364 0.819789C0.30745 0.537546 0.537296 0.307694 0.819538 0.163885C1.14032 0.000552474 1.56009 0.000244147 2.39962 0.000244141H21.5925ZM3.9998 13.3289V19.9939H10.6648V13.3289H3.9998Z" fill="white"/>
</g>
<path d="M33.6 18.1136V5.74535H36.1981L38.9707 12.9919C39.0812 13.3074 39.2252 13.7224 39.4022 14.237C39.5794 14.7462 39.7398 15.2166 39.8836 15.6481C40.0221 15.2166 40.1798 14.7462 40.3568 14.237C40.534 13.7224 40.6778 13.3074 40.7885 12.9919L43.5195 5.74535H46.126V18.1136H44.3164V11.3733C44.3164 10.9306 44.3219 10.4159 44.333 9.82935C44.344 9.23723 44.3578 8.64787 44.3745 8.06128C44.1476 8.73088 43.9318 9.36174 43.727 9.95385C43.5277 10.546 43.3618 11.0191 43.229 11.3733L40.6224 18.1136H39.1117L36.4804 11.3733C36.3532 11.0357 36.1899 10.5903 35.9907 10.0369C35.7969 9.47795 35.5866 8.87752 35.3597 8.2356C35.3763 8.80005 35.3902 9.35897 35.4013 9.91236C35.4123 10.4657 35.418 10.9527 35.418 11.3733V18.1136H33.6ZM51.9946 18.3128C51.1257 18.3128 50.3786 18.1163 49.7534 17.7234C49.1335 17.3306 48.6549 16.7909 48.3173 16.1047C47.9853 15.413 47.8192 14.6272 47.8192 13.7473C47.8192 12.8564 47.9935 12.065 48.3423 11.3733C48.6908 10.6816 49.1723 10.1393 49.7865 9.74634C50.4009 9.3479 51.1063 9.14869 51.9032 9.14869C52.7334 9.14869 53.4527 9.34237 54.0614 9.72974C54.6756 10.1171 55.1516 10.6567 55.4892 11.3484C55.8268 12.0346 55.9956 12.8287 55.9956 13.7307V14.2039H49.5459C49.579 14.9952 49.8059 15.6344 50.2264 16.1213C50.6526 16.6084 51.2502 16.8518 52.0194 16.8518C52.5949 16.8518 53.0681 16.7218 53.4389 16.4617C53.8096 16.2015 54.0559 15.8641 54.1776 15.449H55.8628C55.7576 16.0135 55.5224 16.5115 55.1572 16.9431C54.7975 17.3748 54.3437 17.7124 53.7958 17.9558C53.2535 18.1938 52.6532 18.3128 51.9946 18.3128ZM49.5625 12.8757H54.2856C54.2136 12.1785 53.9673 11.6278 53.5468 11.2239C53.1262 10.8144 52.5839 10.6096 51.9198 10.6096C51.2557 10.6096 50.7135 10.8144 50.2929 11.2239C49.8778 11.6278 49.6343 12.1785 49.5625 12.8757ZM61.7397 9.3479V10.7922H59.9634V15.7976C59.9634 16.1241 60.0297 16.351 60.1625 16.4783C60.2954 16.6056 60.5361 16.6692 60.8847 16.6692H61.7397V18.1136H60.6357C59.0143 18.1136 58.2035 17.4163 58.2035 16.0217V10.7922H56.6595V9.3479H58.2035V6.95727H59.9634V9.3479H61.7397ZM66.7202 18.3128C65.8513 18.3128 65.1043 18.1163 64.4789 17.7234C63.8592 17.3306 63.3805 16.7909 63.0429 16.1047C62.7108 15.413 62.5449 14.6272 62.5449 13.7473C62.5449 12.8564 62.7192 12.065 63.0678 11.3733C63.4164 10.6816 63.8979 10.1393 64.5122 9.74634C65.1264 9.3479 65.832 9.14869 66.6289 9.14869C67.4589 9.14869 68.1783 9.34237 68.7871 9.72974C69.4013 10.1171 69.8772 10.6567 70.2148 11.3484C70.5523 12.0346 70.7211 12.8287 70.7211 13.7307V14.2039H64.2714C64.3046 14.9952 64.5315 15.6344 64.9521 16.1213C65.3782 16.6084 65.9759 16.8518 66.7451 16.8518C67.3206 16.8518 67.7937 16.7218 68.1645 16.4617C68.5353 16.2015 68.7816 15.8641 68.9033 15.449H70.5883C70.4832 16.0135 70.2479 16.5115 69.8827 16.9431C69.523 17.3748 69.0693 17.7124 68.5214 17.9558C67.9792 18.1938 67.3787 18.3128 66.7202 18.3128ZM64.288 12.8757H69.0112C68.9393 12.1785 68.693 11.6278 68.2724 11.2239C67.8518 10.8144 67.3094 10.6096 66.6455 10.6096C65.9814 10.6096 65.439 10.8144 65.0184 11.2239C64.6035 11.6278 64.36 12.1785 64.288 12.8757ZM72.2402 18.1136V9.3479H73.917V10.7673H73.9501C74.1107 10.2859 74.3624 9.91236 74.7055 9.64672C75.0541 9.37557 75.5079 9.23999 76.0668 9.23999C76.1996 9.23999 76.3215 9.24552 76.432 9.25659C76.5427 9.26766 76.6341 9.27596 76.706 9.28149V10.9168C76.6396 10.9001 76.5206 10.8835 76.3491 10.8669C76.1775 10.8448 75.9893 10.8337 75.7845 10.8337C75.2921 10.8337 74.8687 11.0053 74.5146 11.3484C74.166 11.6915 73.9917 12.22 73.9917 12.9338V18.1136H72.2402ZM81.6533 18.3128C80.8176 18.3128 80.0845 18.1191 79.4536 17.7318C78.8227 17.3443 78.3302 16.8075 77.976 16.1213C77.6274 15.4351 77.4531 14.6438 77.4531 13.7473C77.4531 12.8398 77.6274 12.0429 77.976 11.3567C78.3302 10.665 78.8227 10.1254 79.4536 9.73804C80.0845 9.34513 80.8176 9.14869 81.6533 9.14869C82.4889 9.14869 83.2193 9.34513 83.8447 9.73804C84.4756 10.1254 84.9652 10.665 85.314 11.3567C85.668 12.0429 85.8452 12.8398 85.8452 13.7473C85.8452 14.6438 85.668 15.4351 85.314 16.1213C84.9652 16.8075 84.4756 17.3443 83.8447 17.7318C83.2193 18.1191 82.4889 18.3128 81.6533 18.3128ZM81.6533 16.802C82.4058 16.802 82.9979 16.5253 83.4296 15.9719C83.8613 15.4185 84.0771 14.6771 84.0771 13.7473C84.0771 12.8066 83.8586 12.0567 83.4214 11.4978C82.9897 10.9389 82.4003 10.6594 81.6533 10.6594C80.9062 10.6594 80.3141 10.9389 79.8769 11.4978C79.4452 12.0512 79.2294 12.801 79.2294 13.7473C79.2294 14.6826 79.4452 15.4269 79.8769 15.9803C80.3086 16.528 80.9007 16.802 81.6533 16.802ZM87.3974 18.1136V9.3479H89.1489V18.1136H87.3974ZM88.269 7.83715C87.959 7.83715 87.6963 7.73479 87.4804 7.53002C87.2701 7.31974 87.165 7.06519 87.165 6.76635C87.165 6.462 87.2701 6.20743 87.4804 6.00268C87.6963 5.7924 87.959 5.68726 88.269 5.68726C88.5789 5.68726 88.8418 5.7924 89.0576 6.00268C89.2734 6.20743 89.3813 6.462 89.3813 6.76635C89.3813 7.06519 89.2734 7.31974 89.0576 7.53002C88.8418 7.73479 88.5789 7.83715 88.269 7.83715ZM94.5029 18.2879C93.7392 18.2879 93.0723 18.097 92.5023 17.7151C91.9323 17.3277 91.4896 16.7937 91.1743 16.1131C90.8588 15.4269 90.7011 14.6327 90.7011 13.7307C90.7011 12.8287 90.8588 12.0374 91.1743 11.3567C91.4953 10.6705 91.9407 10.1365 92.5107 9.75464C93.0807 9.36727 93.7419 9.17359 94.4946 9.17359C95.0646 9.17359 95.5848 9.29257 96.0551 9.53053C96.5255 9.76847 96.9018 10.1309 97.1841 10.6179H97.2007V5.74535H98.9521V18.1136H97.2338V16.7772H97.2172C96.9239 17.2862 96.5394 17.6653 96.0634 17.9143C95.593 18.1633 95.0729 18.2879 94.5029 18.2879ZM94.8598 16.7772C95.6069 16.7772 96.2018 16.5004 96.6444 15.947C97.0927 15.3881 97.3169 14.6493 97.3169 13.7307C97.3169 12.8066 97.0927 12.0678 96.6444 11.5144C96.2018 10.9555 95.6069 10.676 94.8598 10.676C94.1515 10.676 93.576 10.9389 93.1332 11.4646C92.6961 11.9848 92.4775 12.7402 92.4775 13.7307C92.4775 14.7213 92.6961 15.4766 93.1332 15.9969C93.576 16.517 94.1515 16.7772 94.8598 16.7772Z" fill="white"/>
</svg>
