<svg width="202" height="48" viewBox="0 0 202 48" fill="none" xmlns="http://www.w3.org/2000/svg">
<mask id="mask0_382_498" style="mask-type:luminance" maskUnits="userSpaceOnUse" x="0" y="0" width="48" height="48">
<path d="M47.9976 0.000976562H0V47.9986H47.9976V0.000976562Z" fill="white"/>
</mask>
<g mask="url(#mask0_382_498)">
<path d="M43.1829 0.00177002C44.8618 0.00177003 45.7015 0.00247102 46.3429 0.329036C46.9074 0.61664 47.3669 1.07632 47.6545 1.64078C47.9811 2.28229 47.9819 3.12184 47.9819 4.80076V43.1848C47.9819 44.8636 47.9814 45.7031 47.6545 46.3448C47.3669 46.909 46.9074 47.3688 46.3429 47.6564C45.7015 47.9827 44.8618 47.9836 43.1829 47.9836H4.79901C3.12017 47.9836 2.2805 47.983 1.63899 47.6564C1.07454 47.3688 0.61487 46.909 0.327263 46.3448C0.000656577 45.7031 0 44.8634 0 43.1848V4.80076C0 3.12192 0.000793937 2.28228 0.327263 1.64078C0.61487 1.07632 1.07454 0.61664 1.63899 0.329036C2.28053 0.00238666 3.12003 0.00177003 4.79901 0.00177002H43.1829ZM8.90182 27.5604V39.0845H20.4259V27.5604H8.90182Z" fill="black"/>
</g>
<path d="M67.1976 36.2272V11.4907H72.3939L77.939 25.9838C78.1602 26.6148 78.448 27.4447 78.8021 28.474C79.1565 29.4923 79.4773 30.4332 79.765 31.2963C80.0419 30.4332 80.3572 29.4923 80.7113 28.474C81.0657 27.4447 81.3533 26.6148 81.5747 25.9838L87.0366 11.4907H92.2496V36.2272H88.6304V22.7466C88.6304 21.8612 88.6414 20.8319 88.6636 19.6587C88.6856 18.4745 88.7134 17.2957 88.7466 16.1226C88.2928 17.4618 87.8612 18.7235 87.4517 19.9077C87.0531 21.092 86.7212 22.0383 86.4556 22.7466L81.2426 36.2272H78.2211L72.9584 22.7466C72.704 22.0715 72.3774 21.1805 71.9791 20.0737C71.5915 18.9559 71.1709 17.755 70.7171 16.4712C70.7503 17.6001 70.7781 18.7179 70.8003 19.8247C70.8223 20.9315 70.8336 21.9055 70.8336 22.7466V36.2272H67.1976ZM103.987 36.6255C102.249 36.6255 100.755 36.2327 99.5045 35.4468C98.2647 34.6611 97.3074 33.5818 96.6322 32.2094C95.9682 30.826 95.6361 29.2544 95.6361 27.4947C95.6361 25.7127 95.9847 24.13 96.6822 22.7466C97.3794 21.3631 98.3422 20.2785 99.5707 19.4927C100.799 18.6958 102.21 18.2974 103.804 18.2974C105.464 18.2974 106.903 18.6847 108.12 19.4595C109.349 20.2342 110.301 21.3133 110.976 22.6968C111.651 24.0692 111.989 25.6574 111.989 27.4615V28.4078H99.0894C99.1556 29.9904 99.6094 31.2688 100.451 32.2426C101.303 33.2167 102.498 33.7035 104.037 33.7035C105.188 33.7035 106.134 33.4436 106.876 32.9234C107.617 32.4031 108.11 31.7281 108.353 30.898H111.723C111.513 32.027 111.042 33.0231 110.312 33.8862C109.593 34.7496 108.685 35.4248 107.589 35.9116C106.505 36.3876 105.304 36.6255 103.987 36.6255ZM99.1226 25.7515H108.569C108.425 24.3569 107.932 23.2557 107.091 22.4478C106.25 21.6287 105.166 21.2192 103.837 21.2192C102.509 21.2192 101.425 21.6287 100.584 22.4478C99.7534 23.2557 99.2663 24.3569 99.1226 25.7515ZM123.477 18.6958V21.5845H119.924V31.5952C119.924 32.2481 120.057 32.7019 120.323 32.9566C120.588 33.2112 121.07 33.3384 121.767 33.3384H123.477V36.2272H121.269C118.026 36.2272 116.405 34.8325 116.405 32.0435V21.5845H113.317V18.6958H116.405V13.9145H119.924V18.6958H123.477ZM133.438 36.6255C131.7 36.6255 130.206 36.2327 128.956 35.4468C127.716 34.6611 126.759 33.5818 126.084 32.2094C125.419 30.826 125.087 29.2544 125.087 27.4947C125.087 25.7127 125.436 24.13 126.133 22.7466C126.83 21.3631 127.794 20.2785 129.022 19.4927C130.25 18.6958 131.662 18.2974 133.255 18.2974C134.915 18.2974 136.354 18.6847 137.572 19.4595C138.8 20.2342 139.752 21.3133 140.427 22.6968C141.102 24.0692 141.44 25.6574 141.44 27.4615V28.4078H128.54C128.607 29.9904 129.061 31.2688 129.902 32.2426C130.754 33.2167 131.95 33.7035 133.488 33.7035C134.639 33.7035 135.585 33.4436 136.327 32.9234C137.068 32.4031 137.561 31.7281 137.804 30.898H141.174C140.964 32.027 140.494 33.0231 139.763 33.8862C139.044 34.7496 138.136 35.4248 137.041 35.9116C135.956 36.3876 134.755 36.6255 133.438 36.6255ZM128.574 25.7515H138.02C137.876 24.3569 137.384 23.2557 136.543 22.4478C135.701 21.6287 134.617 21.2192 133.289 21.2192C131.96 21.2192 130.876 21.6287 130.035 22.4478C129.205 23.2557 128.718 24.3569 128.574 25.7515ZM144.478 36.2272V18.6958H147.832V21.5347H147.898C148.219 20.5718 148.723 19.8247 149.409 19.2934C150.106 18.7511 151.014 18.48 152.131 18.48C152.397 18.48 152.641 18.491 152.862 18.5132C153.083 18.5353 153.266 18.5519 153.41 18.563V21.8335C153.277 21.8003 153.039 21.7671 152.696 21.7339C152.353 21.6896 151.976 21.6675 151.567 21.6675C150.582 21.6675 149.735 22.0106 149.027 22.6968C148.33 23.383 147.981 24.44 147.981 25.8677V36.2272H144.478ZM163.304 36.6255C161.633 36.6255 160.167 36.2382 158.905 35.4635C157.643 34.6886 156.658 33.6151 155.95 32.2426C155.252 30.8702 154.904 29.2877 154.904 27.4947C154.904 25.6795 155.252 24.0858 155.95 22.7134C156.658 21.3299 157.643 20.2508 158.905 19.4761C160.167 18.6903 161.633 18.2974 163.304 18.2974C164.976 18.2974 166.436 18.6903 167.687 19.4761C168.949 20.2508 169.928 21.3299 170.626 22.7134C171.334 24.0858 171.688 25.6795 171.688 27.4947C171.688 29.2877 171.334 30.8702 170.626 32.2426C169.928 33.6151 168.949 34.6886 167.687 35.4635C166.436 36.2382 164.976 36.6255 163.304 36.6255ZM163.304 33.6041C164.809 33.6041 165.994 33.0505 166.857 31.9438C167.72 30.837 168.152 29.3542 168.152 27.4947C168.152 25.6131 167.715 24.1134 166.84 22.9956C165.977 21.8778 164.798 21.3189 163.304 21.3189C161.81 21.3189 160.626 21.8778 159.752 22.9956C158.888 24.1024 158.457 25.6021 158.457 27.4947C158.457 29.3651 158.888 30.8538 159.752 31.9605C160.615 33.056 161.799 33.6041 163.304 33.6041ZM174.793 36.2272V18.6958H178.296V36.2272H174.793ZM176.536 15.6743C175.916 15.6743 175.39 15.4696 174.958 15.06C174.538 14.6395 174.328 14.1304 174.328 13.5327C174.328 12.924 174.538 12.4149 174.958 12.0054C175.39 11.5848 175.916 11.3745 176.536 11.3745C177.156 11.3745 177.681 11.5848 178.113 12.0054C178.544 12.4149 178.76 12.924 178.76 13.5327C178.76 14.1304 178.544 14.6395 178.113 15.06C177.681 15.4696 177.156 15.6743 176.536 15.6743ZM189.003 36.5758C187.476 36.5758 186.142 36.194 185.002 35.4303C183.862 34.6553 182.977 33.5873 182.346 32.2262C181.715 30.8538 181.4 29.2654 181.4 27.4615C181.4 25.6574 181.715 24.0747 182.346 22.7134C182.988 21.341 183.879 20.273 185.019 19.5093C186.159 18.7345 187.482 18.3472 188.987 18.3472C190.127 18.3472 191.167 18.5851 192.108 19.0611C193.049 19.5369 193.801 20.2619 194.366 21.2358H194.399V11.4907H197.902V36.2272H194.465V33.5543H194.432C193.846 34.5724 193.076 35.3306 192.125 35.8286C191.184 36.3266 190.143 36.5758 189.003 36.5758ZM189.717 33.5543C191.211 33.5543 192.401 33.0008 193.287 31.894C194.183 30.7763 194.631 29.2987 194.631 27.4615C194.631 25.6131 194.183 24.1356 193.287 23.0288C192.401 21.911 191.211 21.3521 189.717 21.3521C188.301 21.3521 187.15 21.8778 186.264 22.9292C185.39 23.9696 184.953 25.4803 184.953 27.4615C184.953 29.4426 185.39 30.9532 186.264 31.9938C187.15 33.0341 188.301 33.5543 189.717 33.5543Z" fill="black"/>
</svg>
