<svg width="202" height="48" viewBox="0 0 202 48" fill="none" xmlns="http://www.w3.org/2000/svg">
<mask id="mask0_382_491" style="mask-type:luminance" maskUnits="userSpaceOnUse" x="0" y="0" width="48" height="48">
<path d="M48 0H0V48H48V0Z" fill="white"/>
</mask>
<g mask="url(#mask0_382_491)">
<path d="M43.185 0.000488281C44.864 0.000488289 45.7038 0.00118931 46.3452 0.327771C46.9097 0.615389 47.3693 1.07509 47.6569 1.63958C47.9835 2.28113 47.9843 3.12071 47.9843 4.79972V43.1856C47.9843 44.8646 47.9838 45.7041 47.6569 46.3458C47.3693 46.91 46.9097 47.3699 46.3452 47.6575C45.7038 47.9838 44.864 47.9847 43.185 47.9847H4.79925C3.12032 47.9847 2.28061 47.9841 1.63908 47.6575C1.07459 47.3699 0.614901 46.91 0.32728 46.3458C0.000656618 45.7041 0 44.8643 0 43.1856V4.79972C0 3.1208 0.000793971 2.28111 0.32728 1.63958C0.614901 1.07509 1.07459 0.615389 1.63908 0.327771C2.28064 0.00110495 3.12019 0.000488294 4.79925 0.000488281H43.185ZM7.9996 26.6578V39.9878H21.3296V26.6578H7.9996Z" fill="white"/>
</g>
<path d="M67.2 36.2272V11.4907H72.3962L77.9413 25.9838C78.1625 26.6148 78.4504 27.4447 78.8044 28.474C79.1588 29.4923 79.4797 30.4332 79.7673 31.2963C80.0442 30.4332 80.3595 29.4923 80.7136 28.474C81.068 27.4447 81.3556 26.6148 81.577 25.9838L87.0389 11.4907H92.2519V36.2272H88.6327V22.7466C88.6327 21.8612 88.6437 20.8319 88.666 19.6587C88.6879 18.4745 88.7157 17.2957 88.7489 16.1226C88.2951 17.4618 87.8636 18.7235 87.454 19.9077C87.0554 21.092 86.7236 22.0383 86.4579 22.7466L81.2449 36.2272H78.2235L72.9607 22.7466C72.7063 22.0715 72.3797 21.1805 71.9814 20.0737C71.5938 18.9559 71.1732 17.755 70.7194 16.4712C70.7527 17.6001 70.7804 18.7179 70.8027 19.8247C70.8246 20.9315 70.8359 21.9055 70.8359 22.7466V36.2272H67.2ZM103.989 36.6255C102.251 36.6255 100.757 36.2327 99.5068 35.4468C98.2671 34.6611 97.3097 33.5818 96.6345 32.2094C95.9706 30.826 95.6384 29.2544 95.6384 27.4947C95.6384 25.7127 95.987 24.13 96.6845 22.7466C97.3817 21.3631 98.3445 20.2785 99.573 19.4927C100.802 18.6958 102.213 18.2974 103.806 18.2974C105.467 18.2974 106.905 18.6847 108.123 19.4595C109.351 20.2342 110.303 21.3133 110.978 22.6968C111.654 24.0692 111.991 25.6574 111.991 27.4615V28.4078H99.0917C99.1579 29.9904 99.6117 31.2688 100.453 32.2426C101.305 33.2167 102.5 33.7035 104.039 33.7035C105.19 33.7035 106.136 33.4436 106.878 32.9234C107.619 32.4031 108.112 31.7281 108.355 30.898H111.726C111.515 32.027 111.045 33.0231 110.314 33.8862C109.595 34.7496 108.687 35.4248 107.592 35.9116C106.507 36.3876 105.306 36.6255 103.989 36.6255ZM99.125 25.7515H108.571C108.427 24.3569 107.935 23.2557 107.094 22.4478C106.252 21.6287 105.168 21.2192 103.84 21.2192C102.511 21.2192 101.427 21.6287 100.586 22.4478C99.7557 23.2557 99.2686 24.3569 99.125 25.7515ZM123.479 18.6958V21.5845H119.927V31.5952C119.927 32.2481 120.059 32.7019 120.325 32.9566C120.591 33.2112 121.072 33.3384 121.769 33.3384H123.479V36.2272H121.271C118.029 36.2272 116.407 34.8325 116.407 32.0435V21.5845H113.319V18.6958H116.407V13.9145H119.927V18.6958H123.479ZM133.44 36.6255C131.703 36.6255 130.209 36.2327 128.958 35.4468C127.718 34.6611 126.761 33.5818 126.086 32.2094C125.422 30.826 125.09 29.2544 125.09 27.4947C125.09 25.7127 125.438 24.13 126.136 22.7466C126.833 21.3631 127.796 20.2785 129.024 19.4927C130.253 18.6958 131.664 18.2974 133.258 18.2974C134.918 18.2974 136.357 18.6847 137.574 19.4595C138.803 20.2342 139.754 21.3133 140.43 22.6968C141.105 24.0692 141.442 25.6574 141.442 27.4615V28.4078H128.543C128.609 29.9904 129.063 31.2688 129.904 32.2426C130.756 33.2167 131.952 33.7035 133.49 33.7035C134.641 33.7035 135.587 33.4436 136.329 32.9234C137.071 32.4031 137.563 31.7281 137.807 30.898H141.177C140.966 32.027 140.496 33.0231 139.765 33.8862C139.046 34.7496 138.139 35.4248 137.043 35.9116C135.958 36.3876 134.757 36.6255 133.44 36.6255ZM128.576 25.7515H138.022C137.879 24.3569 137.386 23.2557 136.545 22.4478C135.704 21.6287 134.619 21.2192 133.291 21.2192C131.963 21.2192 130.878 21.6287 130.037 22.4478C129.207 23.2557 128.72 24.3569 128.576 25.7515ZM144.48 36.2272V18.6958H147.834V21.5347H147.9C148.221 20.5718 148.725 19.8247 149.411 19.2934C150.108 18.7511 151.016 18.48 152.134 18.48C152.399 18.48 152.643 18.491 152.864 18.5132C153.085 18.5353 153.268 18.5519 153.412 18.563V21.8335C153.279 21.8003 153.041 21.7671 152.698 21.7339C152.355 21.6896 151.979 21.6675 151.569 21.6675C150.584 21.6675 149.737 22.0106 149.029 22.6968C148.332 23.383 147.983 24.44 147.983 25.8677V36.2272H144.48ZM163.307 36.6255C161.635 36.6255 160.169 36.2382 158.907 35.4635C157.645 34.6886 156.66 33.6151 155.952 32.2426C155.255 30.8702 154.906 29.2877 154.906 27.4947C154.906 25.6795 155.255 24.0858 155.952 22.7134C156.66 21.3299 157.645 20.2508 158.907 19.4761C160.169 18.6903 161.635 18.2974 163.307 18.2974C164.978 18.2974 166.439 18.6903 167.689 19.4761C168.951 20.2508 169.93 21.3299 170.628 22.7134C171.336 24.0858 171.69 25.6795 171.69 27.4947C171.69 29.2877 171.336 30.8702 170.628 32.2426C169.93 33.6151 168.951 34.6886 167.689 35.4635C166.439 36.2382 164.978 36.6255 163.307 36.6255ZM163.307 33.6041C164.812 33.6041 165.996 33.0505 166.859 31.9438C167.723 30.837 168.154 29.3542 168.154 27.4947C168.154 25.6131 167.717 24.1134 166.843 22.9956C165.979 21.8778 164.801 21.3189 163.307 21.3189C161.812 21.3189 160.628 21.8778 159.754 22.9956C158.89 24.1024 158.459 25.6021 158.459 27.4947C158.459 29.3651 158.89 30.8538 159.754 31.9605C160.617 33.056 161.801 33.6041 163.307 33.6041ZM174.795 36.2272V18.6958H178.298V36.2272H174.795ZM176.538 15.6743C175.918 15.6743 175.393 15.4696 174.961 15.06C174.54 14.6395 174.33 14.1304 174.33 13.5327C174.33 12.924 174.54 12.4149 174.961 12.0054C175.393 11.5848 175.918 11.3745 176.538 11.3745C177.158 11.3745 177.684 11.5848 178.115 12.0054C178.547 12.4149 178.763 12.924 178.763 13.5327C178.763 14.1304 178.547 14.6395 178.115 15.06C177.684 15.4696 177.158 15.6743 176.538 15.6743ZM189.006 36.5758C187.478 36.5758 186.145 36.194 185.005 35.4303C183.865 34.6553 182.979 33.5873 182.349 32.2262C181.718 30.8538 181.402 29.2654 181.402 27.4615C181.402 25.6574 181.718 24.0747 182.349 22.7134C182.991 21.341 183.881 20.273 185.021 19.5093C186.161 18.7345 187.484 18.3472 188.989 18.3472C190.129 18.3472 191.17 18.5851 192.11 19.0611C193.051 19.5369 193.804 20.2619 194.368 21.2358H194.401V11.4907H197.904V36.2272H194.468V33.5543H194.434C193.848 34.5724 193.079 35.3306 192.127 35.8286C191.186 36.3266 190.146 36.5758 189.006 36.5758ZM189.72 33.5543C191.214 33.5543 192.404 33.0008 193.289 31.894C194.185 30.7763 194.634 29.2987 194.634 27.4615C194.634 25.6131 194.185 24.1356 193.289 23.0288C192.404 21.911 191.214 21.3521 189.72 21.3521C188.303 21.3521 187.152 21.8778 186.266 22.9292C185.392 23.9696 184.955 25.4803 184.955 27.4615C184.955 29.4426 185.392 30.9532 186.266 31.9938C187.152 33.0341 188.303 33.5543 189.72 33.5543Z" fill="white"/>
</svg>
