<svg width="19" height="20" viewBox="0 0 19 20" fill="none" xmlns="http://www.w3.org/2000/svg">
<g clip-path="url(#clip0_39_2033)">
<path d="M9.89579 1.09375C4.86554 1.09375 0.791626 5.16767 0.791626 10.1979C0.791626 14.2267 3.39779 17.6293 7.0165 18.835C7.47171 18.915 7.64192 18.6418 7.64192 18.4028C7.64192 18.1866 7.63084 17.4702 7.63084 16.707C5.34371 17.1282 4.75233 16.1497 4.57025 15.6383C4.46733 15.3762 4.024 14.5679 3.63608 14.3518C3.31783 14.1808 2.86263 13.7596 3.625 13.7485C4.34225 13.7375 4.85446 14.4088 5.02546 14.6819C5.84484 16.0594 7.15346 15.6715 7.67675 15.4324C7.75592 14.841 7.995 14.4428 8.25704 14.2148C6.23117 13.9876 4.11504 13.2023 4.11504 9.71975C4.11504 8.73017 4.46733 7.91079 5.04763 7.2735C4.95658 7.0455 4.63833 6.11212 5.13867 4.8605C5.13867 4.8605 5.90104 4.62142 7.64271 5.79387C8.37104 5.58883 9.1445 5.48671 9.91875 5.48671C10.6922 5.48671 11.4665 5.58962 12.1948 5.79387C13.9365 4.61033 14.698 4.8605 14.698 4.8605C15.1992 6.11212 14.8801 7.0455 14.7891 7.2735C15.3694 7.91079 15.7225 8.71829 15.7225 9.71975C15.7225 13.2134 13.5945 13.9868 11.5686 14.2148C11.8987 14.4998 12.1829 15.0461 12.1829 15.8995C12.1829 17.1171 12.1718 18.0956 12.1718 18.4028C12.1718 18.6418 12.3428 18.9268 12.7973 18.8358C16.3946 17.6293 19 14.2148 19 10.1979C19 5.16767 14.926 1.09375 9.89579 1.09375Z" fill="#F1F0EF"/>
</g>
<defs>
<clipPath id="clip0_39_2033">
<rect width="19" height="19" fill="white" transform="translate(0 0.5)"/>
</clipPath>
</defs>
</svg>
