<svg width="19" height="20" viewBox="0 0 19 20" fill="none" xmlns="http://www.w3.org/2000/svg">
<mask id="mask0_39_2023" style="mask-type:luminance" maskUnits="userSpaceOnUse" x="0" y="0" width="19" height="20">
<path d="M19 0.5H0V19.5H19V0.5Z" fill="white"/>
</mask>
<g mask="url(#mask0_39_2023)">
<path d="M18.815 10.2189C18.815 9.57316 18.7626 8.92391 18.6509 8.28857H9.69019V11.9469H14.8216C14.6087 13.1267 13.9245 14.1704 12.9226 14.8337V17.2074H15.984C17.7817 15.5528 18.815 13.1093 18.815 10.2189Z" fill="#141414"/>
<path d="M9.68925 19.5006C12.2515 19.5006 14.4123 18.6594 15.9866 17.2072L12.9252 14.8335C12.0734 15.413 10.9739 15.7411 9.69273 15.7411C7.21435 15.7411 5.11293 14.0691 4.35894 11.821H1.19983V14.268C2.81255 17.476 6.09732 19.5006 9.68925 19.5006Z" fill="#141414"/>
<path d="M4.35636 11.8212C3.95842 10.6413 3.95842 9.36367 4.35636 8.18381V5.73682H1.20075C-0.14667 8.42119 -0.14667 11.5837 1.20075 14.2681L4.35636 11.8212Z" fill="#141414"/>
<path d="M9.68925 4.26015C11.0436 4.2392 12.3527 4.74885 13.3336 5.68436L16.0459 2.97207C14.3284 1.35935 12.049 0.472714 9.68925 0.50064C6.09732 0.50064 2.81255 2.52526 1.19983 5.73672L4.35544 8.18372C5.10595 5.9322 7.21086 4.26015 9.68925 4.26015Z" fill="#141414"/>
</g>
</svg>
