<svg version="1.1" xmlns="http://www.w3.org/2000/svg" viewBox="0 0 287 181.91772710211535" width="287" height="181.91772710211535">
  <!-- svg-source:excalidraw -->
  
  <defs>
    <style class="style-fonts">
      @font-face {
        font-family: "Virgil";
        src: url("https://excalidraw.com/Virgil.woff2");
      }
      @font-face {
        font-family: "Cascadia";
        src: url("https://excalidraw.com/Cascadia.woff2");
      }
    </style>
    
  </defs>
  <rect x="0" y="0" width="287" height="181.91772710211535" fill="#ffffff"></rect><g stroke-linecap="round" transform="translate(16.5026790063323 87.5763635510832) rotate(0 48.44495859717483 39.34120798830975)"><path d="M19.67 0 C32.33 0, 45 0, 77.22 0 C90.33 0, 96.89 6.56, 96.89 19.67 C96.89 29.43, 96.89 39.19, 96.89 59.01 C96.89 72.13, 90.33 78.68, 77.22 78.68 C64.25 78.68, 51.28 78.68, 19.67 78.68 C6.56 78.68, 0 72.13, 0 59.01 C0 45.85, 0 32.68, 0 19.67 C0 6.56, 6.56 0, 19.67 0" stroke="none" stroke-width="0" fill="#ffffff"></path><path d="M19.67 0 C40.32 0, 60.97 0, 77.22 0 M19.67 0 C38.93 0, 58.19 0, 77.22 0 M77.22 0 C90.33 0, 96.89 6.56, 96.89 19.67 M77.22 0 C90.33 0, 96.89 6.56, 96.89 19.67 M96.89 19.67 C96.89 28.39, 96.89 37.12, 96.89 59.01 M96.89 19.67 C96.89 34.7, 96.89 49.72, 96.89 59.01 M96.89 59.01 C96.89 72.13, 90.33 78.68, 77.22 78.68 M96.89 59.01 C96.89 72.13, 90.33 78.68, 77.22 78.68 M77.22 78.68 C54.81 78.68, 32.41 78.68, 19.67 78.68 M77.22 78.68 C54.8 78.68, 32.39 78.68, 19.67 78.68 M19.67 78.68 C6.56 78.68, 0 72.13, 0 59.01 M19.67 78.68 C6.56 78.68, 0 72.13, 0 59.01 M0 59.01 C0 49.52, 0 40.03, 0 19.67 M0 59.01 C0 43.8, 0 28.59, 0 19.67 M0 19.67 C0 6.56, 6.56 0, 19.67 0 M0 19.67 C0 6.56, 6.56 0, 19.67 0" stroke="#1e1e1e" stroke-width="1" fill="none"></path></g><g stroke-linecap="round" transform="translate(162.22771553823668 87.31625639082972) rotate(0 54.29736970287388 39.991475888943)"><path d="M20 0 C35.44 0, 50.89 0, 88.6 0 C101.93 0, 108.59 6.67, 108.59 20 C108.59 30.47, 108.59 40.95, 108.59 59.99 C108.59 73.32, 101.93 79.98, 88.6 79.98 C63.51 79.98, 38.42 79.98, 20 79.98 C6.67 79.98, 0 73.32, 0 59.99 C0 49.64, 0 39.3, 0 20 C0 6.67, 6.67 0, 20 0" stroke="none" stroke-width="0" fill="#ffffff"></path><path d="M20 0 C40.94 0, 61.89 0, 88.6 0 M20 0 C43.18 0, 66.36 0, 88.6 0 M88.6 0 C101.93 0, 108.59 6.67, 108.59 20 M88.6 0 C101.93 0, 108.59 6.67, 108.59 20 M108.59 20 C108.59 28.86, 108.59 37.73, 108.59 59.99 M108.59 20 C108.59 32.55, 108.59 45.1, 108.59 59.99 M108.59 59.99 C108.59 73.32, 101.93 79.98, 88.6 79.98 M108.59 59.99 C108.59 73.32, 101.93 79.98, 88.6 79.98 M88.6 79.98 C67.3 79.98, 46 79.98, 20 79.98 M88.6 79.98 C64.86 79.98, 41.12 79.98, 20 79.98 M20 79.98 C6.67 79.98, 0 73.32, 0 59.99 M20 79.98 C6.67 79.98, 0 73.32, 0 59.99 M0 59.99 C0 45.37, 0 30.75, 0 20 M0 59.99 C0 45.15, 0 30.32, 0 20 M0 20 C0 6.67, 6.67 0, 20 0 M0 20 C0 6.67, 6.67 0, 20 0" stroke="#1e1e1e" stroke-width="1" fill="none"></path></g><g stroke-linecap="round" transform="translate(85.3660496833902 62.21591542638748) rotate(0 54.29736970287388 51.69629810034098)"><path d="M25.85 0 C37.82 0, 49.79 0, 82.75 0 C99.98 0, 108.59 8.62, 108.59 25.85 C108.59 45.11, 108.59 64.36, 108.59 77.54 C108.59 94.78, 99.98 103.39, 82.75 103.39 C65.12 103.39, 47.5 103.39, 25.85 103.39 C8.62 103.39, 0 94.78, 0 77.54 C0 66.45, 0 55.36, 0 25.85 C0 8.62, 8.62 0, 25.85 0" stroke="none" stroke-width="0" fill="#ffffff"></path><path d="M25.85 0 C48.03 0, 70.21 0, 82.75 0 M25.85 0 C46.38 0, 66.92 0, 82.75 0 M82.75 0 C99.98 0, 108.59 8.62, 108.59 25.85 M82.75 0 C99.98 0, 108.59 8.62, 108.59 25.85 M108.59 25.85 C108.59 38.75, 108.59 51.66, 108.59 77.54 M108.59 25.85 C108.59 40.26, 108.59 54.67, 108.59 77.54 M108.59 77.54 C108.59 94.78, 99.98 103.39, 82.75 103.39 M108.59 77.54 C108.59 94.78, 99.98 103.39, 82.75 103.39 M82.75 103.39 C67.53 103.39, 52.31 103.39, 25.85 103.39 M82.75 103.39 C60.2 103.39, 37.64 103.39, 25.85 103.39 M25.85 103.39 C8.62 103.39, 0 94.78, 0 77.54 M25.85 103.39 C8.62 103.39, 0 94.78, 0 77.54 M0 77.54 C0 57.11, 0 36.68, 0 25.85 M0 77.54 C0 61.3, 0 45.05, 0 25.85 M0 25.85 C0 8.62, 8.62 0, 25.85 0 M0 25.85 C0 8.62, 8.62 0, 25.85 0" stroke="#1e1e1e" stroke-width="1" fill="none"></path></g><g stroke-linecap="round" transform="translate(10 150.45888638121914) rotate(0 133.30491962981 10.729420360448103)"><path d="M5.36 0 C83.93 0, 162.5 0, 261.25 0 C264.82 0, 266.61 1.79, 266.61 5.36 C266.61 7.65, 266.61 9.94, 266.61 16.09 C266.61 19.67, 264.82 21.46, 261.25 21.46 C186.44 21.46, 111.64 21.46, 5.36 21.46 C1.79 21.46, 0 19.67, 0 16.09 C0 13.5, 0 10.9, 0 5.36 C0 1.79, 1.79 0, 5.36 0" stroke="none" stroke-width="0" fill="#ffffff"></path><path d="M5.36 0 C67.48 0, 129.6 0, 261.25 0 M5.36 0 C87.32 0, 169.28 0, 261.25 0 M261.25 0 C264.82 0, 266.61 1.79, 266.61 5.36 M261.25 0 C264.82 0, 266.61 1.79, 266.61 5.36 M266.61 5.36 C266.61 8.74, 266.61 12.11, 266.61 16.09 M266.61 5.36 C266.61 8.71, 266.61 12.05, 266.61 16.09 M266.61 16.09 C266.61 19.67, 264.82 21.46, 261.25 21.46 M266.61 16.09 C266.61 19.67, 264.82 21.46, 261.25 21.46 M261.25 21.46 C189.87 21.46, 118.49 21.46, 5.36 21.46 M261.25 21.46 C168.38 21.46, 75.51 21.46, 5.36 21.46 M5.36 21.46 C1.79 21.46, 0 19.67, 0 16.09 M5.36 21.46 C1.79 21.46, 0 19.67, 0 16.09 M0 16.09 C0 11.91, 0 7.73, 0 5.36 M0 16.09 C0 12.93, 0 9.77, 0 5.36 M0 5.36 C0 1.79, 1.79 0, 5.36 0 M0 5.36 C0 1.79, 1.79 0, 5.36 0" stroke="#ffffff" stroke-width="1" fill="none"></path></g><g stroke-linecap="round" transform="translate(13.641500243546034 121.58699159310436) rotate(0 131.67924987822698 14.956161714564018)"><path d="M1.99 1.73 C1.99 1.73, 1.99 1.73, 1.99 1.73 M1.99 1.73 C1.99 1.73, 1.99 1.73, 1.99 1.73 M0.42 9.64 C2.19 7.6, 3.97 5.55, 8.29 0.58 M0.42 9.64 C2.46 7.29, 4.5 4.94, 8.29 0.58 M0.81 15.28 C5.32 10.1, 9.82 4.92, 13.28 0.94 M0.81 15.28 C3.74 11.91, 6.67 8.55, 13.28 0.94 M0.55 21.68 C4.24 17.43, 7.93 13.19, 18.92 0.55 M0.55 21.68 C4.7 16.91, 8.84 12.14, 18.92 0.55 M1.6 26.57 C8.23 18.94, 14.85 11.32, 23.91 0.91 M1.6 26.57 C9.57 17.4, 17.54 8.23, 23.91 0.91 M4.62 29.19 C13.67 18.78, 22.72 8.37, 29.55 0.51 M4.62 29.19 C11.75 20.99, 18.89 12.78, 29.55 0.51 M8.95 30.31 C15.1 23.24, 21.24 16.17, 34.54 0.87 M8.95 30.31 C17.4 20.59, 25.85 10.87, 34.54 0.87 M14.59 29.91 C21.45 22.03, 28.3 14.15, 40.18 0.48 M14.59 29.91 C19.73 24, 24.88 18.08, 40.18 0.48 M19.58 30.27 C26.01 22.88, 32.43 15.49, 45.17 0.84 M19.58 30.27 C28.13 20.44, 36.68 10.6, 45.17 0.84 M25.22 29.88 C31.12 23.09, 37.03 16.3, 50.81 0.44 M25.22 29.88 C30.88 23.37, 36.54 16.86, 50.81 0.44 M30.21 30.24 C36.61 22.87, 43.01 15.51, 55.8 0.8 M30.21 30.24 C38.92 20.22, 47.63 10.2, 55.8 0.8 M35.85 29.84 C44.2 20.24, 52.55 10.63, 61.44 0.41 M35.85 29.84 C43.23 21.35, 50.61 12.87, 61.44 0.41 M40.84 30.2 C46.38 23.82, 51.93 17.45, 66.43 0.77 M40.84 30.2 C48.8 21.05, 56.76 11.89, 66.43 0.77 M46.48 29.81 C56.44 18.36, 66.39 6.91, 72.07 0.37 M46.48 29.81 C52.49 22.89, 58.5 15.98, 72.07 0.37 M51.47 30.17 C61.44 18.71, 71.4 7.24, 77.06 0.73 M51.47 30.17 C61.67 18.44, 71.87 6.71, 77.06 0.73 M56.46 30.53 C62.02 24.13, 67.59 17.73, 82.7 0.34 M56.46 30.53 C66.53 18.95, 76.59 7.37, 82.7 0.34 M62.1 30.13 C68.92 22.28, 75.75 14.44, 87.69 0.7 M62.1 30.13 C70.96 19.94, 79.82 9.75, 87.69 0.7 M67.09 30.49 C76.23 19.98, 85.37 9.46, 93.33 0.31 M67.09 30.49 C76.22 19.98, 85.36 9.48, 93.33 0.31 M72.73 30.1 C78 24.04, 83.27 17.98, 98.32 0.67 M72.73 30.1 C80.1 21.62, 87.46 13.15, 98.32 0.67 M77.72 30.46 C85.66 21.32, 93.6 12.19, 103.3 1.03 M77.72 30.46 C83.67 23.62, 89.61 16.77, 103.3 1.03 M83.36 30.06 C89.1 23.47, 94.83 16.87, 108.95 0.63 M83.36 30.06 C92.27 19.82, 101.17 9.58, 108.95 0.63 M88.35 30.42 C97.81 19.55, 107.26 8.67, 113.93 0.99 M88.35 30.42 C94.27 23.61, 100.19 16.8, 113.93 0.99 M93.99 30.03 C104.17 18.32, 114.34 6.62, 119.58 0.6 M93.99 30.03 C100.17 22.92, 106.36 15.8, 119.58 0.6 M98.98 30.39 C108.11 19.88, 117.25 9.37, 124.56 0.96 M98.98 30.39 C104.88 23.6, 110.78 16.82, 124.56 0.96 M104.62 30 C111.33 22.28, 118.04 14.56, 130.21 0.56 M104.62 30 C111.65 21.91, 118.67 13.83, 130.21 0.56 M109.61 30.36 C116.34 22.61, 123.07 14.87, 135.19 0.92 M109.61 30.36 C114.87 24.3, 120.14 18.25, 135.19 0.92 M115.25 29.96 C120.7 23.69, 126.15 17.43, 140.84 0.53 M115.25 29.96 C124.03 19.86, 132.8 9.77, 140.84 0.53 M120.24 30.32 C126.32 23.33, 132.39 16.34, 145.82 0.89 M120.24 30.32 C125.96 23.74, 131.68 17.16, 145.82 0.89 M125.88 29.93 C133.66 20.98, 141.44 12.03, 151.47 0.49 M125.88 29.93 C134.43 20.09, 142.98 10.26, 151.47 0.49 M130.87 30.29 C140.83 18.83, 150.8 7.36, 156.45 0.85 M130.87 30.29 C137.05 23.18, 143.23 16.07, 156.45 0.85 M136.51 29.89 C142.89 22.55, 149.28 15.21, 162.1 0.46 M136.51 29.89 C144.83 20.32, 153.15 10.75, 162.1 0.46 M141.5 30.25 C151.41 18.85, 161.32 7.45, 167.08 0.82 M141.5 30.25 C149.36 21.21, 157.23 12.16, 167.08 0.82 M147.14 29.86 C152.83 23.31, 158.52 16.77, 172.73 0.42 M147.14 29.86 C156.98 18.54, 166.83 7.21, 172.73 0.42 M152.13 30.22 C158.76 22.59, 165.39 14.97, 177.72 0.78 M152.13 30.22 C161.33 19.63, 170.53 9.05, 177.72 0.78 M157.77 29.82 C164.31 22.3, 170.84 14.79, 183.36 0.39 M157.77 29.82 C167.27 18.89, 176.77 7.96, 183.36 0.39 M162.76 30.18 C172.79 18.65, 182.82 7.11, 188.35 0.75 M162.76 30.18 C168.58 23.49, 174.4 16.8, 188.35 0.75 M168.4 29.79 C174.56 22.71, 180.71 15.63, 193.99 0.35 M168.4 29.79 C176.96 19.94, 185.53 10.09, 193.99 0.35 M173.39 30.15 C181.9 20.36, 190.41 10.57, 198.98 0.71 M173.39 30.15 C179.29 23.36, 185.19 16.57, 198.98 0.71 M178.38 30.51 C187.01 20.58, 195.64 10.65, 204.62 0.32 M178.38 30.51 C186.63 21.01, 194.89 11.51, 204.62 0.32 M184.02 30.11 C193.92 18.72, 203.83 7.33, 209.61 0.68 M184.02 30.11 C193.73 18.94, 203.44 7.77, 209.61 0.68 M189.01 30.47 C197.7 20.47, 206.4 10.47, 215.25 0.29 M189.01 30.47 C197.99 20.14, 206.97 9.81, 215.25 0.29 M194.65 30.08 C200.3 23.58, 205.94 17.09, 220.24 0.65 M194.65 30.08 C204.25 19.03, 213.86 7.99, 220.24 0.65 M199.64 30.44 C207.77 21.08, 215.9 11.73, 225.22 1.01 M199.64 30.44 C205.74 23.42, 211.84 16.4, 225.22 1.01 M205.28 30.05 C211.89 22.44, 218.49 14.84, 230.87 0.61 M205.28 30.05 C210.64 23.88, 216 17.71, 230.87 0.61 M210.27 30.41 C215.84 23.99, 221.42 17.57, 235.85 0.97 M210.27 30.41 C215.78 24.06, 221.3 17.72, 235.85 0.97 M215.91 30.01 C223.17 21.66, 230.43 13.31, 241.5 0.58 M215.91 30.01 C225.23 19.28, 234.56 8.56, 241.5 0.58 M220.9 30.37 C226.54 23.88, 232.18 17.39, 246.48 0.94 M220.9 30.37 C227.96 22.25, 235.01 14.13, 246.48 0.94 M226.54 29.98 C232.7 22.89, 238.86 15.8, 252.13 0.54 M226.54 29.98 C231.99 23.71, 237.43 17.44, 252.13 0.54 M231.53 30.34 C241.33 19.06, 251.13 7.78, 257.77 0.15 M231.53 30.34 C237.11 23.91, 242.7 17.49, 257.77 0.15 M237.17 29.94 C242.81 23.45, 248.45 16.96, 261.44 2.02 M237.17 29.94 C242.47 23.84, 247.78 17.74, 261.44 2.02 M242.16 30.3 C250.23 21.01, 258.31 11.72, 263.15 6.15 M242.16 30.3 C246.57 25.23, 250.98 20.15, 263.15 6.15 M247.8 29.91 C252.85 24.1, 257.89 18.29, 263.54 11.79 M247.8 29.91 C253.08 23.83, 258.36 17.75, 263.54 11.79 M252.79 30.27 C255.11 27.6, 257.43 24.93, 263.28 18.19 M252.79 30.27 C255.33 27.34, 257.87 24.42, 263.28 18.19 M257.77 30.63 C259.49 28.65, 261.21 26.68, 263.02 24.59 M257.77 30.63 C258.87 29.37, 259.96 28.11, 263.02 24.59" stroke="#ffffff" stroke-width="0.5" fill="none"></path><path d="M7.48 0 C83.17 0, 158.85 0, 255.88 0 M7.48 0 C60.48 0, 113.48 0, 255.88 0 M255.88 0 C260.87 0, 263.36 2.49, 263.36 7.48 M255.88 0 C260.87 0, 263.36 2.49, 263.36 7.48 M263.36 7.48 C263.36 12.4, 263.36 17.32, 263.36 22.43 M263.36 7.48 C263.36 12.48, 263.36 17.49, 263.36 22.43 M263.36 22.43 C263.36 27.42, 260.87 29.91, 255.88 29.91 M263.36 22.43 C263.36 27.42, 260.87 29.91, 255.88 29.91 M255.88 29.91 C166.28 29.91, 76.68 29.91, 7.48 29.91 M255.88 29.91 C166.09 29.91, 76.29 29.91, 7.48 29.91 M7.48 29.91 C2.49 29.91, 0 27.42, 0 22.43 M7.48 29.91 C2.49 29.91, 0 27.42, 0 22.43 M0 22.43 C0 17.96, 0 13.49, 0 7.48 M0 22.43 C0 18.08, 0 13.73, 0 7.48 M0 7.48 C0 2.49, 2.49 0, 7.48 0 M0 7.48 C0 2.49, 2.49 0, 7.48 0" stroke="#ffffff" stroke-width="1" fill="none"></path></g><g transform="translate(121.52676153531388 68.44731885479337) rotate(0 13.457930024635289 6.502679006332187)"><text x="0" y="0" font-family="Virgil, Segoe UI Emoji" font-size="10.404286410131514px" fill="#1e1e1e" text-anchor="start" style="white-space: pre;" direction="ltr" dominant-baseline="text-before-edge">Scale</text></g><g transform="translate(100.19662617906101 94.24992362586431) rotate(0 44.931007385253906 9.257142279071559)"><text x="0" y="0" font-family="Virgil, Segoe UI Emoji" font-size="14.811427646514435px" fill="#1e1e1e" text-anchor="start" style="white-space: pre;" direction="ltr" dominant-baseline="text-before-edge">$300/month</text></g><g transform="translate(94.86442939386848 117.13935372815354) rotate(0 51.86647033691406 5.70882896586204)"><text x="0" y="0" font-family="Virgil, Segoe UI Emoji" font-size="9.134126345379224px" fill="#1e1e1e" text-anchor="start" style="white-space: pre;" direction="ltr" dominant-baseline="text-before-edge">200.000 calls included</text></g><g stroke-linecap="round"><g transform="translate(40.41185788644043 13.70652703360929) rotate(0 106.31880175353137 0.3251339503166264)"><path d="M0 0 C35.44 0.11, 177.2 0.54, 212.64 0.65 M0 0 C35.44 0.11, 177.2 0.54, 212.64 0.65" stroke="#1e1e1e" stroke-width="4" fill="none"></path></g></g><mask></mask><g transform="translate(18.562856425164227 31.133706770579465) rotate(312.59381022489146 17.151458844288413 6.502679006332187)"><text x="0" y="0" font-family="Virgil, Segoe UI Emoji" font-size="10.404286410131512px" fill="#1e1e1e" text-anchor="start" style="white-space: pre;" direction="ltr" dominant-baseline="text-before-edge">10.000</text></g><g transform="translate(80.81092157539501 30.8452448602784) rotate(312.59381022489146 18.956599202553207 6.502679006332187)"><text x="0" y="0" font-family="Virgil, Segoe UI Emoji" font-size="10.404286410131512px" fill="#1e1e1e" text-anchor="start" style="white-space: pre;" direction="ltr" dominant-baseline="text-before-edge">50.000</text></g><g transform="translate(146.64372929683464 29.047468858771254) rotate(312.59381022489146 20.7305319405624 6.502679006332187)"><text x="0" y="0" font-family="Virgil, Segoe UI Emoji" font-size="10.404286410131514px" fill="#1e1e1e" text-anchor="start" style="white-space: pre;" direction="ltr" dominant-baseline="text-before-edge">100.000</text></g><g transform="translate(202.965666619918 33.08632722083553) rotate(312.59381022489146 23.024675030157823 6.502679006332187)"><text x="0" y="0" font-family="Virgil, Segoe UI Emoji" font-size="10.404286410131514px" fill="#1e1e1e" text-anchor="start" style="white-space: pre;" direction="ltr" dominant-baseline="text-before-edge">200.000</text></g><g stroke-linecap="round" transform="translate(49.58063528536877 10) rotate(0 3.576473453482663 3.576473453482663)"><path d="M7.15 3.58 C7.15 3.78, 7.13 3.99, 7.1 4.2 C7.06 4.4, 7.01 4.61, 6.94 4.8 C6.87 4.99, 6.78 5.19, 6.67 5.36 C6.57 5.54, 6.45 5.72, 6.32 5.88 C6.18 6.03, 6.03 6.18, 5.88 6.32 C5.72 6.45, 5.54 6.57, 5.36 6.67 C5.19 6.78, 4.99 6.87, 4.8 6.94 C4.61 7.01, 4.4 7.06, 4.2 7.1 C3.99 7.13, 3.78 7.15, 3.58 7.15 C3.37 7.15, 3.16 7.13, 2.96 7.1 C2.75 7.06, 2.55 7.01, 2.35 6.94 C2.16 6.87, 1.97 6.78, 1.79 6.67 C1.61 6.57, 1.44 6.45, 1.28 6.32 C1.12 6.18, 0.97 6.03, 0.84 5.88 C0.7 5.72, 0.58 5.54, 0.48 5.36 C0.38 5.19, 0.29 4.99, 0.22 4.8 C0.14 4.61, 0.09 4.4, 0.05 4.2 C0.02 3.99, 0 3.78, 0 3.58 C0 3.37, 0.02 3.16, 0.05 2.96 C0.09 2.75, 0.14 2.55, 0.22 2.35 C0.29 2.16, 0.38 1.97, 0.48 1.79 C0.58 1.61, 0.7 1.44, 0.84 1.28 C0.97 1.12, 1.12 0.97, 1.28 0.84 C1.44 0.7, 1.61 0.58, 1.79 0.48 C1.97 0.38, 2.16 0.29, 2.35 0.22 C2.55 0.14, 2.75 0.09, 2.96 0.05 C3.16 0.02, 3.37 0, 3.58 0 C3.78 0, 3.99 0.02, 4.2 0.05 C4.4 0.09, 4.61 0.14, 4.8 0.22 C4.99 0.29, 5.19 0.38, 5.36 0.48 C5.54 0.58, 5.72 0.7, 5.88 0.84 C6.03 0.97, 6.18 1.12, 6.32 1.28 C6.45 1.44, 6.57 1.61, 6.67 1.79 C6.78 1.97, 6.87 2.16, 6.94 2.35 C7.01 2.55, 7.06 2.75, 7.1 2.96 C7.13 3.16, 7.14 3.47, 7.15 3.58 C7.16 3.68, 7.16 3.47, 7.15 3.58" stroke="none" stroke-width="0" fill="#ffffff"></path><path d="M7.15 3.58 C7.15 3.78, 7.13 3.99, 7.1 4.2 C7.06 4.4, 7.01 4.61, 6.94 4.8 C6.87 4.99, 6.78 5.19, 6.67 5.36 C6.57 5.54, 6.45 5.72, 6.32 5.88 C6.18 6.03, 6.03 6.18, 5.88 6.32 C5.72 6.45, 5.54 6.57, 5.36 6.67 C5.19 6.78, 4.99 6.87, 4.8 6.94 C4.61 7.01, 4.4 7.06, 4.2 7.1 C3.99 7.13, 3.78 7.15, 3.58 7.15 C3.37 7.15, 3.16 7.13, 2.96 7.1 C2.75 7.06, 2.55 7.01, 2.35 6.94 C2.16 6.87, 1.97 6.78, 1.79 6.67 C1.61 6.57, 1.44 6.45, 1.28 6.32 C1.12 6.18, 0.97 6.03, 0.84 5.88 C0.7 5.72, 0.58 5.54, 0.48 5.36 C0.38 5.19, 0.29 4.99, 0.22 4.8 C0.14 4.61, 0.09 4.4, 0.05 4.2 C0.02 3.99, 0 3.78, 0 3.58 C0 3.37, 0.02 3.16, 0.05 2.96 C0.09 2.75, 0.14 2.55, 0.22 2.35 C0.29 2.16, 0.38 1.97, 0.48 1.79 C0.58 1.61, 0.7 1.44, 0.84 1.28 C0.97 1.12, 1.12 0.97, 1.28 0.84 C1.44 0.7, 1.61 0.58, 1.79 0.48 C1.97 0.38, 2.16 0.29, 2.35 0.22 C2.55 0.14, 2.75 0.09, 2.96 0.05 C3.16 0.02, 3.37 0, 3.58 0 C3.78 0, 3.99 0.02, 4.2 0.05 C4.4 0.09, 4.61 0.14, 4.8 0.22 C4.99 0.29, 5.19 0.38, 5.36 0.48 C5.54 0.58, 5.72 0.7, 5.88 0.84 C6.03 0.97, 6.18 1.12, 6.32 1.28 C6.45 1.44, 6.57 1.61, 6.67 1.79 C6.78 1.97, 6.87 2.16, 6.94 2.35 C7.01 2.55, 7.06 2.75, 7.1 2.96 C7.13 3.16, 7.14 3.47, 7.15 3.58 C7.16 3.68, 7.16 3.47, 7.15 3.58" stroke="#1e1e1e" stroke-width="2" fill="none"></path></g><g stroke-linecap="round" transform="translate(110.9659251051446 10.520214320506511) rotate(0 3.576473453482663 3.576473453482663)"><path d="M7.15 3.58 C7.15 3.78, 7.13 3.99, 7.1 4.2 C7.06 4.4, 7.01 4.61, 6.94 4.8 C6.87 4.99, 6.78 5.19, 6.67 5.36 C6.57 5.54, 6.45 5.72, 6.32 5.88 C6.18 6.03, 6.03 6.18, 5.88 6.32 C5.72 6.45, 5.54 6.57, 5.36 6.67 C5.19 6.78, 4.99 6.87, 4.8 6.94 C4.61 7.01, 4.4 7.06, 4.2 7.1 C3.99 7.13, 3.78 7.15, 3.58 7.15 C3.37 7.15, 3.16 7.13, 2.96 7.1 C2.75 7.06, 2.55 7.01, 2.35 6.94 C2.16 6.87, 1.97 6.78, 1.79 6.67 C1.61 6.57, 1.44 6.45, 1.28 6.32 C1.12 6.18, 0.97 6.03, 0.84 5.88 C0.7 5.72, 0.58 5.54, 0.48 5.36 C0.38 5.19, 0.29 4.99, 0.22 4.8 C0.14 4.61, 0.09 4.4, 0.05 4.2 C0.02 3.99, 0 3.78, 0 3.58 C0 3.37, 0.02 3.16, 0.05 2.96 C0.09 2.75, 0.14 2.55, 0.22 2.35 C0.29 2.16, 0.38 1.97, 0.48 1.79 C0.58 1.61, 0.7 1.44, 0.84 1.28 C0.97 1.12, 1.12 0.97, 1.28 0.84 C1.44 0.7, 1.61 0.58, 1.79 0.48 C1.97 0.38, 2.16 0.29, 2.35 0.22 C2.55 0.14, 2.75 0.09, 2.96 0.05 C3.16 0.02, 3.37 0, 3.58 0 C3.78 0, 3.99 0.02, 4.2 0.05 C4.4 0.09, 4.61 0.14, 4.8 0.22 C4.99 0.29, 5.19 0.38, 5.36 0.48 C5.54 0.58, 5.72 0.7, 5.88 0.84 C6.03 0.97, 6.18 1.12, 6.32 1.28 C6.45 1.44, 6.57 1.61, 6.67 1.79 C6.78 1.97, 6.87 2.16, 6.94 2.35 C7.01 2.55, 7.06 2.75, 7.1 2.96 C7.13 3.16, 7.14 3.47, 7.15 3.58 C7.16 3.68, 7.16 3.47, 7.15 3.58" stroke="none" stroke-width="0" fill="#ffffff"></path><path d="M7.15 3.58 C7.15 3.78, 7.13 3.99, 7.1 4.2 C7.06 4.4, 7.01 4.61, 6.94 4.8 C6.87 4.99, 6.78 5.19, 6.67 5.36 C6.57 5.54, 6.45 5.72, 6.32 5.88 C6.18 6.03, 6.03 6.18, 5.88 6.32 C5.72 6.45, 5.54 6.57, 5.36 6.67 C5.19 6.78, 4.99 6.87, 4.8 6.94 C4.61 7.01, 4.4 7.06, 4.2 7.1 C3.99 7.13, 3.78 7.15, 3.58 7.15 C3.37 7.15, 3.16 7.13, 2.96 7.1 C2.75 7.06, 2.55 7.01, 2.35 6.94 C2.16 6.87, 1.97 6.78, 1.79 6.67 C1.61 6.57, 1.44 6.45, 1.28 6.32 C1.12 6.18, 0.97 6.03, 0.84 5.88 C0.7 5.72, 0.58 5.54, 0.48 5.36 C0.38 5.19, 0.29 4.99, 0.22 4.8 C0.14 4.61, 0.09 4.4, 0.05 4.2 C0.02 3.99, 0 3.78, 0 3.58 C0 3.37, 0.02 3.16, 0.05 2.96 C0.09 2.75, 0.14 2.55, 0.22 2.35 C0.29 2.16, 0.38 1.97, 0.48 1.79 C0.58 1.61, 0.7 1.44, 0.84 1.28 C0.97 1.12, 1.12 0.97, 1.28 0.84 C1.44 0.7, 1.61 0.58, 1.79 0.48 C1.97 0.38, 2.16 0.29, 2.35 0.22 C2.55 0.14, 2.75 0.09, 2.96 0.05 C3.16 0.02, 3.37 0, 3.58 0 C3.78 0, 3.99 0.02, 4.2 0.05 C4.4 0.09, 4.61 0.14, 4.8 0.22 C4.99 0.29, 5.19 0.38, 5.36 0.48 C5.54 0.58, 5.72 0.7, 5.88 0.84 C6.03 0.97, 6.18 1.12, 6.32 1.28 C6.45 1.44, 6.57 1.61, 6.67 1.79 C6.78 1.97, 6.87 2.16, 6.94 2.35 C7.01 2.55, 7.06 2.75, 7.1 2.96 C7.13 3.16, 7.14 3.47, 7.15 3.58 C7.16 3.68, 7.16 3.47, 7.15 3.58" stroke="#1e1e1e" stroke-width="2" fill="none"></path></g><g stroke-linecap="round" transform="translate(180.674644053026 10.520214320506511) rotate(0 3.576473453482663 3.576473453482663)"><path d="M7.15 3.58 C7.15 3.78, 7.13 3.99, 7.1 4.2 C7.06 4.4, 7.01 4.61, 6.94 4.8 C6.87 4.99, 6.78 5.19, 6.67 5.36 C6.57 5.54, 6.45 5.72, 6.32 5.88 C6.18 6.03, 6.03 6.18, 5.88 6.32 C5.72 6.45, 5.54 6.57, 5.36 6.67 C5.19 6.78, 4.99 6.87, 4.8 6.94 C4.61 7.01, 4.4 7.06, 4.2 7.1 C3.99 7.13, 3.78 7.15, 3.58 7.15 C3.37 7.15, 3.16 7.13, 2.96 7.1 C2.75 7.06, 2.55 7.01, 2.35 6.94 C2.16 6.87, 1.97 6.78, 1.79 6.67 C1.61 6.57, 1.44 6.45, 1.28 6.32 C1.12 6.18, 0.97 6.03, 0.84 5.88 C0.7 5.72, 0.58 5.54, 0.48 5.36 C0.38 5.19, 0.29 4.99, 0.22 4.8 C0.14 4.61, 0.09 4.4, 0.05 4.2 C0.02 3.99, 0 3.78, 0 3.58 C0 3.37, 0.02 3.16, 0.05 2.96 C0.09 2.75, 0.14 2.55, 0.22 2.35 C0.29 2.16, 0.38 1.97, 0.48 1.79 C0.58 1.61, 0.7 1.44, 0.84 1.28 C0.97 1.12, 1.12 0.97, 1.28 0.84 C1.44 0.7, 1.61 0.58, 1.79 0.48 C1.97 0.38, 2.16 0.29, 2.35 0.22 C2.55 0.14, 2.75 0.09, 2.96 0.05 C3.16 0.02, 3.37 0, 3.58 0 C3.78 0, 3.99 0.02, 4.2 0.05 C4.4 0.09, 4.61 0.14, 4.8 0.22 C4.99 0.29, 5.19 0.38, 5.36 0.48 C5.54 0.58, 5.72 0.7, 5.88 0.84 C6.03 0.97, 6.18 1.12, 6.32 1.28 C6.45 1.44, 6.57 1.61, 6.67 1.79 C6.78 1.97, 6.87 2.16, 6.94 2.35 C7.01 2.55, 7.06 2.75, 7.1 2.96 C7.13 3.16, 7.14 3.47, 7.15 3.58 C7.16 3.68, 7.16 3.47, 7.15 3.58" stroke="none" stroke-width="0" fill="#ffffff"></path><path d="M7.15 3.58 C7.15 3.78, 7.13 3.99, 7.1 4.2 C7.06 4.4, 7.01 4.61, 6.94 4.8 C6.87 4.99, 6.78 5.19, 6.67 5.36 C6.57 5.54, 6.45 5.72, 6.32 5.88 C6.18 6.03, 6.03 6.18, 5.88 6.32 C5.72 6.45, 5.54 6.57, 5.36 6.67 C5.19 6.78, 4.99 6.87, 4.8 6.94 C4.61 7.01, 4.4 7.06, 4.2 7.1 C3.99 7.13, 3.78 7.15, 3.58 7.15 C3.37 7.15, 3.16 7.13, 2.96 7.1 C2.75 7.06, 2.55 7.01, 2.35 6.94 C2.16 6.87, 1.97 6.78, 1.79 6.67 C1.61 6.57, 1.44 6.45, 1.28 6.32 C1.12 6.18, 0.97 6.03, 0.84 5.88 C0.7 5.72, 0.58 5.54, 0.48 5.36 C0.38 5.19, 0.29 4.99, 0.22 4.8 C0.14 4.61, 0.09 4.4, 0.05 4.2 C0.02 3.99, 0 3.78, 0 3.58 C0 3.37, 0.02 3.16, 0.05 2.96 C0.09 2.75, 0.14 2.55, 0.22 2.35 C0.29 2.16, 0.38 1.97, 0.48 1.79 C0.58 1.61, 0.7 1.44, 0.84 1.28 C0.97 1.12, 1.12 0.97, 1.28 0.84 C1.44 0.7, 1.61 0.58, 1.79 0.48 C1.97 0.38, 2.16 0.29, 2.35 0.22 C2.55 0.14, 2.75 0.09, 2.96 0.05 C3.16 0.02, 3.37 0, 3.58 0 C3.78 0, 3.99 0.02, 4.2 0.05 C4.4 0.09, 4.61 0.14, 4.8 0.22 C4.99 0.29, 5.19 0.38, 5.36 0.48 C5.54 0.58, 5.72 0.7, 5.88 0.84 C6.03 0.97, 6.18 1.12, 6.32 1.28 C6.45 1.44, 6.57 1.61, 6.67 1.79 C6.78 1.97, 6.87 2.16, 6.94 2.35 C7.01 2.55, 7.06 2.75, 7.1 2.96 C7.13 3.16, 7.14 3.47, 7.15 3.58 C7.16 3.68, 7.16 3.47, 7.15 3.58" stroke="#1e1e1e" stroke-width="2" fill="none"></path></g><g stroke-linecap="round" transform="translate(239.97907659077555 10.520214320506511) rotate(0 3.576473453482663 3.576473453482663)"><path d="M7.15 3.58 C7.15 3.78, 7.13 3.99, 7.1 4.2 C7.06 4.4, 7.01 4.61, 6.94 4.8 C6.87 4.99, 6.78 5.19, 6.67 5.36 C6.57 5.54, 6.45 5.72, 6.32 5.88 C6.18 6.03, 6.03 6.18, 5.88 6.32 C5.72 6.45, 5.54 6.57, 5.36 6.67 C5.19 6.78, 4.99 6.87, 4.8 6.94 C4.61 7.01, 4.4 7.06, 4.2 7.1 C3.99 7.13, 3.78 7.15, 3.58 7.15 C3.37 7.15, 3.16 7.13, 2.96 7.1 C2.75 7.06, 2.55 7.01, 2.35 6.94 C2.16 6.87, 1.97 6.78, 1.79 6.67 C1.61 6.57, 1.44 6.45, 1.28 6.32 C1.12 6.18, 0.97 6.03, 0.84 5.88 C0.7 5.72, 0.58 5.54, 0.48 5.36 C0.38 5.19, 0.29 4.99, 0.22 4.8 C0.14 4.61, 0.09 4.4, 0.05 4.2 C0.02 3.99, 0 3.78, 0 3.58 C0 3.37, 0.02 3.16, 0.05 2.96 C0.09 2.75, 0.14 2.55, 0.22 2.35 C0.29 2.16, 0.38 1.97, 0.48 1.79 C0.58 1.61, 0.7 1.44, 0.84 1.28 C0.97 1.12, 1.12 0.97, 1.28 0.84 C1.44 0.7, 1.61 0.58, 1.79 0.48 C1.97 0.38, 2.16 0.29, 2.35 0.22 C2.55 0.14, 2.75 0.09, 2.96 0.05 C3.16 0.02, 3.37 0, 3.58 0 C3.78 0, 3.99 0.02, 4.2 0.05 C4.4 0.09, 4.61 0.14, 4.8 0.22 C4.99 0.29, 5.19 0.38, 5.36 0.48 C5.54 0.58, 5.72 0.7, 5.88 0.84 C6.03 0.97, 6.18 1.12, 6.32 1.28 C6.45 1.44, 6.57 1.61, 6.67 1.79 C6.78 1.97, 6.87 2.16, 6.94 2.35 C7.01 2.55, 7.06 2.75, 7.1 2.96 C7.13 3.16, 7.14 3.47, 7.15 3.58 C7.16 3.68, 7.16 3.47, 7.15 3.58" stroke="none" stroke-width="0" fill="#1e1e1e"></path><path d="M7.15 3.58 C7.15 3.78, 7.13 3.99, 7.1 4.2 C7.06 4.4, 7.01 4.61, 6.94 4.8 C6.87 4.99, 6.78 5.19, 6.67 5.36 C6.57 5.54, 6.45 5.72, 6.32 5.88 C6.18 6.03, 6.03 6.18, 5.88 6.32 C5.72 6.45, 5.54 6.57, 5.36 6.67 C5.19 6.78, 4.99 6.87, 4.8 6.94 C4.61 7.01, 4.4 7.06, 4.2 7.1 C3.99 7.13, 3.78 7.15, 3.58 7.15 C3.37 7.15, 3.16 7.13, 2.96 7.1 C2.75 7.06, 2.55 7.01, 2.35 6.94 C2.16 6.87, 1.97 6.78, 1.79 6.67 C1.61 6.57, 1.44 6.45, 1.28 6.32 C1.12 6.18, 0.97 6.03, 0.84 5.88 C0.7 5.72, 0.58 5.54, 0.48 5.36 C0.38 5.19, 0.29 4.99, 0.22 4.8 C0.14 4.61, 0.09 4.4, 0.05 4.2 C0.02 3.99, 0 3.78, 0 3.58 C0 3.37, 0.02 3.16, 0.05 2.96 C0.09 2.75, 0.14 2.55, 0.22 2.35 C0.29 2.16, 0.38 1.97, 0.48 1.79 C0.58 1.61, 0.7 1.44, 0.84 1.28 C0.97 1.12, 1.12 0.97, 1.28 0.84 C1.44 0.7, 1.61 0.58, 1.79 0.48 C1.97 0.38, 2.16 0.29, 2.35 0.22 C2.55 0.14, 2.75 0.09, 2.96 0.05 C3.16 0.02, 3.37 0, 3.58 0 C3.78 0, 3.99 0.02, 4.2 0.05 C4.4 0.09, 4.61 0.14, 4.8 0.22 C4.99 0.29, 5.19 0.38, 5.36 0.48 C5.54 0.58, 5.72 0.7, 5.88 0.84 C6.03 0.97, 6.18 1.12, 6.32 1.28 C6.45 1.44, 6.57 1.61, 6.67 1.79 C6.78 1.97, 6.87 2.16, 6.94 2.35 C7.01 2.55, 7.06 2.75, 7.1 2.96 C7.13 3.16, 7.14 3.47, 7.15 3.58 C7.16 3.68, 7.16 3.47, 7.15 3.58" stroke="#1e1e1e" stroke-width="1" fill="none"></path></g></svg>
