<svg version="1.1" xmlns="http://www.w3.org/2000/svg" viewBox="0 0 296.249426537015 172.9858628744878" width="296.249426537015" height="172.9858628744878">
  <!-- svg-source:excalidraw -->
  
  <defs>
    <style class="style-fonts">
      @font-face {
        font-family: "Virgil";
        src: url("https://excalidraw.com/Virgil.woff2");
      }
      @font-face {
        font-family: "Cascadia";
        src: url("https://excalidraw.com/Cascadia.woff2");
      }
    </style>
    
  </defs>
  <rect x="0" y="0" width="296.249426537015" height="172.9858628744878" fill="#ffffff"></rect><g stroke-linecap="round" transform="translate(16.72794511780353 75.72274184706225) rotate(0 50.12319112763669 40.70406796271163)"><path d="M20.35 0 C37.93 0, 55.51 0, 79.89 0 C93.46 0, 100.25 6.78, 100.25 20.35 C100.25 28.83, 100.25 37.3, 100.25 61.06 C100.25 74.62, 93.46 81.41, 79.89 81.41 C56.18 81.41, 32.46 81.41, 20.35 81.41 C6.78 81.41, 0 74.62, 0 61.06 C0 48.72, 0 36.38, 0 20.35 C0 6.78, 6.78 0, 20.35 0" stroke="none" stroke-width="0" fill="#ffffff"></path><path d="M20.35 0 C38.95 0, 57.54 0, 79.89 0 M20.35 0 C35.12 0, 49.89 0, 79.89 0 M79.89 0 C93.46 0, 100.25 6.78, 100.25 20.35 M79.89 0 C93.46 0, 100.25 6.78, 100.25 20.35 M100.25 20.35 C100.25 36.24, 100.25 52.12, 100.25 61.06 M100.25 20.35 C100.25 34.58, 100.25 48.81, 100.25 61.06 M100.25 61.06 C100.25 74.62, 93.46 81.41, 79.89 81.41 M100.25 61.06 C100.25 74.62, 93.46 81.41, 79.89 81.41 M79.89 81.41 C65.48 81.41, 51.07 81.41, 20.35 81.41 M79.89 81.41 C56.08 81.41, 32.26 81.41, 20.35 81.41 M20.35 81.41 C6.78 81.41, 0 74.62, 0 61.06 M20.35 81.41 C6.78 81.41, 0 74.62, 0 61.06 M0 61.06 C0 47.36, 0 33.66, 0 20.35 M0 61.06 C0 52.1, 0 43.14, 0 20.35 M0 20.35 C0 6.78, 6.78 0, 20.35 0 M0 20.35 C0 6.78, 6.78 0, 20.35 0" stroke="#1e1e1e" stroke-width="1" fill="none"></path></g><g stroke-linecap="round" transform="translate(167.50119520778185 75.45362404235016) rotate(0 56.17834173365992 41.376862474491986)"><path d="M20.69 0 C35.69 0, 50.69 0, 91.67 0 C105.46 0, 112.36 6.9, 112.36 20.69 C112.36 35.01, 112.36 49.33, 112.36 62.07 C112.36 75.86, 105.46 82.75, 91.67 82.75 C64.62 82.75, 37.58 82.75, 20.69 82.75 C6.9 82.75, 0 75.86, 0 62.07 C0 46.31, 0 30.55, 0 20.69 C0 6.9, 6.9 0, 20.69 0" stroke="none" stroke-width="0" fill="#ffffff"></path><path d="M20.69 0 C45.42 0, 70.15 0, 91.67 0 M20.69 0 C36.73 0, 52.78 0, 91.67 0 M91.67 0 C105.46 0, 112.36 6.9, 112.36 20.69 M91.67 0 C105.46 0, 112.36 6.9, 112.36 20.69 M112.36 20.69 C112.36 35.63, 112.36 50.57, 112.36 62.07 M112.36 20.69 C112.36 30.2, 112.36 39.72, 112.36 62.07 M112.36 62.07 C112.36 75.86, 105.46 82.75, 91.67 82.75 M112.36 62.07 C112.36 75.86, 105.46 82.75, 91.67 82.75 M91.67 82.75 C73.01 82.75, 54.34 82.75, 20.69 82.75 M91.67 82.75 C63.34 82.75, 35.01 82.75, 20.69 82.75 M20.69 82.75 C6.9 82.75, 0 75.86, 0 62.07 M20.69 82.75 C6.9 82.75, 0 75.86, 0 62.07 M0 62.07 C0 47.36, 0 32.66, 0 20.69 M0 62.07 C0 51.73, 0 41.39, 0 20.69 M0 20.69 C0 6.9, 6.9 0, 20.69 0 M0 20.69 C0 6.9, 6.9 0, 20.69 0" stroke="#1e1e1e" stroke-width="1" fill="none"></path></g><g stroke-linecap="round" transform="translate(87.97688391534348 49.48375588762838) rotate(0 56.17834173365986 53.48716368653845)"><path d="M26.74 0 C45.04 0, 63.34 0, 85.61 0 C103.44 0, 112.36 8.91, 112.36 26.74 C112.36 41.34, 112.36 55.94, 112.36 80.23 C112.36 98.06, 103.44 106.97, 85.61 106.97 C65.14 106.97, 44.66 106.97, 26.74 106.97 C8.91 106.97, 0 98.06, 0 80.23 C0 62.57, 0 44.91, 0 26.74 C0 8.91, 8.91 0, 26.74 0" stroke="none" stroke-width="0" fill="#ffffff"></path><path d="M26.74 0 C45.53 0, 64.31 0, 85.61 0 M26.74 0 C46.65 0, 66.56 0, 85.61 0 M85.61 0 C103.44 0, 112.36 8.91, 112.36 26.74 M85.61 0 C103.44 0, 112.36 8.91, 112.36 26.74 M112.36 26.74 C112.36 39.49, 112.36 52.23, 112.36 80.23 M112.36 26.74 C112.36 40.4, 112.36 54.07, 112.36 80.23 M112.36 80.23 C112.36 98.06, 103.44 106.97, 85.61 106.97 M112.36 80.23 C112.36 98.06, 103.44 106.97, 85.61 106.97 M85.61 106.97 C62.97 106.97, 40.33 106.97, 26.74 106.97 M85.61 106.97 C67.02 106.97, 48.42 106.97, 26.74 106.97 M26.74 106.97 C8.91 106.97, 0 98.06, 0 80.23 M26.74 106.97 C8.91 106.97, 0 98.06, 0 80.23 M0 80.23 C0 66.93, 0 53.63, 0 26.74 M0 80.23 C0 65.51, 0 50.79, 0 26.74 M0 26.74 C0 8.91, 8.91 0, 26.74 0 M0 26.74 C0 8.91, 8.91 0, 26.74 0" stroke="#1e1e1e" stroke-width="1" fill="none"></path></g><g stroke-linecap="round" transform="translate(10 140.78364398573603) rotate(0 137.9228749149733 11.10110944437588)"><path d="M5.55 0 C77.81 0, 150.06 0, 270.3 0 C274 0, 275.85 1.85, 275.85 5.55 C275.85 8.56, 275.85 11.58, 275.85 16.65 C275.85 20.35, 274 22.2, 270.3 22.2 C191.86 22.2, 113.42 22.2, 5.55 22.2 C1.85 22.2, 0 20.35, 0 16.65 C0 13.81, 0 10.97, 0 5.55 C0 1.85, 1.85 0, 5.55 0" stroke="none" stroke-width="0" fill="#ffffff"></path><path d="M5.55 0 C89.42 0, 173.3 0, 270.3 0 M5.55 0 C59.15 0, 112.75 0, 270.3 0 M270.3 0 C274 0, 275.85 1.85, 275.85 5.55 M270.3 0 C274 0, 275.85 1.85, 275.85 5.55 M275.85 5.55 C275.85 9.52, 275.85 13.49, 275.85 16.65 M275.85 5.55 C275.85 9.48, 275.85 13.4, 275.85 16.65 M275.85 16.65 C275.85 20.35, 274 22.2, 270.3 22.2 M275.85 16.65 C275.85 20.35, 274 22.2, 270.3 22.2 M270.3 22.2 C202.68 22.2, 135.07 22.2, 5.55 22.2 M270.3 22.2 C212.36 22.2, 154.42 22.2, 5.55 22.2 M5.55 22.2 C1.85 22.2, 0 20.35, 0 16.65 M5.55 22.2 C1.85 22.2, 0 20.35, 0 16.65 M0 16.65 C0 13.92, 0 11.2, 0 5.55 M0 16.65 C0 12.92, 0 9.18, 0 5.55 M0 5.55 C0 1.85, 1.85 0, 5.55 0 M0 5.55 C0 1.85, 1.85 0, 5.55 0" stroke="#ffffff" stroke-width="1" fill="none"></path></g><g stroke-linecap="round" transform="translate(13.767649265970022 110.91156766268819) rotate(0 136.24088863552248 15.47427377094823)"><path d="M2.06 1.79 C2.06 1.79, 2.06 1.79, 2.06 1.79 M2.06 1.79 C2.06 1.79, 2.06 1.79, 2.06 1.79 M0.49 9.7 C3.62 6.09, 6.76 2.48, 8.36 0.64 M0.49 9.7 C2.3 7.61, 4.11 5.52, 8.36 0.64 M0.88 15.34 C4.77 10.86, 8.66 6.39, 14 0.25 M0.88 15.34 C4.96 10.64, 9.05 5.95, 14 0.25 M0.62 21.74 C7.9 13.36, 15.18 4.98, 18.99 0.61 M0.62 21.74 C5.44 16.19, 10.27 10.64, 18.99 0.61 M1.01 27.38 C8.48 18.79, 15.95 10.19, 24.63 0.21 M1.01 27.38 C6.15 21.48, 11.28 15.57, 24.63 0.21 M4.03 30.01 C13.77 18.8, 23.51 7.6, 29.62 0.57 M4.03 30.01 C10.72 22.31, 17.41 14.61, 29.62 0.57 M8.36 31.12 C17.56 20.55, 26.75 9.97, 34.61 0.93 M8.36 31.12 C13.71 24.97, 19.06 18.82, 34.61 0.93 M13.35 31.48 C22.9 20.5, 32.44 9.52, 40.25 0.54 M13.35 31.48 C22.61 20.83, 31.86 10.19, 40.25 0.54 M18.99 31.09 C24.85 24.35, 30.7 17.62, 45.24 0.9 M18.99 31.09 C25.35 23.77, 31.71 16.46, 45.24 0.9 M23.98 31.45 C29.74 24.82, 35.5 18.19, 50.88 0.5 M23.98 31.45 C31.69 22.58, 39.4 13.71, 50.88 0.5 M29.62 31.05 C38.8 20.5, 47.97 9.94, 55.87 0.86 M29.62 31.05 C36.54 23.1, 43.45 15.14, 55.87 0.86 M34.61 31.41 C43.86 20.77, 53.11 10.13, 61.51 0.47 M34.61 31.41 C43.35 21.36, 52.09 11.3, 61.51 0.47 M40.25 31.02 C49.06 20.88, 57.87 10.75, 66.5 0.83 M40.25 31.02 C49.65 20.21, 59.05 9.4, 66.5 0.83 M45.24 31.38 C51.16 24.57, 57.07 17.77, 72.14 0.43 M45.24 31.38 C54.76 20.43, 64.28 9.47, 72.14 0.43 M50.88 30.98 C60.8 19.58, 70.71 8.17, 77.13 0.79 M50.88 30.98 C60.74 19.64, 70.6 8.3, 77.13 0.79 M55.87 31.34 C61.49 24.88, 67.11 18.41, 82.77 0.4 M55.87 31.34 C64.7 21.19, 73.52 11.04, 82.77 0.4 M60.86 31.7 C67.92 23.58, 74.99 15.45, 87.76 0.76 M60.86 31.7 C69.61 21.63, 78.37 11.56, 87.76 0.76 M66.5 31.31 C76.41 19.91, 86.32 8.51, 93.4 0.37 M66.5 31.31 C73.53 23.22, 80.56 15.14, 93.4 0.37 M71.49 31.67 C81.39 20.28, 91.28 8.9, 98.39 0.73 M71.49 31.67 C81.6 20.03, 91.72 8.4, 98.39 0.73 M77.13 31.27 C83.75 23.66, 90.37 16.04, 104.03 0.33 M77.13 31.27 C83.23 24.26, 89.33 17.24, 104.03 0.33 M82.12 31.63 C89.16 23.53, 96.21 15.42, 109.02 0.69 M82.12 31.63 C88.98 23.74, 95.84 15.84, 109.02 0.69 M87.76 31.24 C95.31 22.56, 102.85 13.88, 114.66 0.3 M87.76 31.24 C97.36 20.2, 106.96 9.15, 114.66 0.3 M92.75 31.6 C100.91 22.21, 109.07 12.82, 119.65 0.66 M92.75 31.6 C99.47 23.86, 106.2 16.13, 119.65 0.66 M98.39 31.2 C103.79 24.99, 109.19 18.78, 125.29 0.26 M98.39 31.2 C104.95 23.66, 111.51 16.12, 125.29 0.26 M103.38 31.56 C109.88 24.08, 116.39 16.6, 130.28 0.62 M103.38 31.56 C108.96 25.15, 114.53 18.73, 130.28 0.62 M109.02 31.17 C115.12 24.15, 121.22 17.14, 135.92 0.23 M109.02 31.17 C118.13 20.69, 127.24 10.21, 135.92 0.23 M114.01 31.53 C119.86 24.8, 125.7 18.08, 140.91 0.59 M114.01 31.53 C122.97 21.22, 131.93 10.91, 140.91 0.59 M119.65 31.14 C126.71 23.02, 133.76 14.91, 145.89 0.95 M119.65 31.14 C128.9 20.5, 138.15 9.86, 145.89 0.95 M124.64 31.5 C134.34 20.34, 144.04 9.18, 151.54 0.55 M124.64 31.5 C135.21 19.34, 145.77 7.18, 151.54 0.55 M130.28 31.1 C138.89 21.2, 147.49 11.3, 156.52 0.91 M130.28 31.1 C136.97 23.41, 143.66 15.72, 156.52 0.91 M135.27 31.46 C145.84 19.3, 156.41 7.14, 162.17 0.52 M135.27 31.46 C143.64 21.84, 152 12.21, 162.17 0.52 M140.91 31.07 C148.68 22.13, 156.44 13.2, 167.15 0.88 M140.91 31.07 C148.14 22.75, 155.37 14.43, 167.15 0.88 M145.9 31.43 C151.99 24.42, 158.08 17.42, 172.8 0.48 M145.9 31.43 C155.91 19.91, 165.91 8.4, 172.8 0.48 M151.54 31.03 C160.85 20.32, 170.16 9.61, 177.78 0.84 M151.54 31.03 C159.5 21.88, 167.46 12.72, 177.78 0.84 M156.53 31.39 C166.3 20.15, 176.08 8.9, 183.43 0.45 M156.53 31.39 C162.43 24.61, 168.32 17.82, 183.43 0.45 M162.17 31 C172.08 19.6, 181.99 8.2, 188.41 0.81 M162.17 31 C169.68 22.36, 177.2 13.71, 188.41 0.81 M167.16 31.36 C175.16 22.16, 183.15 12.96, 194.06 0.41 M167.16 31.36 C174.03 23.45, 180.91 15.54, 194.06 0.41 M172.8 30.96 C181.41 21.06, 190.01 11.16, 199.04 0.77 M172.8 30.96 C178.89 23.96, 184.98 16.95, 199.04 0.77 M177.79 31.32 C186.18 21.67, 194.57 12.02, 204.69 0.38 M177.79 31.32 C184.33 23.8, 190.88 16.27, 204.69 0.38 M182.78 31.68 C189.77 23.64, 196.76 15.6, 209.67 0.74 M182.78 31.68 C188.36 25.26, 193.95 18.83, 209.67 0.74 M188.42 31.29 C196 22.57, 203.57 13.86, 215.32 0.35 M188.42 31.29 C196.59 21.88, 204.77 12.48, 215.32 0.35 M193.41 31.65 C201.96 21.8, 210.52 11.96, 220.3 0.71 M193.41 31.65 C202.53 21.15, 211.66 10.65, 220.3 0.71 M199.05 31.25 C206.36 22.85, 213.67 14.44, 225.95 0.31 M199.05 31.25 C207.62 21.39, 216.19 11.53, 225.95 0.31 M204.04 31.61 C213.13 21.15, 222.23 10.68, 230.93 0.67 M204.04 31.61 C209.76 25.03, 215.48 18.44, 230.93 0.67 M209.68 31.22 C218.76 20.77, 227.85 10.32, 236.58 0.28 M209.68 31.22 C218.49 21.08, 227.31 10.94, 236.58 0.28 M214.67 31.58 C221.28 23.97, 227.9 16.35, 241.56 0.64 M214.67 31.58 C222.01 23.13, 229.36 14.68, 241.56 0.64 M220.31 31.19 C229.08 21.1, 237.85 11.01, 247.21 0.24 M220.31 31.19 C229.21 20.94, 238.11 10.7, 247.21 0.24 M225.3 31.55 C232.25 23.55, 239.2 15.56, 252.19 0.6 M225.3 31.55 C231.34 24.59, 237.38 17.64, 252.19 0.6 M230.94 31.15 C238.3 22.69, 245.65 14.22, 257.84 0.21 M230.94 31.15 C238.67 22.26, 246.4 13.36, 257.84 0.21 M235.93 31.51 C243.52 22.77, 251.12 14.03, 262.82 0.57 M235.93 31.51 C242.15 24.35, 248.37 17.19, 262.82 0.57 M241.57 31.12 C247.16 24.68, 252.75 18.25, 268.47 0.17 M241.57 31.12 C250.06 21.35, 258.56 11.58, 268.47 0.17 M246.56 31.48 C254.44 22.41, 262.32 13.35, 271.49 2.8 M246.56 31.48 C254.44 22.4, 262.33 13.33, 271.49 2.8 M252.2 31.08 C259.26 22.95, 266.33 14.83, 272.54 7.69 M252.2 31.08 C258.17 24.21, 264.14 17.34, 272.54 7.69 M257.19 31.44 C261.09 26.95, 264.99 22.46, 272.93 13.33 M257.19 31.44 C262.89 24.88, 268.59 18.32, 272.93 13.33 M262.83 31.05 C265.79 27.64, 268.75 24.24, 272.67 19.73 M262.83 31.05 C265.37 28.12, 267.92 25.19, 272.67 19.73 M268.47 30.65 C269.32 29.68, 270.16 28.71, 271.75 26.88 M268.47 30.65 C269.49 29.48, 270.51 28.31, 271.75 26.88" stroke="#ffffff" stroke-width="0.5" fill="none"></path><path d="M7.74 0 C82.16 0, 156.58 0, 264.74 0 M7.74 0 C69.68 0, 131.61 0, 264.74 0 M264.74 0 C269.9 0, 272.48 2.58, 272.48 7.74 M264.74 0 C269.9 0, 272.48 2.58, 272.48 7.74 M272.48 7.74 C272.48 12.64, 272.48 17.55, 272.48 23.21 M272.48 7.74 C272.48 13.15, 272.48 18.57, 272.48 23.21 M272.48 23.21 C272.48 28.37, 269.9 30.95, 264.74 30.95 M272.48 23.21 C272.48 28.37, 269.9 30.95, 264.74 30.95 M264.74 30.95 C164.08 30.95, 63.41 30.95, 7.74 30.95 M264.74 30.95 C170.19 30.95, 75.64 30.95, 7.74 30.95 M7.74 30.95 C2.58 30.95, 0 28.37, 0 23.21 M7.74 30.95 C2.58 30.95, 0 28.37, 0 23.21 M0 23.21 C0 19.34, 0 15.46, 0 7.74 M0 23.21 C0 17.64, 0 12.08, 0 7.74 M0 7.74 C0 2.58, 2.58 0, 7.74 0 M0 7.74 C0 2.58, 2.58 0, 7.74 0" stroke="#ffffff" stroke-width="1" fill="none"></path></g><g transform="translate(125.39027684517168 55.9310278861974) rotate(0 13.924140268467283 6.727945117803529)"><text x="0" y="0" font-family="Virgil, Segoe UI Emoji" font-size="10.764712188485726px" fill="#1e1e1e" text-anchor="start" style="white-space: pre;" direction="ltr" dominant-baseline="text-before-edge">Scale</text></g><g transform="translate(98.79473149235423 80.1856957427267) rotate(0 45.62407493787265 9.577828636573258)"><text x="0" y="0" font-family="Virgil, Segoe UI Emoji" font-size="15.324525818517236px" fill="#1e1e1e" text-anchor="start" style="white-space: pre;" direction="ltr" dominant-baseline="text-before-edge">$1.500/year</text></g><g stroke-linecap="round" transform="translate(89.87956348269597 10) rotate(0 51.46878015119739 10.820141281785823)"><path d="M5.41 0 C28.85 0, 52.28 0, 97.53 0 M5.41 0 C41.23 0, 77.06 0, 97.53 0 M97.53 0 C101.13 0, 102.94 1.8, 102.94 5.41 M97.53 0 C101.13 0, 102.94 1.8, 102.94 5.41 M102.94 5.41 C102.94 9.18, 102.94 12.94, 102.94 16.23 M102.94 5.41 C102.94 9.48, 102.94 13.56, 102.94 16.23 M102.94 16.23 C102.94 19.84, 101.13 21.64, 97.53 21.64 M102.94 16.23 C102.94 19.84, 101.13 21.64, 97.53 21.64 M97.53 21.64 C68.74 21.64, 39.96 21.64, 5.41 21.64 M97.53 21.64 C74.57 21.64, 51.61 21.64, 5.41 21.64 M5.41 21.64 C1.8 21.64, 0 19.84, 0 16.23 M5.41 21.64 C1.8 21.64, 0 19.84, 0 16.23 M0 16.23 C0 13.19, 0 10.15, 0 5.41 M0 16.23 C0 12.56, 0 8.89, 0 5.41 M0 5.41 C0 1.8, 1.8 0, 5.41 0 M0 5.41 C0 1.8, 1.8 0, 5.41 0" stroke="#1e1e1e" stroke-width="1" fill="none"></path></g><g transform="translate(96.4071993254014 13.799759913123125) rotate(0 18.54219867645469 6.727945117803529)"><text x="0" y="0" font-family="Virgil, Segoe UI Emoji" font-size="10.764712188485726px" fill="#1e1e1e" text-anchor="start" style="white-space: pre;" direction="ltr" dominant-baseline="text-before-edge">monthly</text></g><g stroke-linecap="round" transform="translate(143.1029611390478 10.58487250171811) rotate(0 24.564645072162364 10.235268780067713)"><path d="M1.36 1.18 C1.36 1.18, 1.36 1.18, 1.36 1.18 M1.36 1.18 C1.36 1.18, 1.36 1.18, 1.36 1.18 M0.44 8.34 C2.36 6.13, 4.27 3.93, 7.01 0.79 M0.44 8.34 C2.55 5.92, 4.65 3.5, 7.01 0.79 M0.84 13.98 C4.91 9.3, 8.98 4.61, 12.65 0.39 M0.84 13.98 C4.85 9.37, 8.85 4.76, 12.65 0.39 M1.89 18.87 C6.87 13.14, 11.86 7.4, 17.64 0.76 M1.89 18.87 C7.28 12.67, 12.67 6.46, 17.64 0.76 M5.56 20.74 C10.97 14.52, 16.37 8.31, 22.62 1.12 M5.56 20.74 C9.24 16.52, 12.91 12.29, 22.62 1.12 M11.21 20.34 C17.57 13.02, 23.94 5.7, 28.27 0.72 M11.21 20.34 C17.76 12.81, 24.31 5.27, 28.27 0.72 M16.19 20.7 C22.39 13.58, 28.58 6.45, 33.25 1.08 M16.19 20.7 C22.77 13.14, 29.34 5.58, 33.25 1.08 M21.84 20.31 C27.71 13.55, 33.59 6.79, 38.9 0.69 M21.84 20.31 C25.83 15.71, 29.83 11.11, 38.9 0.69 M26.83 20.67 C31.72 15.04, 36.61 9.42, 43.88 1.05 M26.83 20.67 C33.53 12.95, 40.24 5.23, 43.88 1.05 M32.47 20.27 C35.66 16.6, 38.86 12.92, 48.21 2.16 M32.47 20.27 C37.84 14.09, 43.22 7.91, 48.21 2.16 M37.46 20.63 C40.58 17.03, 43.71 13.44, 48.61 7.8 M37.46 20.63 C41.27 16.25, 45.08 11.86, 48.61 7.8 M42.44 20.99 C43.84 19.39, 45.23 17.79, 49 13.45 M42.44 20.99 C43.84 19.39, 45.23 17.78, 49 13.45 M2.58 19.89 C2.58 19.89, 2.58 19.89, 2.58 19.89 M2.58 19.89 C2.58 19.89, 2.58 19.89, 2.58 19.89 M8.98 20.15 C6.27 17.8, 3.55 15.44, 0.68 12.94 M8.98 20.15 C7.19 18.6, 5.4 17.04, 0.68 12.94 M15.38 20.42 C12.28 17.72, 9.19 15.03, 0.28 7.29 M15.38 20.42 C11.31 16.88, 7.24 13.34, 0.28 7.29 M21.02 20.02 C13.34 13.35, 5.67 6.67, 1.4 2.96 M21.02 20.02 C13.64 13.61, 6.27 7.2, 1.4 2.96 M27.42 20.28 C20.98 14.68, 14.53 9.08, 4.02 -0.05 M27.42 20.28 C21.54 15.17, 15.65 10.06, 4.02 -0.05 M33.82 20.54 C25.59 13.39, 17.36 6.24, 9.67 -0.45 M33.82 20.54 C24.65 12.57, 15.48 4.6, 9.67 -0.45 M39.46 20.15 C32.56 14.15, 25.65 8.15, 16.06 -0.19 M39.46 20.15 C30.59 12.44, 21.72 4.73, 16.06 -0.19 M45.1 19.76 C40.54 15.79, 35.98 11.82, 22.46 0.07 M45.1 19.76 C36.68 12.44, 28.27 5.12, 22.46 0.07 M49.24 18.05 C44.79 14.18, 40.34 10.32, 28.1 -0.32 M49.24 18.05 C41.79 11.57, 34.34 5.1, 28.1 -0.32 M49.6 13.06 C45.22 9.25, 40.84 5.45, 34.5 -0.06 M49.6 13.06 C44.21 8.38, 38.82 3.7, 34.5 -0.06 M49.2 7.42 C46.23 4.83, 43.25 2.24, 40.9 0.2 M49.2 7.42 C47.29 5.75, 45.37 4.09, 40.9 0.2" stroke="#ffec99" stroke-width="0.5" fill="none"></path><path d="M5.12 0 C16.74 0, 28.36 0, 44.01 0 M5.12 0 C18.12 0, 31.12 0, 44.01 0 M44.01 0 C47.42 0, 49.13 1.71, 49.13 5.12 M44.01 0 C47.42 0, 49.13 1.71, 49.13 5.12 M49.13 5.12 C49.13 9.01, 49.13 12.9, 49.13 15.35 M49.13 5.12 C49.13 8.88, 49.13 12.64, 49.13 15.35 M49.13 15.35 C49.13 18.76, 47.42 20.47, 44.01 20.47 M49.13 15.35 C49.13 18.76, 47.42 20.47, 44.01 20.47 M44.01 20.47 C35.43 20.47, 26.85 20.47, 5.12 20.47 M44.01 20.47 C32.52 20.47, 21.02 20.47, 5.12 20.47 M5.12 20.47 C1.71 20.47, 0 18.76, 0 15.35 M5.12 20.47 C1.71 20.47, 0 18.76, 0 15.35 M0 15.35 C0 12.55, 0 9.74, 0 5.12 M0 15.35 C0 12.43, 0 9.5, 0 5.12 M0 5.12 C0 1.71, 1.71 0, 5.12 0 M0 5.12 C0 1.71, 1.71 0, 5.12 0" stroke="#1e1e1e" stroke-width="1" fill="none"></path></g><g transform="translate(154.70684728016124 13.565810912435836) rotate(0 15.312785019908972 6.727945117803529)"><text x="0" y="0" font-family="Virgil, Segoe UI Emoji" font-size="10.764712188485726px" fill="#1e1e1e" text-anchor="start" style="white-space: pre;" direction="ltr" dominant-baseline="text-before-edge">yearly</text></g></svg>
