<svg version="1.1" xmlns="http://www.w3.org/2000/svg" viewBox="0 0 288.25000000000045 164.86992111905215" width="288.25000000000045" height="164.86992111905215">
  <!-- svg-source:excalidraw -->
  
  <defs>
    <style class="style-fonts">
      @font-face {
        font-family: "Virgil";
        src: url("https://excalidraw.com/Virgil.woff2");
      }
      @font-face {
        font-family: "Cascadia";
        src: url("https://excalidraw.com/Cascadia.woff2");
      }
    </style>
    
  </defs>
  <rect x="0" y="0" width="288.25000000000045" height="164.86992111905215" fill="#ffffff"></rect><g stroke-linecap="round" transform="translate(16.53312226010712 70.13370099708754) rotate(0 48.6717608377985 39.525389673648306)"><path d="M19.76 0 C40.87 0, 61.97 0, 77.58 0 C90.76 0, 97.34 6.59, 97.34 19.76 C97.34 30.29, 97.34 40.81, 97.34 59.29 C97.34 72.46, 90.76 79.05, 77.58 79.05 C55.64 79.05, 33.7 79.05, 19.76 79.05 C6.59 79.05, 0 72.46, 0 59.29 C0 45.07, 0 30.86, 0 19.76 C0 6.59, 6.59 0, 19.76 0" stroke="none" stroke-width="0" fill="#ffffff"></path><path d="M19.76 0 C37.96 0, 56.15 0, 77.58 0 M19.76 0 C40.45 0, 61.14 0, 77.58 0 M77.58 0 C90.76 0, 97.34 6.59, 97.34 19.76 M77.58 0 C90.76 0, 97.34 6.59, 97.34 19.76 M97.34 19.76 C97.34 32.42, 97.34 45.08, 97.34 59.29 M97.34 19.76 C97.34 29.02, 97.34 38.27, 97.34 59.29 M97.34 59.29 C97.34 72.46, 90.76 79.05, 77.58 79.05 M97.34 59.29 C97.34 72.46, 90.76 79.05, 77.58 79.05 M77.58 79.05 C56.6 79.05, 35.63 79.05, 19.76 79.05 M77.58 79.05 C56.01 79.05, 34.45 79.05, 19.76 79.05 M19.76 79.05 C6.59 79.05, 0 72.46, 0 59.29 M19.76 79.05 C6.59 79.05, 0 72.46, 0 59.29 M0 59.29 C0 48.3, 0 37.31, 0 19.76 M0 59.29 C0 49.52, 0 39.75, 0 19.76 M0 19.76 C0 6.59, 6.59 0, 19.76 0 M0 19.76 C0 6.59, 6.59 0, 19.76 0" stroke="#1e1e1e" stroke-width="1" fill="none"></path></g><g stroke-linecap="round" transform="translate(162.94039210910887 69.87237610668308) rotate(0 54.55157087189491 40.17870189965902)"><path d="M20.09 0 C43.33 0, 66.58 0, 89.01 0 C102.41 0, 109.1 6.7, 109.1 20.09 C109.1 31.07, 109.1 42.05, 109.1 60.27 C109.1 73.66, 102.41 80.36, 89.01 80.36 C66.03 80.36, 43.04 80.36, 20.09 80.36 C6.7 80.36, 0 73.66, 0 60.27 C0 47.38, 0 34.49, 0 20.09 C0 6.7, 6.7 0, 20.09 0" stroke="none" stroke-width="0" fill="#ffffff"></path><path d="M20.09 0 C42.77 0, 65.46 0, 89.01 0 M20.09 0 C45.66 0, 71.23 0, 89.01 0 M89.01 0 C102.41 0, 109.1 6.7, 109.1 20.09 M89.01 0 C102.41 0, 109.1 6.7, 109.1 20.09 M109.1 20.09 C109.1 34.55, 109.1 49, 109.1 60.27 M109.1 20.09 C109.1 32.44, 109.1 44.8, 109.1 60.27 M109.1 60.27 C109.1 73.66, 102.41 80.36, 89.01 80.36 M109.1 60.27 C109.1 73.66, 102.41 80.36, 89.01 80.36 M89.01 80.36 C70.82 80.36, 52.64 80.36, 20.09 80.36 M89.01 80.36 C66.02 80.36, 43.03 80.36, 20.09 80.36 M20.09 80.36 C6.7 80.36, 0 73.66, 0 60.27 M20.09 80.36 C6.7 80.36, 0 73.66, 0 60.27 M0 60.27 C0 48.55, 0 36.84, 0 20.09 M0 60.27 C0 51.04, 0 41.82, 0 20.09 M0 20.09 C0 6.7, 6.7 0, 20.09 0 M0 20.09 C0 6.7, 6.7 0, 20.09 0" stroke="#1e1e1e" stroke-width="1" fill="none"></path></g><g stroke-linecap="round" transform="translate(85.71888699464216 44.654524182669775) rotate(0 54.55157087189491 51.93832196785195)"><path d="M25.97 0 C46.24 0, 66.51 0, 83.13 0 C100.45 0, 109.1 8.66, 109.1 25.97 C109.1 45.9, 109.1 65.84, 109.1 77.91 C109.1 95.22, 100.45 103.88, 83.13 103.88 C68.12 103.88, 53.1 103.88, 25.97 103.88 C8.66 103.88, 0 95.22, 0 77.91 C0 61.58, 0 45.25, 0 25.97 C0 8.66, 8.66 0, 25.97 0" stroke="none" stroke-width="0" fill="#ffffff"></path><path d="M25.97 0 C44.35 0, 62.73 0, 83.13 0 M25.97 0 C41.59 0, 57.21 0, 83.13 0 M83.13 0 C100.45 0, 109.1 8.66, 109.1 25.97 M83.13 0 C100.45 0, 109.1 8.66, 109.1 25.97 M109.1 25.97 C109.1 45.38, 109.1 64.78, 109.1 77.91 M109.1 25.97 C109.1 40.35, 109.1 54.73, 109.1 77.91 M109.1 77.91 C109.1 95.22, 100.45 103.88, 83.13 103.88 M109.1 77.91 C109.1 95.22, 100.45 103.88, 83.13 103.88 M83.13 103.88 C68.64 103.88, 54.15 103.88, 25.97 103.88 M83.13 103.88 C69.14 103.88, 55.14 103.88, 25.97 103.88 M25.97 103.88 C8.66 103.88, 0 95.22, 0 77.91 M25.97 103.88 C8.66 103.88, 0 95.22, 0 77.91 M0 77.91 C0 58.73, 0 39.55, 0 25.97 M0 77.91 C0 66.4, 0 54.9, 0 25.97 M0 25.97 C0 8.66, 8.66 0, 25.97 0 M0 25.97 C0 8.66, 8.66 0, 25.97 0" stroke="#1e1e1e" stroke-width="1" fill="none"></path></g><g stroke-linecap="round" transform="translate(10 133.31061766069843) rotate(0 133.92900633219688 10.779651729176862)"><path d="M5.39 0 C74.08 0, 142.78 0, 262.47 0 C266.06 0, 267.86 1.8, 267.86 5.39 C267.86 7.68, 267.86 9.97, 267.86 16.17 C267.86 19.76, 266.06 21.56, 262.47 21.56 C180.11 21.56, 97.75 21.56, 5.39 21.56 C1.8 21.56, 0 19.76, 0 16.17 C0 12.27, 0 8.38, 0 5.39 C0 1.8, 1.8 0, 5.39 0" stroke="none" stroke-width="0" fill="#ffffff"></path><path d="M5.39 0 C67.39 0, 129.39 0, 262.47 0 M5.39 0 C98.58 0, 191.78 0, 262.47 0 M262.47 0 C266.06 0, 267.86 1.8, 267.86 5.39 M262.47 0 C266.06 0, 267.86 1.8, 267.86 5.39 M267.86 5.39 C267.86 8.51, 267.86 11.63, 267.86 16.17 M267.86 5.39 C267.86 9.25, 267.86 13.12, 267.86 16.17 M267.86 16.17 C267.86 19.76, 266.06 21.56, 262.47 21.56 M267.86 16.17 C267.86 19.76, 266.06 21.56, 262.47 21.56 M262.47 21.56 C193.37 21.56, 124.27 21.56, 5.39 21.56 M262.47 21.56 C182.66 21.56, 102.86 21.56, 5.39 21.56 M5.39 21.56 C1.8 21.56, 0 19.76, 0 16.17 M5.39 21.56 C1.8 21.56, 0 19.76, 0 16.17 M0 16.17 C0 13.05, 0 9.94, 0 5.39 M0 16.17 C0 13.12, 0 10.08, 0 5.39 M0 5.39 C0 1.8, 1.8 0, 5.39 0 M0 5.39 C0 1.8, 1.8 0, 5.39 0" stroke="#ffffff" stroke-width="1" fill="none"></path></g><g stroke-linecap="round" transform="translate(13.658548465660033 104.30355482582263) rotate(0 132.2957257671702 15.02618119824649)"><path d="M2 1.74 C2 1.74, 2 1.74, 2 1.74 M2 1.74 C2 1.74, 2 1.74, 2 1.74 M0.43 9.65 C3.41 6.21, 6.4 2.77, 8.3 0.59 M0.43 9.65 C2.68 7.05, 4.94 4.45, 8.3 0.59 M0.82 15.29 C5.37 10.05, 9.92 4.82, 13.29 0.95 M0.82 15.29 C4.11 11.51, 7.39 7.73, 13.29 0.95 M0.56 21.69 C7.18 14.07, 13.79 6.46, 18.93 0.55 M0.56 21.69 C4.41 17.26, 8.25 12.83, 18.93 0.55 M0.95 27.33 C6.67 20.76, 12.38 14.18, 23.92 0.91 M0.95 27.33 C5.97 21.56, 10.99 15.78, 23.92 0.91 M3.97 29.95 C11.02 21.85, 18.06 13.74, 29.56 0.52 M3.97 29.95 C12.06 20.65, 20.14 11.36, 29.56 0.52 M8.96 30.31 C14.4 24.06, 19.84 17.8, 34.55 0.88 M8.96 30.31 C18.9 18.88, 28.85 7.44, 34.55 0.88 M14.6 29.92 C23.07 20.18, 31.53 10.45, 40.19 0.49 M14.6 29.92 C22.7 20.6, 30.81 11.28, 40.19 0.49 M19.59 30.28 C28.97 19.48, 38.36 8.69, 45.18 0.85 M19.59 30.28 C27.38 21.32, 35.17 12.35, 45.18 0.85 M25.23 29.88 C32.7 21.29, 40.17 12.7, 50.82 0.45 M25.23 29.88 C30.67 23.63, 36.11 17.37, 50.82 0.45 M30.22 30.24 C37.43 21.95, 44.63 13.66, 55.81 0.81 M30.22 30.24 C37.58 21.78, 44.94 13.31, 55.81 0.81 M35.86 29.85 C43.12 21.5, 50.38 13.16, 61.45 0.42 M35.86 29.85 C43.42 21.16, 50.98 12.46, 61.45 0.42 M40.85 30.21 C50.74 18.83, 60.64 7.45, 66.44 0.78 M40.85 30.21 C47.25 22.85, 53.65 15.49, 66.44 0.78 M45.84 30.57 C56.07 18.8, 66.3 7.03, 72.08 0.38 M45.84 30.57 C54.95 20.09, 64.06 9.6, 72.08 0.38 M51.48 30.18 C60.96 19.27, 70.45 8.36, 77.07 0.74 M51.48 30.18 C59.01 21.52, 66.54 12.86, 77.07 0.74 M56.47 30.54 C63.14 22.86, 69.81 15.19, 82.71 0.35 M56.47 30.54 C62.8 23.25, 69.13 15.97, 82.71 0.35 M62.11 30.14 C71.88 18.91, 81.64 7.67, 87.7 0.71 M62.11 30.14 C70.13 20.92, 78.14 11.7, 87.7 0.71 M67.1 30.5 C74.43 22.06, 81.77 13.63, 93.34 0.31 M67.1 30.5 C76.04 20.21, 84.99 9.92, 93.34 0.31 M72.74 30.11 C78.56 23.41, 84.38 16.71, 98.33 0.67 M72.74 30.11 C82.75 18.59, 92.76 7.07, 98.33 0.67 M77.73 30.47 C83.71 23.58, 89.7 16.7, 103.97 0.28 M77.73 30.47 C85.6 21.41, 93.48 12.35, 103.97 0.28 M83.37 30.07 C92.96 19.04, 102.56 8, 108.96 0.64 M83.37 30.07 C88.55 24.11, 93.73 18.15, 108.96 0.64 M88.36 30.43 C94.03 23.91, 99.69 17.39, 113.94 1 M88.36 30.43 C95.11 22.66, 101.86 14.89, 113.94 1 M94 30.04 C102.96 19.73, 111.93 9.42, 119.59 0.6 M94 30.04 C99.43 23.8, 104.85 17.55, 119.59 0.6 M98.99 30.4 C107.71 20.36, 116.43 10.33, 124.57 0.96 M98.99 30.4 C105.84 22.52, 112.68 14.64, 124.57 0.96 M104.63 30 C113.31 20.02, 121.99 10.03, 130.22 0.57 M104.63 30 C111.69 21.89, 118.74 13.77, 130.22 0.57 M109.62 30.36 C115.41 23.7, 121.21 17.03, 135.2 0.93 M109.62 30.36 C115.69 23.38, 121.76 16.4, 135.2 0.93 M115.26 29.97 C125.16 18.58, 135.07 7.19, 140.85 0.54 M115.26 29.97 C121.4 22.91, 127.54 15.85, 140.85 0.54 M120.25 30.33 C127.36 22.14, 134.48 13.96, 145.83 0.9 M120.25 30.33 C130.21 18.87, 140.18 7.4, 145.83 0.9 M125.89 29.93 C136.07 18.22, 146.25 6.51, 151.48 0.5 M125.89 29.93 C134.63 19.89, 143.36 9.84, 151.48 0.5 M130.88 30.29 C137.4 22.79, 143.92 15.29, 156.46 0.86 M130.88 30.29 C136.8 23.48, 142.73 16.66, 156.46 0.86 M136.52 29.9 C145.11 20.02, 153.71 10.13, 162.11 0.47 M136.52 29.9 C141.84 23.78, 147.16 17.66, 162.11 0.47 M141.51 30.26 C148.55 22.16, 155.59 14.06, 167.09 0.83 M141.51 30.26 C150.75 19.62, 160 8.99, 167.09 0.83 M147.15 29.87 C152.88 23.28, 158.61 16.69, 172.74 0.43 M147.15 29.87 C153.74 22.29, 160.33 14.71, 172.74 0.43 M152.14 30.23 C157.7 23.83, 163.25 17.44, 177.72 0.79 M152.14 30.23 C158.98 22.35, 165.82 14.48, 177.72 0.79 M157.13 30.59 C166.17 20.18, 175.21 9.78, 183.37 0.4 M157.13 30.59 C164.98 21.55, 172.83 12.52, 183.37 0.4 M162.77 30.19 C170.9 20.83, 179.04 11.47, 188.35 0.76 M162.77 30.19 C171.19 20.51, 179.6 10.82, 188.35 0.76 M167.76 30.55 C174.06 23.3, 180.36 16.05, 194 0.36 M167.76 30.55 C176.48 20.52, 185.2 10.48, 194 0.36 M173.4 30.16 C182.97 19.14, 192.54 8.13, 198.98 0.72 M173.4 30.16 C178.92 23.81, 184.44 17.46, 198.98 0.72 M178.39 30.52 C186.56 21.11, 194.74 11.7, 204.63 0.33 M178.39 30.52 C187.5 20.04, 196.6 9.56, 204.63 0.33 M184.03 30.12 C192.77 20.06, 201.52 10.01, 209.61 0.69 M184.03 30.12 C191.4 21.64, 198.77 13.17, 209.61 0.69 M189.02 30.48 C194.78 23.85, 200.55 17.21, 215.26 0.29 M189.02 30.48 C197.52 20.7, 206.03 10.91, 215.26 0.29 M194.66 30.09 C203.26 20.19, 211.86 10.3, 220.24 0.65 M194.66 30.09 C204.82 18.4, 214.97 6.72, 220.24 0.65 M199.65 30.45 C206.93 22.07, 214.22 13.69, 225.23 1.01 M199.65 30.45 C205.65 23.53, 211.66 16.62, 225.23 1.01 M205.29 30.05 C211.23 23.22, 217.17 16.39, 230.87 0.62 M205.29 30.05 C212.56 21.69, 219.83 13.32, 230.87 0.62 M210.28 30.41 C217.59 22, 224.91 13.58, 235.86 0.98 M210.28 30.41 C216.45 23.32, 222.61 16.22, 235.86 0.98 M215.92 30.02 C222.67 22.26, 229.42 14.49, 241.5 0.58 M215.92 30.02 C225.69 18.77, 235.47 7.53, 241.5 0.58 M220.91 30.38 C227.61 22.67, 234.32 14.95, 246.49 0.95 M220.91 30.38 C228.47 21.68, 236.03 12.98, 246.49 0.95 M226.55 29.98 C232.3 23.37, 238.04 16.76, 252.13 0.55 M226.55 29.98 C232.01 23.71, 237.47 17.43, 252.13 0.55 M231.54 30.34 C239.71 20.94, 247.88 11.54, 257.78 0.16 M231.54 30.34 C240.5 20.04, 249.45 9.73, 257.78 0.16 M237.18 29.95 C243.85 22.28, 250.52 14.6, 262.11 1.27 M237.18 29.95 C246.94 18.72, 256.7 7.49, 262.11 1.27 M242.17 30.31 C250.9 20.26, 259.64 10.21, 264.47 4.65 M242.17 30.31 C249.14 22.29, 256.11 14.27, 264.47 4.65 M247.81 29.92 C253.01 23.93, 258.21 17.95, 264.87 10.29 M247.81 29.92 C251.58 25.58, 255.35 21.24, 264.87 10.29 M252.8 30.28 C256.57 25.93, 260.34 21.59, 264.6 16.69 M252.8 30.28 C256.73 25.75, 260.67 21.22, 264.6 16.69 M257.78 30.64 C259.28 28.91, 260.79 27.18, 265 22.33 M257.78 30.64 C259.92 28.18, 262.06 25.72, 265 22.33" stroke="#ffffff" stroke-width="0.5" fill="none"></path><path d="M7.51 0 C69.25 0, 130.98 0, 257.08 0 M7.51 0 C61.74 0, 115.97 0, 257.08 0 M257.08 0 C262.09 0, 264.59 2.5, 264.59 7.51 M257.08 0 C262.09 0, 264.59 2.5, 264.59 7.51 M264.59 7.51 C264.59 12.6, 264.59 17.69, 264.59 22.54 M264.59 7.51 C264.59 11.36, 264.59 15.2, 264.59 22.54 M264.59 22.54 C264.59 27.55, 262.09 30.05, 257.08 30.05 M264.59 22.54 C264.59 27.55, 262.09 30.05, 257.08 30.05 M257.08 30.05 C196.08 30.05, 135.09 30.05, 7.51 30.05 M257.08 30.05 C200.35 30.05, 143.62 30.05, 7.51 30.05 M7.51 30.05 C2.5 30.05, 0 27.55, 0 22.54 M7.51 30.05 C2.5 30.05, 0 27.55, 0 22.54 M0 22.54 C0 17.72, 0 12.91, 0 7.51 M0 22.54 C0 16.95, 0 11.35, 0 7.51 M0 7.51 C0 2.5, 2.5 0, 7.51 0 M0 7.51 C0 2.5, 2.5 0, 7.51 0" stroke="#ffffff" stroke-width="1" fill="none"></path></g><g transform="translate(122.04889056871889 50.91510084809988) rotate(0 13.52093531501282 6.53312226010712)"><text x="0" y="0" font-family="Virgil, Segoe UI Emoji" font-size="10.452995616171465px" fill="#1e1e1e" text-anchor="start" style="white-space: pre;" direction="ltr" dominant-baseline="text-before-edge">Scale</text></g><g transform="translate(93.05904563614695 79.83886695509545) rotate(0 49.337745666503906 22.62084978367841)"><text x="0" y="0" font-family="Virgil, Segoe UI Emoji" font-size="12.064453217961791px" fill="#1e1e1e" text-anchor="start" style="white-space: pre;" direction="ltr" dominant-baseline="text-before-edge">Users: 0.1$/MAU</text><text x="0" y="15.080566522452239" font-family="Virgil, Segoe UI Emoji" font-size="12.064453217961791px" fill="#1e1e1e" text-anchor="start" style="white-space: pre;" direction="ltr" dominant-baseline="text-before-edge">Storage: 2$/GB</text><text x="0" y="30.161133044904478" font-family="Virgil, Segoe UI Emoji" font-size="12.064453217961791px" fill="#1e1e1e" text-anchor="start" style="white-space: pre;" direction="ltr" dominant-baseline="text-before-edge">        ...</text></g><g transform="translate(133.05904563614695 10) rotate(0 2.7399978637695312 12.5)"><text x="0" y="0" font-family="Virgil, Segoe UI Emoji" font-size="20px" fill="#ffffff" text-anchor="start" style="white-space: pre;" direction="ltr" dominant-baseline="text-before-edge">.</text></g></svg>
