<?xml version="1.0" encoding="UTF-8"?>
<svg version="1.1" viewBox="0 0 309.5 196.8" xmlns="http://www.w3.org/2000/svg">
<defs>
<style class="style-fonts">@font-face {
        font-family: "Virgil";
        src: url("https://excalidraw.com/Virgil.woff2");
      }
      @font-face {
        font-family: "Cascadia";
        src: url("https://excalidraw.com/Cascadia.woff2");
      }</style>
</defs>
<rect width="309.5" height="196.8" fill="#fff"/>
<g transform="translate(17.051 95.352) rotate(0 52.527 42.656)" stroke-linecap="round">
<path d="m21.33 0h62.4c14.22 0 21.32 7.11 21.32 21.33v42.65c0 14.22-7.1 21.33-21.32 21.33h-62.4c-14.22 0-21.33-7.11-21.33-21.33v-42.65c0-14.22 7.11-21.33 21.33-21.33" fill="#fff" stroke-width="0"/>
<path d="m21.33 0h62.4m-62.4 0h62.4c14.22 0 21.32 7.11 21.32 21.33m-21.32-21.33c14.22 0 21.32 7.11 21.32 21.33v42.65m0-42.65v42.65c0 14.22-7.1 21.33-21.32 21.33m21.32-21.33c0 14.22-7.1 21.33-21.32 21.33h-62.4m62.4 0h-62.4c-14.22 0-21.33-7.11-21.33-21.33m21.33 21.33c-14.22 0-21.33-7.11-21.33-21.33v-42.65m0 42.65v-42.65c0-14.22 7.11-21.33 21.33-21.33m-21.33 21.33c0-14.22 7.11-21.33 21.33-21.33" fill="none" stroke="#1e1e1e"/>
</g>
<g transform="translate(175.06 95.07) rotate(0 58.873 43.362)" stroke-linecap="round">
<path d="m21.68 0h74.39c14.45 0 21.68 7.23 21.68 21.68v43.36c0 14.46-7.23 21.68-21.68 21.68h-74.39c-14.45 0-21.68-7.22-21.68-21.68v-43.36c0-14.45 7.23-21.68 21.68-21.68" fill="#fff" stroke-width="0"/>
<path d="m21.68 0h74.39m-74.39 0h74.39c14.45 0 21.68 7.23 21.68 21.68m-21.68-21.68c14.45 0 21.68 7.23 21.68 21.68v43.36m0-43.36v43.36c0 14.46-7.23 21.68-21.68 21.68m21.68-21.68c0 14.46-7.23 21.68-21.68 21.68h-74.39m74.39 0h-74.39c-14.45 0-21.68-7.22-21.68-21.68m21.68 21.68c-14.45 0-21.68-7.22-21.68-21.68v-43.36m0 43.36v-43.36c0-14.45 7.23-21.68 21.68-21.68m-21.68 21.68c0-14.45 7.23-21.68 21.68-21.68" fill="none" stroke="#1e1e1e"/>
</g>
<g transform="translate(91.717 67.854) rotate(0 58.873 56.053)" stroke-linecap="round">
<path d="m28.03 0h61.69c18.68 0 28.03 9.34 28.03 28.03v56.05c0 18.68-9.35 28.03-28.03 28.03h-61.69c-18.69 0-28.03-9.35-28.03-28.03v-56.05c0-18.69 9.34-28.03 28.03-28.03" fill="#fff" stroke-width="0"/>
<path d="m28.03 0h61.69m-61.69 0h61.69c18.68 0 28.03 9.34 28.03 28.03m-28.03-28.03c18.68 0 28.03 9.34 28.03 28.03v56.05m0-56.05v56.05c0 18.68-9.35 28.03-28.03 28.03m28.03-28.03c0 18.68-9.35 28.03-28.03 28.03h-61.69m61.69 0h-61.69c-18.69 0-28.03-9.35-28.03-28.03m28.03 28.03c-18.69 0-28.03-9.35-28.03-28.03v-56.05m0 56.05v-56.05c0-18.69 9.34-28.03 28.03-28.03m-28.03 28.03c0-18.69 9.34-28.03 28.03-28.03" fill="none" stroke="#1e1e1e"/>
</g>
<g transform="translate(10 163.53) rotate(0 144.54 11.634)" stroke-linecap="round">
<path d="m5.82 0h277.44c3.88 0 5.82 1.94 5.82 5.82v11.63c0 3.88-1.94 5.82-5.82 5.82h-277.44c-3.88 0-5.82-1.94-5.82-5.82v-11.63c0-3.88 1.94-5.82 5.82-5.82" fill="#fff" stroke-width="0"/>
<path d="m5.82 0h277.44m-277.44 0h277.44c3.88 0 5.82 1.94 5.82 5.82m-5.82-5.82c3.88 0 5.82 1.94 5.82 5.82v11.63m0-11.63v11.63c0 3.88-1.94 5.82-5.82 5.82m5.82-5.82c0 3.88-1.94 5.82-5.82 5.82h-277.44m277.44 0h-277.44c-3.88 0-5.82-1.94-5.82-5.82m5.82 5.82c-3.88 0-5.82-1.94-5.82-5.82v-11.63m0 11.63v-11.63c0-3.88 1.94-5.82 5.82-5.82m-5.82 5.82c0-3.88 1.94-5.82 5.82-5.82" fill="none" stroke="#fff"/>
</g>
<g transform="translate(13.948 132.23) rotate(0 142.78 16.217)" fill="none" stroke="#fff" stroke-linecap="round">
<path d="m2.16 1.88m-1.58 7.9c2.39-2.74 4.77-5.48 7.88-9.05m-7.88 9.05c2.31-2.65 4.61-5.3 7.88-9.05m-8.14 15.45c4.14-4.75 8.27-9.51 13.78-15.85m-13.78 15.85c5.21-5.98 10.41-11.97 13.78-15.85m-13.38 21.49c5.14-5.92 10.29-11.84 18.37-21.13m-18.37 21.13c6.66-7.66 13.32-15.32 18.37-21.13m-18.63 27.53c8.97-10.32 17.95-20.65 24.27-27.92m-24.27 27.92c9.02-10.38 18.04-20.76 24.27-27.92m-21.25 30.55c9.48-10.92 18.97-21.83 26.24-30.19m-26.24 30.19c6.63-7.64 13.27-15.28 26.24-30.19m-22.57 32.06c7.99-9.2 15.99-18.39 28.21-32.46m-28.21 32.46c8.75-10.07 17.51-20.14 28.21-32.46m-23.22 32.82c10.34-11.91 20.69-23.81 28.21-32.46m-28.21 32.46c6.62-7.62 13.24-15.23 28.21-32.46m-22.57 32.06c6.09-7 12.17-14 28.21-32.45m-28.21 32.45c6.63-7.62 13.26-15.25 28.21-32.45m-23.22 32.81c10.59-12.18 21.18-24.36 28.21-32.45m-28.21 32.45c10.43-12 20.86-24 28.21-32.45m-22.57 32.06c8.49-9.77 16.98-19.54 28.21-32.46m-28.21 32.46c7.84-9.03 15.69-18.05 28.21-32.46m-23.22 32.82c9.2-10.59 18.4-21.18 28.21-32.46m-28.21 32.46c8.77-10.09 17.53-20.18 28.21-32.46m-22.57 32.06c6.56-7.55 13.12-15.09 28.21-32.45m-28.21 32.45c7.4-8.51 14.8-17.02 28.21-32.45m-23.22 32.81c6.13-7.06 12.27-14.12 28.21-32.45m-28.21 32.45c8.49-9.77 16.99-19.54 28.21-32.45m-22.57 32.06c7.43-8.55 14.87-17.1 28.21-32.45m-28.21 32.45c8.5-9.78 17.01-19.57 28.21-32.45m-23.22 32.81c8.65-9.96 17.31-19.91 28.21-32.45m-28.21 32.45c10.56-12.15 21.12-24.31 28.21-32.45m-22.57 32.05c5.68-6.52 11.35-13.05 27.56-31.69m-27.56 31.69c11.01-12.66 22.02-25.32 27.56-31.69m-22.57 32.05c8.77-10.09 17.54-20.18 28.21-32.45m-28.21 32.45c10.02-11.53 20.04-23.06 28.21-32.45m-22.57 32.06c6.38-7.34 12.76-14.68 27.56-31.7m-27.56 31.7c6.92-7.97 13.85-15.93 27.56-31.7m-22.57 32.06c5.82-6.7 11.64-13.39 28.21-32.45m-28.21 32.45c7.3-8.4 14.6-16.79 28.21-32.45m-22.57 32.05c7.48-8.6 14.95-17.19 27.56-31.69m-27.56 31.69c6.67-7.67 13.35-15.35 27.56-31.69m-22.57 32.05c6.45-7.42 12.9-14.84 28.21-32.45m-28.21 32.45c8.19-9.42 16.39-18.85 28.21-32.45m-22.57 32.06c5.94-6.83 11.88-13.67 27.56-31.7m-27.56 31.7c6.84-7.87 13.68-15.74 27.56-31.7m-22.57 32.06c7.7-8.86 15.4-17.72 28.21-32.45m-28.21 32.45c6.96-8.01 13.93-16.02 28.21-32.45m-22.57 32.06c8.66-9.96 17.32-19.92 27.56-31.7m-27.56 31.7c6.5-7.49 13.01-14.97 27.56-31.7m-22.57 32.06c8.29-9.54 16.57-19.07 28.21-32.46m-28.21 32.46c8.88-10.22 17.76-20.44 28.21-32.46m-22.57 32.06c10.37-11.92 20.73-23.85 27.56-31.7m-27.56 31.7c7.25-8.33 14.49-16.67 27.56-31.7m-22.57 32.06c8.6-9.89 17.19-19.78 28.21-32.45m-28.21 32.45c7.67-8.83 15.35-17.65 28.21-32.45m-23.22 32.81c10.44-12.01 20.88-24.03 28.21-32.45m-28.21 32.45c7.8-8.98 15.61-17.97 28.21-32.45m-22.57 32.06c10.7-12.31 21.4-24.62 28.21-32.46m-28.21 32.46c8.08-9.3 16.17-18.61 28.21-32.46m-23.22 32.82c6.31-7.27 12.63-14.54 28.21-32.46m-28.21 32.46c8.92-10.27 17.84-20.53 28.21-32.46m-22.57 32.06c7.05-8.1 14.09-16.21 28.21-32.45m-28.21 32.45c8.95-10.3 17.91-20.6 28.21-32.45m-23.22 32.81c6.34-7.29 12.68-14.59 28.21-32.45m-28.21 32.45c8.75-10.07 17.5-20.14 28.21-32.45m-22.57 32.06c8.69-10.01 17.39-20.01 28.21-32.46m-28.21 32.46c8.86-10.19 17.71-20.38 28.21-32.46m-23.22 32.82c6.18-7.12 12.37-14.24 28.21-32.45m-28.21 32.45c7.86-9.05 15.72-18.09 28.21-32.45m-22.57 32.05c5.81-6.68 11.62-13.37 28.21-32.45m-28.21 32.45c6.1-7.02 12.2-14.04 28.21-32.45m-23.22 32.81c6.02-6.93 12.05-13.86 28.21-32.45m-28.21 32.45c9.36-10.77 18.73-21.55 28.21-32.45m-22.57 32.06c6.99-8.05 13.98-16.09 27.55-31.7m-27.55 31.7c9.79-11.26 19.57-22.52 27.55-31.7m-22.56 32.06c10.52-12.11 21.04-24.21 28.21-32.45m-28.21 32.45c7.64-8.8 15.29-17.6 28.21-32.45m-22.57 32.05c6.1-7.02 12.21-14.04 27.55-31.69m-27.55 31.69c6.94-7.98 13.88-15.96 27.55-31.69m-22.56 32.05c6.26-7.21 12.53-14.42 28.21-32.45m-28.21 32.45c10.93-12.58 21.87-25.16 28.21-32.45m-22.57 32.06c9.34-10.74 18.67-21.48 27.55-31.7m-27.55 31.7c6.02-6.92 12.03-13.85 27.55-31.7m-22.56 32.06c6.92-7.96 13.84-15.93 28.21-32.45m-28.21 32.45c7.45-8.57 14.9-17.15 28.21-32.45m-22.57 32.05c8.11-9.33 16.22-18.66 27.55-31.69m-27.55 31.69c9.84-11.32 19.69-22.65 27.55-31.69m-22.56 32.06c8.07-9.29 16.13-18.57 28.21-32.46m-28.21 32.46c10.53-12.12 21.05-24.23 28.21-32.46m-22.57 32.06c6.52-7.5 13.03-14.99 27.55-31.7m-27.55 31.7c9.97-11.47 19.94-22.94 27.55-31.7m-22.56 32.06c9.79-11.26 19.58-22.53 28.21-32.45m-28.21 32.45c7.85-9.04 15.71-18.08 28.21-32.45m-22.57 32.06c10.27-11.82 20.54-23.63 27.55-31.7m-27.55 31.7c8.7-10.01 17.4-20.02 27.55-31.7m-22.56 32.06c11.02-12.68 22.04-25.36 28.21-32.46m-28.21 32.46c6.6-7.6 13.21-15.2 28.21-32.46m-23.23 32.82c10.44-12.01 20.87-24.01 28.21-32.46m-28.21 32.46c8.29-9.53 16.57-19.06 28.21-32.46m-22.56 32.06c9.55-10.99 19.1-21.98 28.21-32.45m-28.21 32.45c10.85-12.49 21.71-24.98 28.21-32.45m-23.23 32.81c10-11.5 19.99-23 28.21-32.45m-28.21 32.45c10.17-11.7 20.34-23.4 28.21-32.45m-22.56 32.06c7.66-8.82 15.33-17.64 28.21-32.46m-28.21 32.46c10.33-11.89 20.66-23.77 28.21-32.46m-23.23 32.82c8.39-9.65 16.78-19.3 26.9-30.95m-26.9 30.95c10.01-11.52 20.02-23.03 26.9-30.95m-21.25 30.55c5.59-6.44 11.19-12.87 24.27-27.92m-24.27 27.92c7.38-8.49 14.76-16.98 24.27-27.92m-19.29 28.28c5.47-6.29 10.94-12.58 19.03-21.88m-19.03 21.88c7.13-8.2 14.26-16.4 19.03-21.88m-13.38 21.49c2.95-3.41 5.91-6.81 13.77-15.85m-13.77 15.85c2.96-3.41 5.92-6.82 13.77-15.85m-8.13 15.45c3.04-3.49 6.07-6.98 7.87-9.05m-7.87 9.05c1.62-1.86 3.23-3.72 7.87-9.05" stroke-width=".5"/>
<path d="m8.11 0h269.33m-269.33 0h269.33c5.41 0 8.11 2.7 8.11 8.11m-8.11-8.11c5.41 0 8.11 2.7 8.11 8.11v16.21m0-16.21v16.21c0 5.41-2.7 8.11-8.11 8.11m8.11-8.11c0 5.41-2.7 8.11-8.11 8.11h-269.33m269.33 0h-269.33c-5.41 0-8.11-2.7-8.11-8.11m8.11 8.11c-5.41 0-8.11-2.7-8.11-8.11v-16.21m0 16.21v-16.21c0-5.41 2.7-8.11 8.11-8.11m-8.11 8.11c0-5.41 2.7-8.11 8.11-8.11"/>
</g>
<g transform="translate(130.93 74.611) rotate(0 14.592 7.0507)">
<text dominant-baseline="text-before-edge" fill="#1e1e1e" font-family="Virgil, Segoe UI Emoji" font-size="11.281px" style="white-space:pre">Scale</text>
</g>
<g transform="translate(99.962 93.482) rotate(0 57.179 9.1386)">
<text dominant-baseline="text-before-edge" fill="#1e1e1e" font-family="Virgil, Segoe UI Emoji" font-size="14.622px" style="white-space:pre">$12/seat/month</text>
</g>
<g transform="translate(104.93 42.261) rotate(0 43.876 9.2239)" stroke-linecap="round">
<path d="m4.61 0h78.53m-78.53 0h78.53c3.07 0 4.61 1.54 4.61 4.61m-4.61-4.61c3.07 0 4.61 1.54 4.61 4.61v9.23m0-9.23v9.23c0 3.07-1.54 4.61-4.61 4.61m4.61-4.61c0 3.07-1.54 4.61-4.61 4.61h-78.53m78.53 0h-78.53c-3.07 0-4.61-1.54-4.61-4.61m4.61 4.61c-3.07 0-4.61-1.54-4.61-4.61v-9.23m0 9.23v-9.23c0-3.07 1.54-4.61 4.61-4.61m-4.61 4.61c0-3.07 1.54-4.61 4.61-4.61" fill="none" stroke="#1e1e1e"/>
</g>
<g transform="translate(109.12 46.25) rotate(0 13.732 4.9859)">
<text dominant-baseline="text-before-edge" fill="#1e1e1e" font-family="Virgil, Segoe UI Emoji" font-size="7.9775px" style="white-space:pre">monthly</text>
</g>
<g transform="translate(150.3 42.76) rotate(0 20.941 8.7254)" fill="none" stroke-linecap="round">
<path d="m1.16 1.01m-0.26 6.4c2.23-2.56 4.45-5.13 6.56-7.55m-6.56 7.55c1.51-1.74 3.02-3.48 6.56-7.55m-6.82 13.95c4.07-4.69 8.14-9.37 11.81-13.59m-11.81 13.59c4.5-5.18 9-10.36 11.81-13.59m-9.45 16.96c4.09-4.71 8.19-9.41 14.43-16.6m-14.43 16.6c3.37-3.87 6.74-7.75 14.43-16.6m-9.44 16.96c3.26-3.74 6.51-7.49 15.09-17.35m-15.09 17.35c4.07-4.67 8.13-9.35 15.09-17.35m-10.1 17.71c4.16-4.78 8.32-9.57 15.08-17.35m-15.08 17.35c3.86-4.44 7.72-8.88 15.08-17.35m-9.44 16.96c3.06-3.53 6.13-7.05 15.09-17.36m-15.09 17.36c3.22-3.7 6.43-7.4 15.09-17.36m-10.1 17.72c4.14-4.77 8.29-9.54 15.08-17.36m-15.08 17.36c5.8-6.68 11.6-13.35 15.08-17.36m-9.44 16.97c2.94-3.39 5.88-6.77 12.46-14.34m-12.46 14.34c2.54-2.93 5.09-5.86 12.46-14.34m-7.47 14.7c1.81-2.09 3.62-4.18 7.87-9.06m-7.87 9.06c2.09-2.42 4.19-4.83 7.87-9.06m-39.75 8.32m6.4 0.26c-2.34-2.04-4.68-4.07-8.3-7.22m8.3 7.22c-2.55-2.22-5.1-4.44-8.3-7.22m13.94 6.82c-2.8-2.43-5.61-4.87-13.58-11.8m13.58 11.8c-5.34-4.64-10.68-9.28-13.58-11.8m19.98 12.07c-6.81-5.92-13.62-11.85-18.87-16.41m18.87 16.41c-5.14-4.48-10.29-8.95-18.87-16.41m25.27 16.67c-5.41-4.7-10.82-9.41-21.13-18.37m21.13 18.37c-5.74-4.99-11.48-9.98-21.13-18.37m26.77 17.97c-7.91-6.88-15.83-13.76-20.38-17.71m20.38 17.71c-5.85-5.09-11.71-10.17-20.38-17.71m26.02 17.32c-7.33-6.37-14.66-12.75-19.62-17.06m19.62 17.06c-7.04-6.12-14.08-12.24-19.62-17.06m23 14.7c-4.79-4.17-9.59-8.34-17.35-15.09m17.35 15.09c-4.08-3.55-8.16-7.1-17.35-15.09m17.71 10.1c-3.86-3.36-7.73-6.73-11.32-9.84m11.32 9.84c-3.89-3.39-7.78-6.77-11.32-9.84m10.93 4.2c-1.48-1.29-2.96-2.58-4.53-3.94m4.53 3.94c-1.63-1.42-3.26-2.84-4.53-3.94" stroke="#ffec99" stroke-width=".5"/>
<path d="m4.36 0h33.16m-33.16 0h33.16c2.91 0 4.36 1.45 4.36 4.36m-4.36-4.36c2.91 0 4.36 1.45 4.36 4.36v8.73m0-8.73v8.73c0 2.91-1.45 4.36-4.36 4.36m4.36-4.36c0 2.91-1.45 4.36-4.36 4.36h-33.16m33.16 0h-33.16c-2.91 0-4.36-1.45-4.36-4.36m4.36 4.36c-2.91 0-4.36-1.45-4.36-4.36v-8.73m0 8.73v-8.73c0-2.91 1.45-4.36 4.36-4.36m-4.36 4.36c0-2.91 1.45-4.36 4.36-4.36" stroke="#1e1e1e"/>
</g>
<g transform="translate(160.19 46.051) rotate(0 11.341 4.9859)">
<text dominant-baseline="text-before-edge" fill="#1e1e1e" font-family="Virgil, Segoe UI Emoji" font-size="7.9775px" style="white-space:pre">yearly</text>
</g>
<g transform="translate(119.6 125.66) rotate(0 28.352 6.2023)">
<text dominant-baseline="text-before-edge" fill="#1e1e1e" font-family="Virgil, Segoe UI Emoji" font-size="9.9237px" style="white-space:pre">billed yearly</text>
</g>
<g transform="translate(98.852 10.732) rotate(0 26.926 9.1659)">
<text dominant-baseline="text-before-edge" fill="#1e1e1e" font-family="Virgil, Segoe UI Emoji" font-size="14.665px" style="white-space:pre">Seats: </text>
</g>
<g stroke-linecap="round">
<g transform="translate(150.76 27.372) rotate(0 17.979 0)">
<path d="m0 0h35.96m-35.96 0h35.96" fill="none" stroke="#1e1e1e"/>
</g>
</g>
<mask/>
<g transform="translate(159.55 11.437) rotate(0 5.9502 7.7557)">
<text dominant-baseline="text-before-edge" fill="#1e1e1e" font-family="Virgil, Segoe UI Emoji" font-size="12.409px" style="white-space:pre">10</text>
</g>
<g transform="translate(179 16.85) rotate(0 2.0772 4.9645)">
<text dominant-baseline="text-before-edge" fill="#1e1e1e" font-family="Virgil, Segoe UI Emoji" font-size="7.9432px" style="white-space:pre">v</text>
</g>
<g transform="translate(179.2 10.098) rotate(177.12 2.0772 4.9645)">
<text dominant-baseline="text-before-edge" fill="#1e1e1e" font-family="Virgil, Segoe UI Emoji" font-size="7.9432px" style="white-space:pre">v</text>
</g>
</svg>
