<svg width="20" height="20" viewBox="0 0 20 20" fill="none" xmlns="http://www.w3.org/2000/svg">
<g filter="url(#filter0_i_335_11092)">
<rect width="20" height="20" rx="10" fill="#2563EB"/>
<rect width="20" height="20" rx="10" fill="url(#paint0_linear_335_11092)"/>
<rect width="20" height="20" rx="10" fill="url(#paint1_linear_335_11092)"/>
<g clip-path="url(#clip0_335_11092)">
<path d="M5.5 14C6.66789 12.7613 8.25351 12 10 12C11.7465 12 13.3321 12.7613 14.5 14M12.25 7.75C12.25 8.99264 11.2427 10 10 10C8.75736 10 7.75 8.99264 7.75 7.75C7.75 6.50736 8.75736 5.5 10 5.5C11.2427 5.5 12.25 6.50736 12.25 7.75Z" stroke="white" stroke-width="1.5" stroke-linecap="square" stroke-linejoin="round"/>
</g>
</g>
<defs>
<filter id="filter0_i_335_11092" x="0" y="0" width="20" height="20.5" filterUnits="userSpaceOnUse" color-interpolation-filters="sRGB">
<feFlood flood-opacity="0" result="BackgroundImageFix"/>
<feBlend mode="normal" in="SourceGraphic" in2="BackgroundImageFix" result="shape"/>
<feColorMatrix in="SourceAlpha" type="matrix" values="0 0 0 0 0 0 0 0 0 0 0 0 0 0 0 0 0 0 127 0" result="hardAlpha"/>
<feOffset dy="1"/>
<feGaussianBlur stdDeviation="0.25"/>
<feComposite in2="hardAlpha" operator="arithmetic" k2="-1" k3="1"/>
<feColorMatrix type="matrix" values="0 0 0 0 1 0 0 0 0 1 0 0 0 0 1 0 0 0 0.34 0"/>
<feBlend mode="normal" in2="shape" result="effect1_innerShadow_335_11092"/>
</filter>
<linearGradient id="paint0_linear_335_11092" x1="-1.25" y1="-17.0833" x2="23.3333" y2="53.75" gradientUnits="userSpaceOnUse">
<stop offset="0.115" stop-color="#F3CBFF"/>
<stop offset="0.34" stop-color="#E079FF"/>
<stop offset="0.516022" stop-color="#F62C73"/>
<stop offset="1" stop-opacity="0"/>
</linearGradient>
<linearGradient id="paint1_linear_335_11092" x1="-1.25" y1="-17.0833" x2="23.3333" y2="53.75" gradientUnits="userSpaceOnUse">
<stop offset="0.115" stop-color="#D7FFCB"/>
<stop offset="0.34" stop-color="#E079FF"/>
<stop offset="0.516022" stop-color="#F62C73"/>
<stop offset="1" stop-opacity="0"/>
</linearGradient>
<clipPath id="clip0_335_11092">
<rect width="12" height="12" fill="white" transform="translate(4 4)"/>
</clipPath>
</defs>
</svg>
