<svg width="20" height="20" viewBox="0 0 20 20" fill="none" xmlns="http://www.w3.org/2000/svg">
<g filter="url(#filter0_i_404_18671)">
<rect width="20" height="20" rx="10" fill="#2563EB"/>
<rect width="20" height="20" rx="10" fill="url(#paint0_linear_404_18671)"/>
<rect width="20" height="20" rx="10" fill="url(#paint1_linear_404_18671)"/>
<g clip-path="url(#clip0_404_18671)">
<path d="M14.5232 7.79041C14.5232 7.55853 14.399 7.34444 14.1976 7.22939L10.3207 5.01395C10.122 4.90043 9.87817 4.90043 9.67952 5.01395L5.80261 7.22939C5.60129 7.34444 5.47705 7.55853 5.47705 7.79041V12.2096C5.47705 12.4414 5.60129 12.6555 5.80262 12.7706L9.67952 14.986C9.87817 15.0995 10.122 15.0995 10.3207 14.986L14.1976 12.7706C14.3989 12.6555 14.5232 12.4414 14.5232 12.2096V7.79041Z" stroke="white" stroke-width="1.24615" stroke-linecap="round"/>
<path d="M5.50293 7.48047L10.0022 10.0055L14.5015 7.48047" stroke="white" stroke-width="1.24615" stroke-linecap="round" stroke-linejoin="round"/>
<path d="M10.001 15.0404V10.0004" stroke="white" stroke-width="1.24615" stroke-linecap="round" stroke-linejoin="round"/>
</g>
</g>
<defs>
<filter id="filter0_i_404_18671" x="0" y="0" width="20" height="20.5" filterUnits="userSpaceOnUse" color-interpolation-filters="sRGB">
<feFlood flood-opacity="0" result="BackgroundImageFix"/>
<feBlend mode="normal" in="SourceGraphic" in2="BackgroundImageFix" result="shape"/>
<feColorMatrix in="SourceAlpha" type="matrix" values="0 0 0 0 0 0 0 0 0 0 0 0 0 0 0 0 0 0 127 0" result="hardAlpha"/>
<feOffset dy="1"/>
<feGaussianBlur stdDeviation="0.25"/>
<feComposite in2="hardAlpha" operator="arithmetic" k2="-1" k3="1"/>
<feColorMatrix type="matrix" values="0 0 0 0 1 0 0 0 0 1 0 0 0 0 1 0 0 0 0.34 0"/>
<feBlend mode="normal" in2="shape" result="effect1_innerShadow_404_18671"/>
</filter>
<linearGradient id="paint0_linear_404_18671" x1="-1.25" y1="-17.0833" x2="23.3333" y2="53.75" gradientUnits="userSpaceOnUse">
<stop offset="0.115" stop-color="#F3CBFF"/>
<stop offset="0.34" stop-color="#E079FF"/>
<stop offset="0.516022" stop-color="#F62C73"/>
<stop offset="1" stop-opacity="0"/>
</linearGradient>
<linearGradient id="paint1_linear_404_18671" x1="-1.25" y1="-17.0833" x2="25" y2="57.8571" gradientUnits="userSpaceOnUse">
<stop offset="0.156023" stop-color="#F3CBFF"/>
<stop offset="0.34" stop-color="#E079FF"/>
<stop offset="0.494038" stop-color="#6C2CF6"/>
<stop offset="1" stop-opacity="0"/>
</linearGradient>
<clipPath id="clip0_404_18671">
<rect width="12.3692" height="12" fill="white" transform="translate(3.81543 4)"/>
</clipPath>
</defs>
</svg>
