<svg width="20" height="20" viewBox="0 0 20 20" fill="none" xmlns="http://www.w3.org/2000/svg">
<g filter="url(#filter0_i_390_16918)">
<rect width="20" height="20" rx="10" fill="#2563EB"/>
<rect width="20" height="20" rx="10" fill="url(#paint0_linear_390_16918)"/>
<rect width="20" height="20" rx="10" fill="url(#paint1_linear_390_16918)"/>
<rect width="20" height="20" rx="10" fill="url(#paint2_linear_390_16918)"/>
<g clip-path="url(#clip0_390_16918)">
<g clip-path="url(#clip1_390_16918)">
<path d="M7.91602 8.6106H12.0827" stroke="#F1F0EF" stroke-width="1.07143" stroke-linecap="square" stroke-linejoin="round"/>
<path d="M7.91602 10.2776H12.0827" stroke="#F1F0EF" stroke-width="1.07143" stroke-linecap="square" stroke-linejoin="round"/>
<path d="M6.11133 13.8884V6.49948C6.11133 6.39634 6.14547 6.29743 6.20625 6.2245C6.26702 6.15157 6.34945 6.1106 6.4354 6.1106H13.565C13.651 6.1106 13.7334 6.15157 13.7942 6.2245C13.855 6.29743 13.8891 6.39634 13.8891 6.49948V13.8884L12.5928 13.1106L11.2965 13.8884L10.0002 13.1106L8.70392 13.8884L7.40762 13.1106L6.11133 13.8884Z" stroke="#F1F0EF" stroke-width="1.07143" stroke-linecap="round"/>
</g>
</g>
</g>
<defs>
<filter id="filter0_i_390_16918" x="0" y="0" width="20" height="20.5" filterUnits="userSpaceOnUse" color-interpolation-filters="sRGB">
<feFlood flood-opacity="0" result="BackgroundImageFix"/>
<feBlend mode="normal" in="SourceGraphic" in2="BackgroundImageFix" result="shape"/>
<feColorMatrix in="SourceAlpha" type="matrix" values="0 0 0 0 0 0 0 0 0 0 0 0 0 0 0 0 0 0 127 0" result="hardAlpha"/>
<feOffset dy="1"/>
<feGaussianBlur stdDeviation="0.25"/>
<feComposite in2="hardAlpha" operator="arithmetic" k2="-1" k3="1"/>
<feColorMatrix type="matrix" values="0 0 0 0 1 0 0 0 0 1 0 0 0 0 1 0 0 0 0.34 0"/>
<feBlend mode="normal" in2="shape" result="effect1_innerShadow_390_16918"/>
</filter>
<linearGradient id="paint0_linear_390_16918" x1="-1.25" y1="-17.0833" x2="23.3333" y2="53.75" gradientUnits="userSpaceOnUse">
<stop offset="0.115" stop-color="#F3CBFF"/>
<stop offset="0.34" stop-color="#E079FF"/>
<stop offset="0.516022" stop-color="#F62C73"/>
<stop offset="1" stop-opacity="0"/>
</linearGradient>
<linearGradient id="paint1_linear_390_16918" x1="-1.25" y1="-17.0833" x2="23.3333" y2="53.75" gradientUnits="userSpaceOnUse">
<stop offset="0.115" stop-color="#D7FFCB"/>
<stop offset="0.34" stop-color="#E079FF"/>
<stop offset="0.516022" stop-color="#F62C73"/>
<stop offset="1" stop-opacity="0"/>
</linearGradient>
<linearGradient id="paint2_linear_390_16918" x1="-1.25" y1="-17.0833" x2="25" y2="57.8571" gradientUnits="userSpaceOnUse">
<stop offset="0.156023" stop-color="#F3CBFF"/>
<stop offset="0.34" stop-color="#E079FF"/>
<stop offset="0.494038" stop-color="#6C2CF6"/>
<stop offset="1" stop-opacity="0"/>
</linearGradient>
<clipPath id="clip0_390_16918">
<rect width="10" height="10" fill="white" transform="translate(5 5)"/>
</clipPath>
<clipPath id="clip1_390_16918">
<rect width="10" height="10" fill="white" transform="translate(5 5)"/>
</clipPath>
</defs>
</svg>
